<?xml version="1.0" encoding="UTF-8"?> <svg xmlns="http://www.w3.org/2000/svg" xmlns:xlink="http://www.w3.org/1999/xlink" id="svg" width="400" height="206.67838312829525" viewBox="0 0 400 206.67838312829525"> <g id="svgg"> <path id="path0" d="M0.000 65.633 L 0.000 121.550 55.814 121.550 L 111.628 121.550 111.628 121.116 C 111.628 120.817,107.481 116.534,98.318 107.369 L 85.007 94.057 56.147 94.057 L 27.287 94.057 27.287 65.192 L 27.287 36.328 13.986 23.022 C 6.671 15.703,0.531 9.716,0.343 9.716 C 0.024 9.716,0.000 13.704,0.000 65.633 M149.819 105.133 C 149.734 105.219,149.664 105.552,149.664 105.874 C 149.664 106.196,149.571 106.460,149.457 106.460 C 149.339 106.460,149.251 107.076,149.251 107.895 C 149.251 108.684,149.169 109.380,149.069 109.442 C 148.969 109.504,148.820 110.811,148.738 112.348 C 148.655 113.885,148.505 115.142,148.403 115.142 C 148.301 115.142,148.217 115.788,148.217 116.577 C 148.217 117.366,148.124 118.069,148.010 118.140 C 147.897 118.210,147.804 119.006,147.804 119.909 L 147.804 121.550 149.019 121.550 C 150.603 121.550,150.632 121.500,150.800 118.450 C 150.983 115.114,151.138 114.729,152.295 114.729 C 153.056 114.729,153.187 114.796,153.300 115.245 C 153.371 115.530,153.513 115.762,153.614 115.762 C 153.716 115.762,153.798 115.948,153.798 116.176 C 153.798 116.403,153.876 116.589,153.971 116.589 C 154.065 116.589,154.321 117.147,154.539 117.829 C 154.757 118.512,155.005 119.070,155.090 119.070 C 155.176 119.070,155.245 119.209,155.245 119.380 C 155.245 119.550,155.321 119.690,155.412 119.690 C 155.504 119.690,155.667 120.085,155.774 120.568 L 155.969 121.447 157.468 121.508 C 158.881 121.565,158.966 121.543,158.966 121.126 C 158.966 120.681,158.386 119.263,158.125 119.070 C 158.048 119.013,157.919 118.664,157.839 118.295 C 157.759 117.925,157.608 117.623,157.503 117.623 C 157.398 117.623,157.313 117.497,157.313 117.344 C 157.313 117.085,156.921 116.133,156.472 115.300 C 156.078 114.567,156.204 114.358,157.674 113.316 C 158.044 113.054,158.346 112.707,158.346 112.544 C 158.346 112.381,158.435 112.248,158.544 112.248 C 158.652 112.248,158.802 111.921,158.877 111.522 C 158.952 111.123,159.096 110.745,159.197 110.683 C 159.451 110.526,159.429 108.114,159.173 108.114 C 159.059 108.114,158.966 107.885,158.966 107.605 C 158.966 107.325,158.822 106.976,158.646 106.830 C 158.470 106.683,158.152 106.391,157.940 106.181 C 157.010 105.260,156.495 105.139,153.178 105.057 C 151.416 105.014,149.904 105.048,149.819 105.133 M203.514 105.140 C 201.543 105.621,200.142 107.370,199.956 109.580 C 199.891 110.365,199.757 111.008,199.660 111.008 C 199.563 111.008,199.483 111.594,199.483 112.310 C 199.483 113.026,199.387 113.709,199.269 113.827 C 198.947 114.149,198.913 119.121,199.231 119.227 C 199.370 119.273,199.485 119.419,199.487 119.552 C 199.492 119.929,200.639 121.137,200.992 121.137 C 201.166 121.137,201.348 121.253,201.395 121.395 C 201.459 121.585,202.216 121.654,204.238 121.654 C 206.259 121.654,207.017 121.585,207.080 121.395 C 207.127 121.253,207.281 121.137,207.422 121.137 C 207.562 121.137,207.877 120.928,208.121 120.672 C 208.365 120.416,208.757 120.024,208.992 119.801 C 209.227 119.579,209.469 119.160,209.529 118.871 C 209.588 118.582,209.725 118.185,209.832 117.987 C 209.938 117.790,210.026 117.307,210.026 116.914 C 210.026 116.521,210.110 116.148,210.214 116.084 C 210.317 116.020,210.469 114.757,210.551 113.277 C 210.633 111.797,210.781 110.536,210.879 110.474 C 211.130 110.319,211.106 108.941,210.853 108.941 C 210.739 108.941,210.646 108.636,210.646 108.263 C 210.646 105.986,206.852 104.325,203.514 105.140 M271.731 105.140 C 269.729 105.629,268.334 107.460,268.160 109.824 C 268.104 110.595,267.977 111.275,267.879 111.335 C 267.781 111.396,267.700 111.993,267.700 112.661 C 267.700 113.330,267.607 113.935,267.494 114.005 C 267.081 114.260,267.238 118.939,267.675 119.408 C 267.888 119.638,268.121 120.004,268.193 120.223 C 268.590 121.442,274.933 122.489,275.297 121.395 C 275.345 121.253,275.498 121.137,275.639 121.137 C 275.779 121.137,276.097 120.904,276.344 120.620 C 276.591 120.336,276.885 120.103,276.997 120.103 C 277.110 120.103,277.260 119.871,277.331 119.587 C 277.402 119.302,277.544 119.070,277.645 119.070 C 277.747 119.070,277.829 118.884,277.829 118.656 C 277.829 118.429,277.913 118.243,278.015 118.243 C 278.237 118.243,278.388 117.209,278.701 113.540 C 278.829 112.034,279.011 110.801,279.105 110.801 C 279.340 110.801,279.322 109.019,279.082 108.576 C 278.975 108.379,278.834 107.961,278.768 107.648 C 278.642 107.051,277.654 105.946,276.789 105.436 C 276.281 105.136,272.624 104.922,271.731 105.140 M292.356 105.174 C 292.103 105.256,291.727 105.468,291.520 105.646 C 291.313 105.824,290.984 106.031,290.787 106.107 C 290.591 106.182,290.367 106.409,290.290 106.610 C 290.213 106.812,289.993 107.146,289.801 107.353 C 289.432 107.751,289.199 108.609,289.199 109.574 C 289.199 109.895,289.106 110.214,288.992 110.284 C 288.879 110.355,288.786 110.993,288.786 111.702 C 288.786 112.412,288.691 113.086,288.576 113.201 C 288.252 113.526,288.206 119.117,288.527 119.224 C 288.669 119.272,288.786 119.440,288.786 119.597 C 288.786 121.203,294.779 122.668,296.070 121.377 C 296.202 121.245,296.524 121.137,296.786 121.137 C 297.047 121.137,297.261 121.044,297.261 120.930 C 297.261 120.817,297.353 120.724,297.465 120.724 C 298.144 120.724,298.501 119.994,298.501 118.610 C 298.501 117.814,298.591 117.209,298.708 117.209 C 298.824 117.209,298.915 116.637,298.915 115.907 C 298.915 115.191,299.013 114.507,299.133 114.387 C 299.253 114.267,299.322 113.620,299.288 112.950 L 299.225 111.731 296.486 111.674 C 293.879 111.619,293.747 111.636,293.747 112.023 C 293.747 112.247,293.654 112.488,293.540 112.558 C 293.426 112.628,293.333 113.099,293.333 113.604 L 293.333 114.522 294.780 114.522 L 296.227 114.522 296.227 115.556 C 296.227 116.124,296.134 116.589,296.021 116.589 C 295.907 116.589,295.814 117.043,295.814 117.597 C 295.814 118.251,295.702 118.698,295.497 118.868 C 295.064 119.228,292.056 119.267,291.938 118.915 C 291.891 118.773,291.720 118.656,291.559 118.656 C 291.398 118.656,291.266 118.476,291.266 118.255 C 291.266 118.034,291.173 117.796,291.059 117.726 C 290.804 117.569,290.786 116.655,291.034 116.501 C 291.134 116.440,291.283 115.132,291.366 113.595 C 291.448 112.058,291.599 110.801,291.701 110.801 C 291.803 110.801,291.889 110.406,291.892 109.922 C 291.897 109.229,292.037 108.891,292.557 108.320 L 293.215 107.597 295.161 107.628 C 296.232 107.645,297.166 107.751,297.236 107.864 C 297.307 107.977,297.783 108.103,298.295 108.143 L 299.225 108.217 299.286 106.925 C 299.341 105.784,299.303 105.633,298.966 105.633 C 298.756 105.633,298.480 105.530,298.354 105.403 C 298.088 105.137,293.065 104.946,292.356 105.174 M324.289 105.341 C 323.863 105.526,323.514 105.760,323.514 105.862 C 323.514 105.963,323.415 106.047,323.293 106.047 C 323.015 106.047,322.481 106.569,322.481 106.841 C 322.481 106.954,322.364 107.084,322.222 107.132 C 322.035 107.194,321.964 107.878,321.964 109.603 L 321.964 111.989 322.843 112.842 C 323.326 113.311,323.861 113.695,324.031 113.695 C 324.202 113.695,324.341 113.766,324.341 113.853 C 324.341 114.069,325.900 114.729,326.410 114.729 C 326.636 114.729,326.822 114.822,326.822 114.935 C 326.822 115.049,326.921 115.142,327.043 115.142 C 328.090 115.142,328.287 117.623,327.317 118.593 C 326.532 119.378,324.530 119.370,322.997 118.574 C 321.302 117.694,321.034 117.792,321.034 119.291 C 321.034 120.631,321.308 121.137,322.035 121.137 C 322.261 121.137,322.483 121.247,322.527 121.381 C 322.680 121.838,327.234 121.875,328.185 121.426 C 329.477 120.816,330.543 119.417,330.543 118.330 C 330.543 118.054,330.636 117.829,330.749 117.829 C 331.045 117.829,331.005 115.744,330.698 115.082 C 330.556 114.776,330.370 114.524,330.284 114.524 C 330.199 114.523,330.129 114.369,330.129 114.183 C 330.129 113.629,329.003 112.718,327.821 112.314 C 327.214 112.107,326.672 111.881,326.615 111.811 C 326.558 111.741,326.326 111.625,326.098 111.554 C 324.933 111.187,323.764 108.734,324.755 108.734 C 324.868 108.734,324.961 108.634,324.961 108.512 C 324.961 107.772,328.380 107.274,329.027 107.921 C 329.148 108.043,329.609 108.112,330.050 108.076 L 330.853 108.010 330.914 106.744 C 330.989 105.176,331.051 105.207,327.649 105.092 C 325.575 105.022,324.912 105.071,324.289 105.341 M376.176 105.148 C 375.863 105.202,375.607 105.334,375.607 105.440 C 375.607 105.546,375.514 105.633,375.401 105.633 C 375.016 105.633,373.778 106.974,373.636 107.545 C 373.559 107.858,373.412 108.114,373.311 108.114 C 373.210 108.114,373.127 108.387,373.127 108.722 C 373.127 109.056,373.045 109.380,372.945 109.442 C 372.845 109.504,372.696 110.811,372.614 112.348 C 372.531 113.885,372.381 115.142,372.279 115.142 C 372.177 115.142,372.093 116.026,372.093 117.106 C 372.093 118.277,372.176 119.070,372.300 119.070 C 372.413 119.070,372.506 119.263,372.506 119.499 C 372.506 119.736,372.887 120.317,373.352 120.791 L 374.197 121.654 376.401 121.654 C 379.416 121.654,380.484 121.319,380.649 120.323 C 380.912 118.730,380.821 118.243,380.258 118.243 C 379.974 118.243,379.742 118.336,379.742 118.450 C 379.742 118.563,379.515 118.656,379.237 118.656 C 378.959 118.656,378.675 118.749,378.605 118.863 C 378.317 119.329,375.828 119.103,375.288 118.562 C 374.758 118.033,374.514 115.762,374.987 115.762 C 375.103 115.762,375.194 115.181,375.194 114.431 C 375.194 113.698,375.287 113.042,375.401 112.972 C 375.514 112.901,375.607 112.152,375.607 111.306 C 375.607 110.460,375.688 109.767,375.788 109.767 C 375.887 109.767,376.024 109.418,376.092 108.992 C 376.267 107.898,377.347 107.427,379.237 107.621 C 379.969 107.696,380.568 107.838,380.568 107.936 C 380.568 108.034,380.900 108.114,381.306 108.114 C 381.949 108.114,382.027 108.061,381.912 107.700 C 381.837 107.463,381.875 107.287,382.002 107.287 C 382.448 107.287,382.251 105.750,381.765 105.447 C 381.300 105.156,377.339 104.944,376.176 105.148 M393.747 105.147 C 393.434 105.202,393.178 105.334,393.178 105.440 C 393.178 105.546,393.088 105.633,392.979 105.633 C 392.468 105.633,391.303 107.011,391.183 107.757 C 391.114 108.185,390.976 108.586,390.877 108.647 C 390.642 108.793,390.643 111.214,390.879 111.214 C 390.978 111.214,391.111 111.470,391.174 111.783 C 391.314 112.472,392.458 113.695,392.963 113.695 C 393.081 113.695,393.178 113.788,393.178 113.902 C 393.178 114.016,393.359 114.109,393.580 114.109 C 393.800 114.109,394.034 114.194,394.099 114.299 C 394.164 114.404,394.518 114.556,394.886 114.636 C 396.339 114.951,397.097 115.743,397.102 116.951 C 397.104 117.548,397.013 118.036,396.899 118.036 C 396.786 118.036,396.693 118.136,396.693 118.258 C 396.693 119.034,393.053 119.623,392.807 118.886 C 392.765 118.760,392.575 118.653,392.386 118.650 C 392.196 118.646,391.861 118.507,391.640 118.340 C 390.770 117.681,390.327 117.932,390.172 119.170 C 390.011 120.461,390.118 120.891,390.641 121.053 C 390.843 121.116,391.189 121.265,391.410 121.386 C 392.877 122.183,397.938 121.683,398.247 120.710 C 398.317 120.490,398.454 120.310,398.552 120.310 C 398.905 120.310,399.380 119.650,399.380 119.158 C 399.380 118.882,399.473 118.656,399.587 118.656 C 399.711 118.656,399.793 117.829,399.793 116.589 C 399.793 115.452,399.715 114.522,399.620 114.522 C 399.524 114.522,399.340 114.289,399.211 114.005 C 399.081 113.721,398.840 113.488,398.675 113.488 C 398.509 113.488,398.315 113.302,398.243 113.075 C 398.171 112.848,397.932 112.661,397.712 112.661 C 397.492 112.661,397.313 112.570,397.313 112.457 C 397.313 112.345,396.941 112.193,396.486 112.121 C 396.031 112.048,395.659 111.907,395.659 111.808 C 395.659 111.709,395.473 111.628,395.245 111.628 C 395.018 111.628,394.832 111.545,394.832 111.444 C 394.832 111.342,394.599 111.201,394.315 111.130 C 393.553 110.938,393.547 108.966,394.306 108.208 C 394.844 107.669,398.140 107.411,398.140 107.907 C 398.140 108.021,398.499 108.114,398.938 108.114 L 399.736 108.114 399.874 106.939 C 400.072 105.257,399.965 105.192,396.871 105.112 C 395.465 105.076,394.059 105.092,393.747 105.147 M133.012 105.373 C 132.891 105.459,132.668 105.855,132.515 106.253 C 131.983 107.640,131.639 108.430,131.144 109.404 C 130.870 109.943,130.646 110.571,130.646 110.800 C 130.646 111.028,130.553 111.214,130.439 111.214 C 130.326 111.214,130.233 111.401,130.233 111.628 C 130.233 111.855,130.141 112.041,130.028 112.041 C 129.916 112.041,129.765 112.413,129.692 112.868 C 129.619 113.323,129.478 113.695,129.379 113.695 C 129.280 113.695,129.199 113.881,129.199 114.109 C 129.199 114.336,129.107 114.522,128.995 114.522 C 128.882 114.522,128.731 114.894,128.658 115.349 C 128.585 115.804,128.445 116.176,128.346 116.176 C 128.247 116.176,128.165 116.362,128.165 116.589 C 128.165 116.817,128.091 117.003,128.000 117.003 C 127.909 117.003,127.714 117.351,127.565 117.778 C 127.417 118.204,127.065 119.035,126.782 119.625 C 126.022 121.213,126.137 121.435,127.754 121.507 L 129.096 121.567 129.457 120.730 C 129.656 120.270,129.819 119.755,129.819 119.585 C 129.819 119.415,129.912 119.276,130.026 119.276 C 130.140 119.276,130.233 119.109,130.233 118.904 C 130.233 118.161,130.652 118.036,133.142 118.036 L 135.556 118.036 135.685 118.682 C 135.756 119.037,135.814 119.717,135.814 120.191 C 135.814 121.356,136.074 121.550,137.630 121.550 L 138.950 121.550 138.803 119.948 C 138.721 119.067,138.574 118.315,138.475 118.277 C 138.376 118.239,138.295 117.751,138.295 117.192 C 138.295 116.633,138.210 116.176,138.106 116.176 C 138.003 116.176,137.852 115.384,137.772 114.416 C 137.691 113.447,137.543 112.605,137.443 112.543 C 137.343 112.481,137.261 112.017,137.261 111.512 C 137.261 111.007,137.168 110.594,137.054 110.594 C 136.941 110.594,136.842 110.199,136.835 109.716 C 136.828 109.233,136.739 108.419,136.637 107.907 C 136.534 107.395,136.376 106.605,136.284 106.150 L 136.118 105.323 134.674 105.270 C 133.880 105.241,133.132 105.287,133.012 105.373 M168.114 105.355 C 167.952 105.421,167.855 105.879,167.855 106.581 L 167.855 107.700 169.974 107.700 L 172.093 107.699 171.904 110.387 C 171.800 111.865,171.637 113.075,171.542 113.075 C 171.447 113.075,171.370 113.686,171.370 114.432 C 171.370 115.179,171.287 115.946,171.186 116.138 C 171.086 116.329,170.936 117.625,170.853 119.018 L 170.704 121.550 172.070 121.550 L 173.437 121.550 173.437 120.632 C 173.437 120.127,173.530 119.657,173.643 119.587 C 173.757 119.516,173.850 118.819,173.850 118.036 C 173.850 117.254,173.934 116.562,174.036 116.499 C 174.138 116.436,174.288 115.128,174.371 113.593 C 174.453 112.057,174.602 110.801,174.702 110.801 C 174.802 110.801,174.884 110.103,174.884 109.251 L 174.884 107.700 177.123 107.700 C 179.647 107.700,179.950 107.512,179.809 106.031 L 179.742 105.323 174.057 105.286 C 170.930 105.266,168.256 105.297,168.114 105.355 M221.420 105.588 C 221.309 105.794,221.152 107.101,221.071 108.492 C 220.989 109.882,220.843 111.069,220.746 111.129 C 220.648 111.190,220.568 111.879,220.568 112.661 C 220.568 113.444,220.484 114.136,220.380 114.200 C 220.277 114.264,220.125 115.527,220.044 117.008 C 219.962 118.488,219.814 119.749,219.715 119.810 C 219.616 119.871,219.535 120.288,219.535 120.736 L 219.535 121.550 220.879 121.550 L 222.222 121.550 222.222 120.930 C 222.222 120.589,222.315 120.310,222.429 120.310 C 222.548 120.310,222.636 119.655,222.636 118.760 C 222.636 117.864,222.723 117.209,222.842 117.209 C 222.959 117.209,223.049 116.626,223.049 115.872 L 223.049 114.535 225.478 114.477 L 227.907 114.419 227.969 113.230 L 228.031 112.041 225.797 112.041 L 223.563 112.041 223.638 110.336 C 223.679 109.398,223.796 108.599,223.898 108.562 C 224.000 108.524,224.083 108.314,224.083 108.096 C 224.083 107.725,224.263 107.700,227.030 107.700 L 229.977 107.700 230.248 107.087 C 230.398 106.749,230.490 106.214,230.454 105.898 L 230.388 105.323 226.004 105.267 C 221.945 105.216,221.606 105.239,221.420 105.588 M251.576 105.633 C 251.576 105.860,251.483 106.047,251.370 106.047 C 251.252 106.047,251.163 106.663,251.163 107.481 C 251.163 108.270,251.078 108.968,250.975 109.032 C 250.871 109.096,250.720 110.360,250.638 111.840 C 250.556 113.320,250.408 114.581,250.309 114.642 C 250.210 114.703,250.129 115.380,250.129 116.147 C 250.129 116.913,250.045 117.628,249.943 117.736 C 249.841 117.844,249.724 118.724,249.685 119.690 L 249.612 121.447 254.057 121.447 L 258.501 121.447 258.563 120.258 L 258.625 119.070 255.620 119.070 L 252.614 119.070 252.742 117.158 C 252.812 116.106,252.951 115.157,253.050 115.049 C 253.149 114.941,253.230 114.285,253.230 113.592 C 253.230 112.898,253.315 112.242,253.420 112.134 C 253.524 112.026,253.658 111.333,253.717 110.594 C 253.776 109.855,253.920 108.423,254.037 107.411 C 254.296 105.175,254.321 105.220,252.804 105.220 C 251.714 105.220,251.576 105.266,251.576 105.633 M310.284 105.840 C 310.284 106.181,310.191 106.460,310.078 106.460 C 309.961 106.460,309.871 107.042,309.871 107.791 C 309.871 108.524,309.788 109.174,309.687 109.236 C 309.587 109.299,309.437 110.653,309.354 112.246 C 309.272 113.839,309.122 115.142,309.021 115.142 C 308.920 115.142,308.837 115.786,308.837 116.572 C 308.837 117.358,308.753 118.033,308.649 118.071 C 308.546 118.109,308.430 118.884,308.393 119.793 L 308.325 121.447 309.529 121.510 C 311.225 121.598,311.258 121.545,311.430 118.439 C 311.511 116.967,311.659 115.762,311.758 115.762 C 311.857 115.762,311.938 115.117,311.938 114.327 C 311.938 113.538,312.020 112.842,312.120 112.780 C 312.219 112.719,312.369 111.411,312.451 109.874 C 312.533 108.337,312.684 107.080,312.786 107.080 C 312.888 107.080,312.972 106.661,312.972 106.150 L 312.972 105.220 311.628 105.220 L 310.284 105.220 310.284 105.840 M339.776 105.357 C 339.700 105.433,339.638 105.991,339.638 106.598 L 339.638 107.700 341.809 107.700 L 343.979 107.700 343.979 108.589 C 343.979 109.078,343.894 109.566,343.789 109.674 C 343.685 109.782,343.549 110.475,343.487 111.214 C 343.124 115.541,342.823 118.231,342.687 118.365 C 342.602 118.450,342.532 119.201,342.532 120.034 L 342.532 121.550 343.747 121.550 C 345.328 121.550,345.363 121.491,345.538 118.553 C 345.619 117.189,345.758 115.979,345.847 115.866 C 345.936 115.752,346.061 115.054,346.125 114.315 C 346.188 113.576,346.351 111.786,346.486 110.336 L 346.731 107.700 349.056 107.700 L 351.382 107.700 351.523 106.676 C 351.601 106.113,351.604 105.555,351.530 105.436 C 351.382 105.195,340.014 105.120,339.776 105.357 M360.775 105.357 C 360.607 105.425,360.517 105.917,360.517 106.775 C 360.517 107.498,360.424 108.147,360.310 108.217 C 360.196 108.287,360.103 108.904,360.103 109.587 C 360.103 110.269,360.018 110.989,359.913 111.185 C 359.808 111.381,359.655 112.770,359.573 114.272 C 359.492 115.774,359.345 117.003,359.247 117.003 C 359.150 117.003,359.070 117.589,359.070 118.305 C 359.070 119.021,358.970 119.707,358.848 119.829 C 358.726 119.951,358.656 120.365,358.693 120.749 L 358.760 121.447 360.131 121.508 L 361.503 121.568 361.640 120.784 C 361.795 119.896,362.343 115.053,362.500 113.178 C 362.557 112.496,362.664 111.798,362.736 111.628 C 362.909 111.222,363.393 105.576,363.272 105.375 C 363.171 105.204,361.188 105.190,360.775 105.357 M155.613 107.872 C 155.657 108.005,155.825 108.114,155.986 108.114 C 156.147 108.114,156.279 108.253,156.279 108.424 C 156.279 108.594,156.372 108.734,156.486 108.734 C 156.599 108.734,156.693 109.059,156.693 109.457 C 156.693 109.855,156.599 110.181,156.486 110.181 C 156.372 110.181,156.279 110.349,156.279 110.555 C 156.279 111.568,154.986 112.248,153.061 112.248 L 151.731 112.248 151.733 111.576 C 151.733 111.207,151.794 110.126,151.868 109.175 L 152.003 107.445 153.768 107.538 C 154.856 107.595,155.563 107.723,155.613 107.872 M207.475 108.231 C 207.741 108.497,207.959 108.840,207.959 108.993 C 207.959 109.146,208.075 109.395,208.217 109.545 C 208.424 109.764,208.424 109.838,208.217 109.914 C 208.048 109.976,207.959 110.454,207.959 111.294 C 207.959 112.001,207.873 112.667,207.769 112.775 C 207.664 112.883,207.533 113.576,207.477 114.315 C 207.255 117.249,206.819 118.656,206.130 118.656 C 206.018 118.656,205.889 118.769,205.843 118.906 C 205.788 119.069,205.254 119.155,204.291 119.155 C 202.174 119.155,201.930 118.831,202.051 116.176 C 202.193 113.085,202.609 109.257,202.812 109.182 C 202.914 109.144,202.997 109.021,202.997 108.909 C 202.997 108.636,203.531 108.114,203.810 108.114 C 203.931 108.114,204.031 108.027,204.031 107.920 C 204.031 107.314,206.809 107.566,207.475 108.231 M275.746 108.244 C 276.301 108.759,276.481 112.854,275.956 113.040 C 275.850 113.078,275.762 113.747,275.762 114.527 C 275.762 115.307,275.682 115.994,275.583 116.055 C 275.484 116.116,275.357 116.582,275.300 117.089 C 275.200 117.971,274.784 118.656,274.347 118.656 C 274.235 118.656,274.106 118.769,274.060 118.906 C 273.885 119.429,271.085 119.221,270.579 118.647 C 270.097 118.102,270.116 112.230,270.601 111.745 C 270.711 111.635,270.801 111.097,270.801 110.550 C 270.801 109.510,271.479 108.121,271.990 108.116 C 272.132 108.115,272.248 108.027,272.248 107.920 C 272.248 107.311,275.017 107.568,275.746 108.244 M134.398 110.937 C 134.513 111.601,134.654 112.633,134.712 113.230 C 134.771 113.827,134.903 114.315,135.006 114.315 C 135.109 114.315,135.194 114.525,135.194 114.780 C 135.195 115.230,135.138 115.243,133.541 115.178 C 131.946 115.113,131.886 115.092,131.886 114.610 C 131.886 114.334,131.979 114.109,132.093 114.109 C 132.207 114.109,132.300 113.922,132.300 113.695 C 132.300 113.468,132.393 113.282,132.506 113.282 C 132.620 113.282,132.713 113.049,132.713 112.765 C 132.713 112.481,132.805 112.248,132.917 112.248 C 133.030 112.248,133.181 111.876,133.254 111.421 C 133.327 110.966,133.467 110.594,133.566 110.594 C 133.666 110.594,133.747 110.424,133.747 110.215 C 133.747 109.827,133.956 109.495,134.107 109.645 C 134.153 109.691,134.284 110.273,134.398 110.937 M0.982 133.683 C 0.783 133.735,0.620 133.956,0.620 134.175 C 0.620 134.394,0.527 134.574,0.413 134.574 C 0.276 134.574,0.207 146.598,0.207 170.233 C 0.207 193.867,0.276 205.891,0.413 205.891 C 0.527 205.891,0.620 206.029,0.620 206.198 C 0.620 206.366,0.829 206.555,1.085 206.617 C 1.838 206.802,36.125 206.631,36.314 206.443 C 36.630 206.126,36.525 195.046,36.202 194.657 C 35.945 194.347,34.882 194.315,24.680 194.315 L 13.441 194.315 13.387 164.127 C 13.340 137.557,13.296 133.915,13.023 133.742 C 12.717 133.549,1.703 133.494,0.982 133.683 M69.871 133.684 C 69.473 133.735,69.059 133.863,68.951 133.968 C 68.843 134.074,68.546 134.160,68.291 134.160 C 68.036 134.160,67.775 134.246,67.710 134.351 C 67.645 134.456,67.314 134.603,66.974 134.678 C 66.635 134.752,66.357 134.899,66.357 135.004 C 66.357 135.108,66.171 135.194,65.943 135.194 C 65.716 135.194,65.530 135.287,65.530 135.401 C 65.530 135.514,65.412 135.607,65.269 135.607 C 65.039 135.607,64.513 136.046,63.731 136.890 C 63.594 137.037,63.362 137.269,63.214 137.406 C 62.734 137.851,62.429 138.273,62.429 138.493 C 62.429 138.611,62.343 138.708,62.239 138.708 C 62.134 138.708,61.983 139.010,61.903 139.380 C 61.822 139.749,61.699 140.098,61.628 140.155 C 61.364 140.367,60.982 141.196,60.982 141.558 C 60.982 141.764,60.866 142.049,60.724 142.191 C 60.376 142.538,60.232 195.292,60.573 197.143 C 60.964 199.257,61.025 199.483,61.212 199.483 C 61.313 199.483,61.395 199.669,61.395 199.897 C 61.395 200.124,61.481 200.310,61.586 200.310 C 61.690 200.310,61.837 200.589,61.912 200.930 C 61.987 201.271,62.134 201.550,62.239 201.550 C 62.343 201.550,62.429 201.674,62.429 201.826 C 62.429 202.348,65.027 204.850,65.711 204.987 C 66.066 205.058,66.357 205.198,66.357 205.297 C 66.357 205.397,66.496 205.478,66.667 205.478 C 66.837 205.478,66.977 205.563,66.977 205.667 C 66.977 205.770,67.372 205.921,67.855 206.002 C 68.339 206.083,68.800 206.254,68.881 206.382 C 69.105 206.735,88.359 206.710,88.713 206.357 C 88.855 206.214,89.195 206.098,89.467 206.098 C 89.952 206.098,91.370 205.533,91.576 205.258 C 91.633 205.182,91.889 205.055,92.145 204.975 C 92.401 204.895,92.610 204.743,92.610 204.637 C 92.610 204.531,92.726 204.443,92.868 204.441 C 93.327 204.435,95.711 201.714,95.711 201.195 C 95.711 201.050,95.804 200.930,95.917 200.930 C 96.031 200.930,96.124 200.698,96.124 200.413 C 96.124 200.129,96.214 199.897,96.324 199.897 C 96.433 199.897,96.585 199.432,96.660 198.863 C 96.736 198.295,96.878 197.829,96.978 197.829 C 97.077 197.829,97.158 197.323,97.158 196.705 C 97.158 196.086,97.251 195.522,97.364 195.452 C 97.500 195.368,97.571 186.703,97.571 170.129 C 97.571 153.555,97.500 144.890,97.364 144.806 C 97.251 144.736,97.158 144.219,97.158 143.657 C 97.158 143.095,97.077 142.636,96.978 142.636 C 96.879 142.636,96.748 142.197,96.688 141.661 C 96.628 141.124,96.476 140.651,96.351 140.610 C 96.226 140.568,96.124 140.309,96.124 140.034 C 96.124 139.760,96.031 139.535,95.917 139.535 C 95.804 139.535,95.711 139.402,95.711 139.241 C 95.711 139.079,95.478 138.670,95.194 138.332 C 94.910 137.994,94.677 137.644,94.677 137.554 C 94.677 137.311,92.998 135.834,92.567 135.697 C 92.363 135.632,92.196 135.493,92.196 135.387 C 92.196 135.281,92.057 135.194,91.886 135.194 C 91.716 135.194,91.576 135.105,91.576 134.996 C 91.576 134.888,91.251 134.738,90.853 134.663 C 90.455 134.589,90.129 134.445,90.129 134.344 C 90.129 134.243,89.811 134.160,89.423 134.160 C 89.034 134.160,88.678 134.044,88.631 133.902 C 88.546 133.647,71.706 133.452,69.871 133.684 M133.437 133.686 C 132.982 133.735,132.521 133.861,132.413 133.967 C 132.305 134.073,132.003 134.160,131.742 134.160 C 131.480 134.160,131.266 134.243,131.266 134.344 C 131.266 134.445,130.941 134.589,130.543 134.663 C 130.145 134.738,129.819 134.888,129.819 134.996 C 129.819 135.105,129.680 135.194,129.509 135.194 C 129.339 135.194,129.199 135.287,129.199 135.401 C 129.199 135.514,129.062 135.607,128.895 135.607 C 128.502 135.607,126.098 138.015,126.098 138.408 C 126.098 138.573,126.027 138.708,125.940 138.708 C 125.774 138.708,125.065 140.217,125.065 140.570 C 125.065 140.683,124.972 140.775,124.858 140.775 C 124.744 140.775,124.651 140.989,124.651 141.251 C 124.651 141.512,124.568 141.814,124.466 141.922 C 124.022 142.392,123.970 145.363,123.970 170.233 C 123.970 195.085,124.023 198.086,124.466 198.360 C 124.568 198.423,124.651 198.701,124.651 198.979 C 124.651 199.256,124.734 199.483,124.835 199.483 C 124.936 199.483,125.080 199.809,125.154 200.207 C 125.229 200.605,125.379 200.930,125.487 200.930 C 125.596 200.930,125.685 201.070,125.685 201.240 C 125.685 201.411,125.778 201.550,125.891 201.550 C 126.005 201.550,126.098 201.701,126.098 201.886 C 126.098 202.356,128.627 204.810,129.280 204.974 C 129.577 205.049,129.819 205.192,129.819 205.294 C 129.819 205.395,130.005 205.478,130.233 205.478 C 130.460 205.478,130.646 205.567,130.646 205.675 C 130.646 205.784,130.995 205.937,131.421 206.015 C 131.848 206.094,132.263 206.261,132.344 206.386 C 132.553 206.711,153.959 206.710,154.168 206.385 C 154.249 206.259,154.757 206.090,155.297 206.011 C 155.837 205.931,156.279 205.779,156.279 205.672 C 156.279 205.565,156.419 205.478,156.589 205.478 C 156.760 205.478,156.899 205.385,156.899 205.271 C 156.899 205.158,157.088 205.065,157.319 205.065 C 157.550 205.065,157.793 204.925,157.858 204.755 C 157.924 204.584,158.064 204.444,158.170 204.444 C 158.514 204.444,160.413 202.650,160.413 202.326 C 160.413 202.231,160.606 201.948,160.841 201.697 C 161.076 201.446,161.320 200.984,161.384 200.672 C 161.447 200.359,161.580 200.103,161.680 200.103 C 161.779 200.103,161.860 199.879,161.860 199.604 C 161.860 199.329,161.957 199.072,162.075 199.033 C 162.193 198.993,162.346 198.285,162.416 197.458 C 162.485 196.632,162.621 195.907,162.718 195.847 C 163.050 195.642,162.937 167.455,162.602 167.121 C 162.442 166.960,162.272 166.711,162.223 166.567 C 162.155 166.361,160.271 166.305,153.401 166.305 L 144.666 166.305 144.271 166.793 C 143.904 167.246,143.876 167.673,143.876 172.764 C 143.876 179.555,143.555 179.011,147.577 179.034 C 149.123 179.043,150.271 179.098,150.129 179.155 C 149.930 179.235,149.871 180.726,149.871 185.624 C 149.871 192.792,149.828 193.233,149.121 193.410 C 148.851 193.478,148.630 193.616,148.630 193.718 C 148.630 193.819,148.403 193.902,148.126 193.902 C 147.848 193.902,147.564 193.995,147.494 194.109 C 147.416 194.234,145.872 194.315,143.554 194.315 C 141.150 194.315,139.742 194.239,139.742 194.109 C 139.742 193.995,139.470 193.902,139.137 193.902 C 138.319 193.902,137.261 192.844,137.261 192.025 C 137.261 191.693,137.168 191.421,137.054 191.421 C 136.918 191.421,136.848 184.186,136.848 170.129 C 136.848 156.072,136.918 148.837,137.054 148.837 C 137.168 148.837,137.261 148.642,137.261 148.404 C 137.261 147.725,137.859 146.882,138.573 146.553 C 139.456 146.147,148.445 146.109,148.579 146.512 C 148.626 146.654,148.757 146.770,148.869 146.770 C 149.664 146.770,149.766 147.346,149.830 152.181 C 149.867 154.971,149.972 156.899,150.088 156.899 C 150.196 156.899,150.284 157.067,150.284 157.273 C 150.284 158.139,151.514 158.346,156.659 158.346 C 159.713 158.346,161.447 158.271,161.447 158.140 C 161.447 158.026,161.612 157.933,161.815 157.933 C 162.834 157.933,162.894 157.540,162.894 150.902 C 162.894 147.492,162.814 144.703,162.717 144.703 C 162.619 144.703,162.487 143.938,162.423 143.003 C 162.359 142.068,162.206 141.269,162.084 141.229 C 161.961 141.188,161.860 140.929,161.860 140.655 C 161.860 140.380,161.775 140.155,161.670 140.155 C 161.566 140.155,161.423 139.899,161.354 139.587 C 161.200 138.891,160.632 138.132,159.276 136.815 C 157.817 135.395,157.560 135.194,157.209 135.194 C 157.039 135.194,156.899 135.105,156.899 134.996 C 156.899 134.888,156.574 134.738,156.176 134.663 C 155.778 134.589,155.452 134.445,155.452 134.344 C 155.452 134.243,155.192 134.160,154.873 134.160 C 154.555 134.160,154.178 134.044,154.036 133.902 C 153.784 133.649,135.578 133.459,133.437 133.686 M189.696 133.918 C 189.184 134.484,189.167 205.881,189.679 206.394 C 190.252 206.967,201.311 206.871,201.984 206.288 L 202.481 205.857 202.481 170.094 L 202.481 134.330 201.993 133.935 C 201.258 133.340,190.233 133.325,189.696 133.918 M243.966 133.719 C 243.549 133.983,243.101 134.967,243.101 135.619 C 243.101 135.940,243.008 136.260,242.894 136.331 C 242.780 136.401,242.687 136.825,242.687 137.273 C 242.687 137.721,242.602 138.088,242.498 138.088 C 242.394 138.088,242.244 138.786,242.164 139.638 C 242.084 140.491,241.937 141.189,241.836 141.189 C 241.736 141.189,241.654 141.542,241.654 141.974 C 241.654 142.406,241.563 142.850,241.453 142.961 C 241.342 143.071,241.189 143.834,241.113 144.656 C 241.037 145.477,240.895 146.150,240.797 146.150 C 240.700 146.150,240.620 146.522,240.620 146.977 C 240.620 147.432,240.535 147.804,240.431 147.804 C 240.327 147.804,240.176 148.503,240.096 149.357 C 240.016 150.211,239.869 150.961,239.769 151.023 C 239.669 151.085,239.587 151.450,239.587 151.835 C 239.587 152.219,239.503 152.585,239.402 152.648 C 239.300 152.711,239.165 153.112,239.102 153.539 C 238.816 155.459,238.437 157.293,238.295 157.434 C 238.209 157.519,238.140 157.939,238.140 158.369 C 238.140 158.798,238.056 159.200,237.954 159.263 C 237.852 159.327,237.703 160.030,237.623 160.827 C 237.543 161.624,237.394 162.327,237.292 162.390 C 237.189 162.453,237.106 162.820,237.106 163.204 C 237.106 163.589,237.021 163.956,236.917 164.020 C 236.813 164.085,236.662 164.834,236.582 165.686 C 236.503 166.538,236.355 167.235,236.255 167.235 C 236.154 167.235,236.072 167.607,236.072 168.062 C 236.072 168.517,235.989 168.889,235.887 168.889 C 235.786 168.889,235.651 169.238,235.587 169.664 C 235.248 171.950,234.918 173.630,234.780 173.766 C 234.695 173.850,234.625 174.224,234.625 174.596 C 234.625 174.968,234.543 175.323,234.443 175.385 C 234.343 175.447,234.196 176.197,234.115 177.051 C 234.035 177.906,233.885 178.605,233.781 178.605 C 233.677 178.605,233.592 178.971,233.592 179.419 C 233.592 179.867,233.508 180.286,233.406 180.349 C 233.304 180.412,233.155 181.115,233.075 181.912 C 232.995 182.709,232.846 183.412,232.744 183.476 C 232.642 183.539,232.558 183.957,232.558 184.405 C 232.558 184.853,232.465 185.220,232.351 185.220 C 232.238 185.220,232.145 185.586,232.145 186.034 C 232.145 186.482,232.057 186.903,231.950 186.969 C 231.843 187.035,231.691 187.741,231.613 188.536 C 231.534 189.332,231.389 190.033,231.291 190.094 C 231.192 190.155,231.111 190.572,231.111 191.020 C 231.111 191.468,231.026 191.835,230.922 191.835 C 230.818 191.835,230.668 192.532,230.588 193.385 C 230.508 194.238,230.360 194.935,230.260 194.935 C 230.160 194.935,230.078 195.354,230.078 195.866 C 230.078 196.377,229.992 196.796,229.888 196.796 C 229.784 196.796,229.634 197.494,229.554 198.346 C 229.474 199.199,229.327 199.897,229.226 199.897 C 229.126 199.897,229.044 200.217,229.044 200.608 C 229.044 200.999,228.951 201.377,228.837 201.447 C 228.724 201.517,228.630 201.854,228.630 202.196 C 228.630 202.538,228.548 202.975,228.447 203.166 C 228.347 203.358,228.200 204.081,228.121 204.775 C 227.890 206.801,227.612 206.718,234.628 206.718 C 241.331 206.718,241.240 206.740,241.240 205.122 C 241.240 204.749,241.333 204.444,241.447 204.444 C 241.561 204.444,241.654 203.985,241.654 203.423 C 241.654 202.861,241.737 202.350,241.839 202.287 C 241.941 202.224,242.090 201.428,242.171 200.517 C 242.251 199.606,242.400 198.809,242.502 198.746 C 242.604 198.683,242.687 198.224,242.687 197.726 C 242.687 197.228,242.772 196.768,242.876 196.704 C 242.979 196.640,243.130 195.797,243.210 194.831 C 243.291 193.865,243.438 193.075,243.539 193.075 C 243.639 193.075,243.721 192.935,243.721 192.765 C 243.721 192.495,244.720 192.455,251.473 192.455 L 259.225 192.455 259.225 193.063 C 259.225 193.397,259.318 193.728,259.432 193.798 C 259.545 193.869,259.638 194.293,259.638 194.741 C 259.638 195.189,259.718 195.556,259.815 195.556 C 259.913 195.556,260.056 196.323,260.134 197.261 C 260.211 198.199,260.364 198.997,260.473 199.035 C 260.583 199.073,260.672 199.556,260.672 200.108 C 260.672 200.661,260.755 201.164,260.857 201.227 C 260.959 201.290,261.108 202.087,261.189 202.997 C 261.269 203.908,261.419 204.705,261.520 204.768 C 261.622 204.831,261.705 205.108,261.705 205.385 C 261.705 206.695,261.823 206.719,268.315 206.715 C 271.585 206.713,274.347 206.626,274.516 206.520 C 274.871 206.295,274.880 203.565,274.526 203.447 C 274.410 203.408,274.315 203.012,274.315 202.567 C 274.315 202.121,274.230 201.757,274.126 201.757 C 274.022 201.757,273.872 201.058,273.792 200.204 C 273.711 199.349,273.564 198.600,273.464 198.538 C 273.364 198.476,273.282 198.111,273.282 197.726 C 273.282 197.342,273.197 196.974,273.092 196.910 C 272.988 196.846,272.838 196.095,272.758 195.241 C 272.678 194.388,272.530 193.638,272.430 193.577 C 272.330 193.515,272.248 193.206,272.248 192.890 C 272.248 192.575,272.178 192.247,272.093 192.162 C 271.957 192.027,271.672 190.574,271.289 188.062 C 271.224 187.636,271.088 187.287,270.986 187.287 C 270.884 187.287,270.801 186.920,270.801 186.472 C 270.801 186.024,270.716 185.605,270.612 185.541 C 270.508 185.476,270.357 184.727,270.277 183.875 C 270.198 183.023,270.050 182.326,269.950 182.326 C 269.850 182.326,269.767 181.953,269.767 181.499 C 269.767 181.044,269.682 180.672,269.578 180.672 C 269.474 180.672,269.324 179.973,269.244 179.118 C 269.164 178.264,269.016 177.514,268.916 177.453 C 268.816 177.391,268.734 176.973,268.734 176.525 C 268.734 176.077,268.656 175.711,268.561 175.711 C 268.409 175.711,268.285 175.086,267.775 171.730 C 267.710 171.303,267.573 170.902,267.472 170.839 C 267.370 170.776,267.287 170.405,267.287 170.014 C 267.287 169.622,267.203 169.302,267.102 169.302 C 267.000 169.302,266.850 168.558,266.770 167.647 C 266.689 166.737,266.540 165.941,266.438 165.878 C 266.337 165.815,266.253 165.444,266.253 165.052 C 266.253 164.661,266.171 164.341,266.071 164.341 C 265.970 164.341,265.823 163.644,265.743 162.792 C 265.663 161.940,265.513 161.190,265.409 161.126 C 265.305 161.062,265.220 160.695,265.220 160.310 C 265.220 159.926,265.139 159.561,265.040 159.500 C 264.941 159.439,264.796 158.738,264.718 157.942 C 264.640 157.146,264.488 156.441,264.381 156.375 C 264.274 156.309,264.186 155.888,264.186 155.440 C 264.186 154.992,264.093 154.625,263.979 154.625 C 263.866 154.625,263.773 154.259,263.773 153.811 C 263.773 153.363,263.689 152.944,263.587 152.881 C 263.485 152.818,263.336 152.115,263.256 151.318 C 263.176 150.521,263.027 149.818,262.925 149.754 C 262.823 149.691,262.739 149.335,262.739 148.963 C 262.739 148.591,262.669 148.217,262.584 148.133 C 262.499 148.049,262.317 147.312,262.179 146.496 C 261.725 143.797,261.679 143.569,261.498 143.152 C 261.400 142.925,261.216 142.088,261.089 141.292 C 260.686 138.753,260.630 138.500,260.442 138.384 C 260.341 138.321,260.258 137.904,260.258 137.456 C 260.258 137.007,260.178 136.641,260.081 136.641 C 259.983 136.641,259.849 136.122,259.784 135.488 C 259.574 133.458,259.923 133.540,251.493 133.543 C 247.503 133.545,244.115 133.624,243.966 133.719 M300.817 133.917 L 300.362 134.312 300.362 170.099 C 300.362 203.664,300.384 205.913,300.718 206.303 C 301.249 206.923,312.228 206.950,312.940 206.332 L 313.385 205.946 313.385 194.343 L 313.385 182.739 316.055 182.739 C 319.254 182.739,319.380 182.775,319.380 183.691 C 319.380 184.077,319.462 184.393,319.562 184.393 C 319.663 184.393,319.810 184.997,319.889 185.736 C 319.968 186.475,320.119 187.080,320.223 187.080 C 320.328 187.080,320.413 187.359,320.413 187.700 C 320.413 188.041,320.496 188.320,320.596 188.320 C 320.697 188.320,320.843 188.925,320.923 189.664 C 321.002 190.403,321.152 191.008,321.257 191.008 C 321.361 191.008,321.447 191.333,321.447 191.731 C 321.447 192.129,321.529 192.455,321.630 192.455 C 321.731 192.455,321.877 192.965,321.954 193.588 C 322.032 194.212,322.183 194.776,322.288 194.841 C 322.394 194.906,322.481 195.280,322.481 195.671 C 322.481 196.062,322.574 196.382,322.687 196.382 C 322.801 196.382,322.894 196.708,322.894 197.106 C 322.894 197.504,322.978 197.829,323.080 197.829 C 323.183 197.829,323.332 198.388,323.411 199.070 C 323.490 199.753,323.639 200.363,323.741 200.426 C 323.844 200.489,323.928 200.768,323.928 201.046 C 323.928 201.323,324.010 201.550,324.110 201.550 C 324.211 201.550,324.358 202.154,324.437 202.892 C 324.516 203.630,324.666 204.286,324.771 204.351 C 324.876 204.416,324.961 204.720,324.961 205.027 C 324.961 205.339,325.193 205.836,325.486 206.152 L 326.012 206.718 331.783 206.718 C 337.455 206.718,337.562 206.710,337.976 206.266 C 338.412 205.798,338.556 204.858,338.191 204.858 C 338.078 204.858,337.984 204.532,337.984 204.134 C 337.984 203.736,337.891 203.411,337.778 203.411 C 337.664 203.411,337.571 203.085,337.571 202.687 C 337.571 202.289,337.487 201.964,337.385 201.964 C 337.282 201.964,337.133 201.406,337.054 200.723 C 336.975 200.041,336.826 199.431,336.724 199.367 C 336.621 199.304,336.537 198.984,336.537 198.656 C 336.537 198.329,336.449 198.006,336.340 197.939 C 336.232 197.872,336.080 197.262,336.004 196.583 C 335.927 195.904,335.783 195.349,335.684 195.349 C 335.585 195.349,335.504 195.023,335.504 194.625 C 335.504 194.227,335.422 193.902,335.321 193.902 C 335.220 193.902,335.074 193.392,334.996 192.768 C 334.919 192.145,334.768 191.581,334.663 191.516 C 334.557 191.450,334.470 191.129,334.470 190.801 C 334.470 190.473,334.377 190.148,334.264 190.078 C 334.150 190.007,334.057 189.676,334.057 189.342 C 334.057 189.007,333.983 188.734,333.893 188.734 C 333.802 188.734,333.615 188.106,333.477 187.339 C 333.091 185.199,332.989 184.806,332.820 184.806 C 332.734 184.806,332.599 184.237,332.520 183.542 C 332.442 182.847,332.267 182.098,332.132 181.877 C 331.930 181.548,331.949 181.440,332.238 181.276 C 332.431 181.166,332.727 180.939,332.895 180.771 C 333.063 180.603,333.301 180.465,333.423 180.465 C 333.744 180.465,336.537 177.564,336.537 177.231 C 336.537 177.077,336.626 176.951,336.735 176.951 C 336.843 176.951,336.993 176.625,337.068 176.227 C 337.143 175.829,337.286 175.504,337.387 175.504 C 337.488 175.504,337.571 175.271,337.571 174.987 C 337.571 174.703,337.654 174.470,337.755 174.470 C 337.950 174.470,338.087 173.823,338.392 171.473 C 338.632 169.621,338.634 146.551,338.395 144.496 C 338.151 142.405,337.973 141.602,337.754 141.602 C 337.654 141.602,337.571 141.370,337.571 141.085 C 337.571 140.801,337.488 140.568,337.387 140.568 C 337.286 140.568,337.143 140.243,337.068 139.845 C 336.993 139.447,336.843 139.121,336.735 139.121 C 336.626 139.121,336.537 138.982,336.537 138.811 C 336.537 138.641,336.375 138.328,336.176 138.117 C 335.977 137.905,335.535 137.395,335.194 136.984 C 334.853 136.573,334.500 136.234,334.410 136.232 C 334.319 136.229,333.995 135.995,333.688 135.711 C 333.382 135.426,333.014 135.194,332.870 135.194 C 332.727 135.194,332.610 135.102,332.610 134.990 C 332.610 134.877,332.238 134.726,331.783 134.653 C 331.328 134.580,330.956 134.440,330.956 134.341 C 330.956 134.241,330.731 134.160,330.457 134.160 C 330.182 134.160,329.918 134.044,329.871 133.902 C 329.705 133.404,301.392 133.418,300.817 133.917 M363.649 133.926 C 363.214 134.303,363.204 134.439,363.204 139.809 C 363.204 146.905,362.436 146.150,369.651 146.150 L 375.194 146.150 375.194 176.048 L 375.194 205.946 375.639 206.332 C 376.351 206.950,387.329 206.923,387.861 206.303 C 388.194 205.913,388.217 203.982,388.217 176.018 L 388.217 146.150 393.860 146.150 C 397.974 146.150,399.571 146.083,399.752 145.902 C 400.170 145.484,400.099 134.288,399.675 133.865 C 399.127 133.317,364.283 133.376,363.649 133.926 M83.877 146.515 C 83.925 146.659,84.096 146.909,84.256 147.069 C 84.417 147.229,84.548 147.460,84.548 147.582 C 84.548 147.704,84.641 147.804,84.755 147.804 C 84.891 147.804,84.961 155.383,84.961 170.129 C 84.961 184.875,84.891 192.455,84.755 192.455 C 84.641 192.455,84.548 192.594,84.548 192.765 C 84.548 193.106,84.036 193.655,83.345 194.057 C 83.030 194.239,81.720 194.315,78.876 194.315 L 74.852 194.315 74.118 193.560 L 73.385 192.805 73.385 170.183 L 73.385 147.561 74.057 146.855 L 74.729 146.148 79.259 146.200 C 82.697 146.240,83.811 146.316,83.877 146.515 M324.298 146.932 C 324.663 147.306,324.961 147.747,324.961 147.914 C 324.961 148.081,325.054 148.217,325.168 148.217 C 325.303 148.217,325.375 151.628,325.375 158.036 C 325.375 164.444,325.303 167.855,325.168 167.855 C 325.054 167.855,324.961 167.995,324.961 168.165 C 324.961 168.566,324.225 169.302,323.824 169.302 C 323.654 169.302,323.514 169.395,323.514 169.509 C 323.514 169.641,321.688 169.716,318.450 169.716 L 313.385 169.716 313.385 157.912 L 313.385 146.108 318.510 146.181 L 323.634 146.253 324.298 146.932 M251.758 154.355 C 251.772 154.831,251.876 155.279,251.990 155.349 C 252.103 155.419,252.196 155.890,252.196 156.395 C 252.196 156.900,252.289 157.313,252.403 157.313 C 252.517 157.313,252.610 157.778,252.610 158.346 C 252.610 158.915,252.686 159.380,252.780 159.380 C 252.874 159.380,253.062 160.240,253.198 161.292 C 253.647 164.753,253.684 164.961,253.849 164.961 C 253.939 164.961,254.079 165.799,254.160 166.823 C 254.241 167.847,254.391 168.736,254.492 168.799 C 254.594 168.862,254.677 169.321,254.677 169.819 C 254.677 170.317,254.759 170.776,254.859 170.837 C 254.959 170.899,255.107 171.742,255.188 172.710 C 255.268 173.678,255.419 174.470,255.522 174.470 C 255.626 174.470,255.711 174.935,255.711 175.504 C 255.711 176.072,255.804 176.537,255.917 176.537 C 256.031 176.537,256.124 176.948,256.124 177.450 C 256.124 177.953,256.205 178.394,256.304 178.432 C 256.402 178.470,256.526 179.036,256.579 179.690 L 256.675 180.879 251.438 180.879 L 246.202 180.879 246.202 180.155 C 246.202 179.757,246.286 179.432,246.389 179.432 C 246.492 179.432,246.643 178.548,246.724 177.468 C 246.805 176.388,246.953 175.504,247.053 175.504 C 247.153 175.504,247.235 175.137,247.235 174.689 C 247.235 174.241,247.328 173.817,247.442 173.747 C 247.556 173.677,247.649 173.211,247.649 172.713 C 247.649 172.215,247.732 171.756,247.834 171.693 C 247.935 171.630,248.085 170.833,248.165 169.922 C 248.246 169.012,248.395 168.215,248.497 168.152 C 248.599 168.089,248.682 167.583,248.682 167.028 C 248.682 166.473,248.767 165.967,248.870 165.903 C 248.974 165.839,249.124 164.996,249.205 164.030 C 249.285 163.064,249.433 162.274,249.533 162.274 C 249.634 162.274,249.716 161.861,249.716 161.356 C 249.716 160.851,249.809 160.380,249.922 160.310 C 250.036 160.240,250.129 159.775,250.129 159.276 C 250.129 158.778,250.215 158.317,250.321 158.252 C 250.426 158.187,250.577 157.298,250.657 156.276 C 250.737 155.255,250.884 154.419,250.983 154.419 C 251.082 154.419,251.163 154.101,251.163 153.712 C 251.163 151.762,251.702 152.343,251.758 154.355 " stroke="none" fill="#000000" fill-rule="evenodd"></path> <path id="path1" d="M9.716 0.176 C 9.716 0.568,120.987 111.647,121.316 111.584 C 121.514 111.546,121.648 111.328,121.639 111.057 C 121.631 110.802,121.608 85.711,121.587 55.297 L 121.550 0.000 65.633 0.000 C 34.879 0.000,9.716 0.079,9.716 0.176 M97.984 40.738 L 97.984 58.118 80.724 40.857 C 71.230 31.364,63.463 23.543,63.463 23.478 C 63.463 23.413,71.230 23.359,80.724 23.359 L 97.984 23.359 97.984 40.738 " stroke="none" fill="#3cc0f0" fill-rule="evenodd"></path> <path id="path2" d="M121.652 55.090 C 121.652 85.447,121.676 97.835,121.705 82.619 C 121.735 67.403,121.735 42.566,121.705 27.425 C 121.676 12.284,121.652 24.734,121.652 55.090 " stroke="none" fill="#00ffff" fill-rule="evenodd"></path> </g> </svg> 