<?xml version="1.0" encoding="utf-8"?>
<!-- Generator: Adobe Illustrator 25.2.1, SVG Export Plug-In . SVG Version: 6.00 Build 0)  -->
<svg version="1.1" xmlns="http://www.w3.org/2000/svg" xmlns:xlink="http://www.w3.org/1999/xlink" x="0px" y="0px"
	 viewBox="0 0 566.93 566.93" style="enable-background:new 0 0 566.93 566.93;" xml:space="preserve">

<g id="Layer_1">
	<text transform="matrix(1 0 0 1 246.7452 330.3043)" class="st0 st1">logistics</text>
	<rect x="75.33" y="227.8" class="st2" width="413.62" height="142.32"/>
	<text transform="matrix(1 0 0 1 75.3263 292.688)" class="st3 st4 st5">SIRIUS</text>
	<g>
		<g>
			<linearGradient id="SVGID_1_" gradientUnits="userSpaceOnUse" x1="3587.3044" y1="189.2909" x2="3748.9128" y2="189.2909">
				<stop  offset="0" style="stop-color:#FFFFFF"/>
				<stop  offset="3.208296e-03" style="stop-color:#F7F7F7"/>
				<stop  offset="0.0252" style="stop-color:#C4C4C4"/>
				<stop  offset="0.0488" style="stop-color:#959595"/>
				<stop  offset="0.0734" style="stop-color:#6D6D6D"/>
				<stop  offset="0.0991" style="stop-color:#4B4B4B"/>
				<stop  offset="0.1265" style="stop-color:#303030"/>
				<stop  offset="0.1561" style="stop-color:#1B1B1B"/>
				<stop  offset="0.1889" style="stop-color:#0C0C0C"/>
				<stop  offset="0.2274" style="stop-color:#030303"/>
				<stop  offset="0.2859" style="stop-color:#000000"/>
			</linearGradient>
			<polygon class="st6" points="3748.91,190.79 3587.3,189.29 3748.91,187.79 			"/>
		</g>
		<path class="st7" d="M3993.1,232.54c-47.72,14.63-38.05,1.05-50.41,50.41c-12.32-49.48-2.86-35.77-50.41-50.41
			c47.71-14.64,38.06-1.04,50.41-50.41C3955,231.61,3945.55,217.9,3993.1,232.54z"/>
		<text transform="matrix(1 0 0 1 3772.9626 299.2118)" class="st0" style="font-size:30px;">logistics</text>
		<rect x="3595.29" y="201.19" class="st2" width="294.53" height="78.76"/>
		<text transform="matrix(1 0 0 1 3595.2854 266.0844)" class="st3 st4 st5">SIRIUS</text>
		<g>
			<polygon class="st3" points="3668.11,181.51 3664.3,189.28 3668.11,197.07 3660.33,193.26 3652.55,197.07 3656.36,189.3 
				3652.55,181.51 3660.33,185.32 			"/>
		</g>
		<g>
			<polygon class="st3" points="3758.11,181.51 3754.3,189.28 3758.11,197.07 3750.33,193.26 3742.55,197.07 3746.36,189.3 
				3742.55,181.51 3750.33,185.32 			"/>
		</g>
		<g>
			<polygon class="st3" points="3972.38,202.84 3969.55,209.39 3973,215.64 3966.45,212.82 3960.2,216.26 3963.03,209.71 
				3959.58,203.46 3966.14,206.29 			"/>
		</g>
		<g>
			<path class="st3" d="M3920.05,244.1c0.59,1.44,1.24,2.83,2.11,3.98c0.87,1.15,1.94,2.02,3.13,2.4c2.4,0.74,5.11-0.13,7.6-1.39
				c2.51-1.27,4.9-2.97,7.19-4.8c2.29-1.83,4.49-3.82,6.62-5.9c1.06-1.04,2.12-2.09,3.14-3.18c0.53-0.53,1.01-1.08,1.53-1.61
				c0.48-0.55,0.95-1.08,1.42-1.65c1.89-2.24,3.59-4.64,5.21-7.14c1.6-2.5,3.08-5.11,4.46-7.8c0.71-1.34,1.35-2.71,2-4.09
				c0.33-0.69,0.64-1.39,0.94-2.09l0.46-1.06l0.22-0.53l0.11-0.27l0.06-0.13c0.01-0.03,0.07-0.15,0.04-0.04
				c0-0.07,0.02,0.02,0.01,0.05l-0.01,0.15l-0.01,0.29l-0.04,0.58l-0.11,1.16c-0.1,0.77-0.22,1.54-0.35,2.31
				c-0.26,1.54-0.64,3.05-1.03,4.57c-0.83,3.02-1.95,5.97-3.31,8.82c-1.37,2.85-3,5.59-4.91,8.16c-1.94,2.63-4.09,4.85-6.32,7.09
				c-2.27,2.19-4.66,4.26-7.26,6.1c-2.61,1.83-5.39,3.5-8.51,4.63c-1.56,0.55-3.21,0.98-4.96,1.08c-1.73,0.1-3.62-0.17-5.21-1.1
				c-1.58-0.95-2.69-2.42-3.29-3.94C3920.34,247.22,3920.1,245.65,3920.05,244.1z"/>
		</g>
	</g>
	<g>
		<g>
			<g>
				<path class="st3" d="M3707.24-247.17l-28.31-76.1c-1.17-3.13-3.18-5.67-5.66-7.14l-60.31-35.66l60.3-35.65
					c2.49-1.47,4.5-4,5.66-7.14l28.32-76.11l28.31,76.1c1.17,3.13,3.18,5.67,5.66,7.14l60.32,35.66l-60.29,35.62
					c-2.49,1.47-4.5,4-5.66,7.14L3707.24-247.17z M3626.03-366.07l49.59,29.32c3.66,2.16,6.62,5.89,8.33,10.5l23.29,62.6
					l23.31-62.63c1.72-4.61,4.68-8.34,8.33-10.5l49.56-29.29l-49.59-29.32c-3.66-2.16-6.62-5.89-8.33-10.5l-23.29-62.59l-23.3,62.61
					c-1.72,4.61-4.68,8.34-8.33,10.5L3626.03-366.07z"/>
			</g>
		</g>
		<g>
			<rect x="3732.84" y="-454.76" class="st8" width="66.69" height="183.83"/>
		</g>
		<g>
			<g>
				<path d="M3785.49-300.34h-2.98v-24.64h2.98V-300.34z"/>
				<path d="M3804.41-309.17c0,2.98-0.72,5.28-2.15,6.9c-1.44,1.62-3.35,2.43-5.73,2.43c-2.46,0-4.39-0.84-5.8-2.51
					s-2.11-3.95-2.11-6.82c0-2.96,0.73-5.25,2.18-6.89c1.45-1.64,3.36-2.46,5.74-2.46c2.39,0,4.3,0.82,5.73,2.45
					S3804.41-312.14,3804.41-309.17z M3801.34-309.17c0-2.29-0.42-3.99-1.25-5.11s-2.02-1.67-3.56-1.67c-1.55,0-2.75,0.56-3.59,1.67
					c-0.84,1.11-1.26,2.82-1.26,5.11c0,2.22,0.42,3.9,1.26,5.04c0.84,1.15,2.03,1.72,3.59,1.72c1.53,0,2.72-0.56,3.56-1.69
					C3800.92-305.22,3801.34-306.91,3801.34-309.17z"/>
				<path d="M3808.1-297.5c0.2,0.08,0.5,0.2,0.89,0.34c0.39,0.14,0.83,0.28,1.33,0.4c0.55,0.14,1.05,0.25,1.52,0.33
					s0.97,0.13,1.52,0.13c0.92,0,1.7-0.12,2.34-0.36c0.64-0.24,1.14-0.58,1.5-1.01c0.34-0.43,0.58-0.94,0.71-1.5
					c0.14-0.57,0.21-1.22,0.21-1.95v-1.55c-0.8,0.7-1.59,1.21-2.36,1.54c-0.77,0.33-1.74,0.5-2.9,0.5c-2.02,0-3.62-0.75-4.81-2.25
					c-1.19-1.5-1.79-3.65-1.79-6.46c0-1.47,0.21-2.77,0.62-3.9c0.41-1.13,0.97-2.1,1.66-2.89c0.67-0.76,1.45-1.35,2.36-1.76
					c0.91-0.41,1.85-0.62,2.82-0.62c0.92,0,1.71,0.11,2.38,0.33c0.67,0.21,1.34,0.53,2.02,0.93l0.17-0.76h2.8v15.68
					c0,3-0.66,5.2-1.96,6.6s-3.31,2.11-6,2.11c-0.87,0-1.75-0.07-2.65-0.21c-0.9-0.14-1.75-0.32-2.53-0.55v-3.1H3808.1z
					 M3818.11-305.14v-9.71c-0.74-0.36-1.42-0.61-2.05-0.77c-0.63-0.15-1.25-0.23-1.88-0.23c-1.51,0-2.7,0.55-3.56,1.66
					c-0.87,1.11-1.3,2.7-1.3,4.77c0,1.96,0.33,3.46,0.99,4.48c0.66,1.02,1.73,1.54,3.21,1.54c0.77,0,1.57-0.15,2.38-0.46
					C3816.72-304.16,3817.46-304.59,3818.11-305.14z"/>
				<path d="M3828.64-320.98h-3.39v-3.09h3.39V-320.98z M3828.44-300.34h-2.98v-17.69h2.98V-300.34z"/>
				<path d="M3837.59-299.91c-1.18,0-2.29-0.16-3.32-0.48c-1.03-0.32-1.88-0.65-2.56-1.01v-3.34h0.16c0.25,0.2,0.55,0.42,0.89,0.66
					c0.34,0.24,0.8,0.5,1.37,0.76c0.51,0.23,1.06,0.44,1.67,0.62c0.61,0.18,1.24,0.27,1.89,0.27c0.47,0,0.98-0.06,1.52-0.17
					c0.54-0.11,0.94-0.25,1.2-0.42c0.37-0.24,0.64-0.5,0.8-0.78c0.16-0.27,0.25-0.69,0.25-1.23c0-0.71-0.19-1.24-0.58-1.6
					c-0.39-0.36-1.07-0.66-2.05-0.9c-0.38-0.1-0.88-0.21-1.49-0.33s-1.18-0.26-1.69-0.41c-1.35-0.39-2.33-0.99-2.95-1.81
					s-0.92-1.81-0.92-2.97c0-1.59,0.6-2.89,1.81-3.89c1.2-1,2.8-1.5,4.8-1.5c0.98,0,1.97,0.12,2.96,0.36
					c0.99,0.24,1.83,0.55,2.5,0.92v3.18h-0.16c-0.76-0.6-1.61-1.08-2.54-1.43c-0.93-0.35-1.88-0.52-2.83-0.52
					c-0.98,0-1.81,0.21-2.49,0.62c-0.67,0.41-1.01,1.04-1.01,1.87c0,0.74,0.2,1.29,0.6,1.65s1.04,0.66,1.93,0.89
					c0.44,0.12,0.94,0.23,1.48,0.34c0.54,0.11,1.12,0.24,1.72,0.39c1.31,0.33,2.29,0.87,2.95,1.63c0.66,0.76,0.99,1.79,0.99,3.1
					c0,0.76-0.15,1.48-0.45,2.16c-0.3,0.68-0.74,1.26-1.32,1.75c-0.63,0.53-1.35,0.93-2.15,1.2
					C3839.79-300.05,3838.79-299.91,3837.59-299.91z"/>
				<path d="M3852.63-299.99c-1.63,0-2.89-0.46-3.8-1.38s-1.36-2.38-1.36-4.38v-9.8h-2.01v-2.47h2.01v-5.08h2.98v5.08h5.48v2.47
					h-5.48v8.41c0,0.9,0.02,1.59,0.05,2.07c0.03,0.48,0.15,0.94,0.36,1.36c0.18,0.37,0.47,0.65,0.87,0.83
					c0.4,0.18,0.94,0.28,1.63,0.28c0.49,0,0.96-0.07,1.41-0.21s0.78-0.26,0.98-0.36h0.17v2.68c-0.56,0.16-1.13,0.28-1.7,0.37
					S3853.12-299.99,3852.63-299.99z"/>
				<path d="M3861.37-320.98h-3.39v-3.09h3.39V-320.98z M3861.17-300.34h-2.98v-17.69h2.98V-300.34z"/>
				<path d="M3872.57-299.94c-1.21,0-2.33-0.19-3.34-0.56c-1.01-0.38-1.88-0.94-2.61-1.7s-1.29-1.72-1.69-2.87
					c-0.4-1.16-0.6-2.52-0.6-4.08c0-1.55,0.21-2.89,0.62-4.02c0.42-1.13,0.97-2.08,1.67-2.85c0.7-0.77,1.56-1.36,2.6-1.78
					c1.04-0.42,2.16-0.62,3.35-0.62c0.97,0,1.91,0.14,2.81,0.41c0.9,0.27,1.71,0.59,2.42,0.95v3.34h-0.17
					c-0.21-0.18-0.48-0.38-0.82-0.62c-0.33-0.23-0.74-0.47-1.21-0.71c-0.41-0.21-0.9-0.4-1.46-0.55s-1.1-0.24-1.62-0.24
					c-1.54,0-2.78,0.58-3.71,1.75c-0.93,1.17-1.4,2.82-1.4,4.95c0,2.09,0.45,3.72,1.35,4.88s2.16,1.75,3.76,1.75
					c0.97,0,1.89-0.2,2.77-0.6c0.88-0.4,1.65-0.92,2.33-1.55h0.17v3.34c-0.3,0.14-0.67,0.3-1.11,0.5s-0.84,0.34-1.2,0.44
					c-0.51,0.15-0.96,0.26-1.36,0.34C3873.72-299.98,3873.2-299.94,3872.57-299.94z"/>
				<path d="M3885.28-299.91c-1.18,0-2.29-0.16-3.32-0.48c-1.03-0.32-1.88-0.65-2.56-1.01v-3.34h0.16c0.25,0.2,0.55,0.42,0.89,0.66
					c0.34,0.24,0.8,0.5,1.37,0.76c0.51,0.23,1.06,0.44,1.67,0.62c0.61,0.18,1.24,0.27,1.89,0.27c0.47,0,0.98-0.06,1.52-0.17
					c0.54-0.11,0.94-0.25,1.2-0.42c0.37-0.24,0.64-0.5,0.8-0.78c0.16-0.27,0.25-0.69,0.25-1.23c0-0.71-0.19-1.24-0.58-1.6
					c-0.39-0.36-1.07-0.66-2.05-0.9c-0.38-0.1-0.88-0.21-1.49-0.33s-1.18-0.26-1.69-0.41c-1.35-0.39-2.33-0.99-2.95-1.81
					s-0.92-1.81-0.92-2.97c0-1.59,0.6-2.89,1.81-3.89c1.2-1,2.8-1.5,4.8-1.5c0.98,0,1.97,0.12,2.96,0.36
					c0.99,0.24,1.83,0.55,2.5,0.92v3.18h-0.16c-0.76-0.6-1.61-1.08-2.54-1.43c-0.93-0.35-1.88-0.52-2.83-0.52
					c-0.98,0-1.81,0.21-2.49,0.62c-0.67,0.41-1.01,1.04-1.01,1.87c0,0.74,0.2,1.29,0.6,1.65s1.04,0.66,1.93,0.89
					c0.44,0.12,0.94,0.23,1.48,0.34c0.54,0.11,1.12,0.24,1.72,0.39c1.31,0.33,2.29,0.87,2.95,1.63c0.66,0.76,0.99,1.79,0.99,3.1
					c0,0.76-0.15,1.48-0.45,2.16c-0.3,0.68-0.74,1.26-1.32,1.75c-0.63,0.53-1.35,0.93-2.15,1.2
					C3887.49-300.05,3886.49-299.91,3885.28-299.91z"/>
			</g>
			<g>
				<path class="st3" d="M3684.75-336.33c-0.25-4.81-0.59-8.74-1-11.78c6.21,2.82,11.84,4.23,16.91,4.23c2.03,0,3.92-0.31,5.68-0.93
					c1.76-0.62,3.06-1.49,3.9-2.61c0.84-1.12,1.26-2.38,1.26-3.78c0-1.08-0.2-2.04-0.61-2.9c-0.61-1.17-1.61-2.39-3.03-3.66
					c-1.81-1.74-5.04-4.61-9.69-8.6c-2.22-1.93-3.75-3.31-4.59-4.13c-1.9-1.81-3.36-3.43-4.37-4.87c-1.01-1.44-1.74-2.87-2.18-4.3
					c-0.44-1.43-0.67-2.95-0.67-4.56c0-2.98,0.83-5.77,2.49-8.38c1.66-2.61,4.15-4.66,7.46-6.13c3.31-1.47,7.48-2.21,12.52-2.21
					c4.53,0,9.63,0.55,15.3,1.66c0.16,3.29,0.48,7.06,0.95,11.31c-4.93-1.9-9.48-2.85-13.65-2.85c-3.1,0-5.63,0.71-7.61,2.11
					c-1.98,1.41-2.96,3.05-2.96,4.92c0,0.51,0.07,1.04,0.21,1.59c0.14,0.55,0.34,1.09,0.62,1.62s0.77,1.2,1.47,2.04
					c0.71,0.84,1.74,1.82,3.1,2.95c1.36,1.12,2.52,2.04,3.49,2.73l5.86,5.32c1.49,1.23,2.81,2.44,3.98,3.61
					c1.17,1.17,2.17,2.29,3.01,3.37c0.84,1.08,1.49,2.11,1.97,3.09c0.47,0.98,0.83,1.99,1.07,3.02s0.36,2.11,0.36,3.25
					c0,2.66-0.62,5.17-1.85,7.53s-3.01,4.3-5.32,5.82c-2.31,1.52-4.85,2.57-7.6,3.16c-2.76,0.59-5.67,0.88-8.74,0.88
					c-2.03,0-4.39-0.17-7.08-0.52C3692.7-334.68,3689.16-335.35,3684.75-336.33z"/>
				<path class="st3" d="M3736.39-334.95c0.76-10.89,1.37-22.06,1.84-33.51c0.47-11.45,0.71-20.2,0.71-26.25l-0.05-5.08l7.94,0.1
					c0.44,0,2.87-0.03,7.27-0.1c-1.29,16.66-2.11,38.27-2.46,64.84l-6.99-0.09C3743.49-335.05,3740.73-335.02,3736.39-334.95z"/>
				<path class="st3" d="M3764.8-334.95c0.95-9.44,1.67-20.28,2.15-32.54c0.48-12.26,0.72-23.02,0.72-32.3
					c3.8,0.06,6.98,0.1,9.55,0.1c2.75,0,5.45-0.05,8.1-0.14c2.64-0.09,5.44-0.14,8.38-0.14c3.67,0,6.96,0.21,9.85,0.62
					c2.9,0.41,5.47,1.36,7.72,2.85c2.25,1.49,3.92,3.29,5.01,5.42c1.09,2.12,1.64,4.59,1.64,7.41c0,1.77-0.21,3.46-0.62,5.06
					c-0.41,1.6-1.02,3.1-1.83,4.51c-0.81,1.41-1.77,2.64-2.87,3.71c-1.11,1.06-2.21,1.9-3.3,2.52s-2.34,1.15-3.73,1.59
					c-1.39,0.44-3.26,0.98-5.61,1.62l3.23,6.27c1.04,2,3.02,5.57,5.94,10.74l4.8,8.41c0.25,0.44,1.01,1.88,2.28,4.32
					c-3.88-0.06-6.43-0.09-7.67-0.09c-1.52,0-4.21,0.03-8.05,0.09l-5.26-12.63c-0.92-1.93-2.02-4.21-3.32-6.84l-5.74-11.54
					c-0.57-1.08-1.36-2.69-2.37-4.85c2.12,0.38,4.06,0.57,5.8,0.57c2.73,0,5.21-0.44,7.46-1.33c2.25-0.89,3.98-2.26,5.18-4.11
					c1.2-1.85,1.81-3.87,1.81-6.06c0-1.33-0.26-2.56-0.78-3.71s-1.4-2.11-2.64-2.9c-1.23-0.79-2.71-1.3-4.42-1.52
					c-1.71-0.22-3.42-0.33-5.13-0.33c-0.95,0-2.25,0.02-3.9,0.05c-1.65,0.03-3.67,0.05-6.08,0.05l-0.85,19.52l-0.9,35.63l-7.37-0.09
					C3770.81-335.05,3768.41-335.02,3764.8-334.95z"/>
				<path class="st3" d="M3826.36-334.95c0.76-10.89,1.37-22.06,1.84-33.51c0.47-11.45,0.71-20.2,0.71-26.25l-0.05-5.08l7.94,0.1
					c0.44,0,2.87-0.03,7.27-0.1c-1.29,16.66-2.11,38.27-2.46,64.84l-6.99-0.09C3833.46-335.05,3830.71-335.02,3826.36-334.95z"/>
				<path class="st3" d="M3857.5-399.8c3.67,0.06,6.15,0.1,7.45,0.1c1.61,0,4.02-0.03,7.21-0.1l-2.24,38.34
					c-0.03,0.45-0.05,0.92-0.05,1.43c0,4.28,0.61,7.49,1.83,9.64c1.22,2.15,3.01,3.72,5.37,4.7c2.36,0.98,5.06,1.47,8.1,1.47
					c1.93,0,3.77-0.22,5.51-0.66c1.43-0.38,2.72-0.9,3.9-1.57c0.95-0.57,1.79-1.23,2.52-1.99c0.85-0.92,1.57-1.98,2.14-3.18
					c0.6-1.17,1.04-2.5,1.33-3.99c0.41-2.25,0.79-6.16,1.15-11.73l1.01-16.53c0.22-4.81,0.4-10.12,0.53-15.91
					c3.57,0.06,6.23,0.1,7.97,0.1l6.93-0.1l-1.47,22.9l-0.95,18.19c-0.29,4.24-0.73,7.41-1.33,9.5c-0.51,1.74-1.22,3.36-2.14,4.84
					c-0.89,1.33-1.95,2.52-3.18,3.56c-1.58,1.36-3.44,2.53-5.56,3.51c-2.38,1.11-4.89,1.92-7.55,2.42
					c-3.67,0.7-7.46,1.04-11.35,1.04c-3.99,0-7.73-0.37-11.21-1.09c-2.98-0.63-5.71-1.62-8.19-2.95s-4.46-2.82-5.92-4.47
					c-1.17-1.33-2.11-2.99-2.8-4.99c-0.79-2.21-1.19-4.69-1.19-7.41c0-0.95,0.03-2.18,0.1-3.68c0.06-1.5,0.18-3.44,0.34-5.82
					l0.43-6.7c0.16-2.09,0.34-5.16,0.53-9.22l0.48-10.31C3857.29-393.26,3857.41-396.38,3857.5-399.8z"/>
				<path class="st3" d="M3926.27-336.33c-0.25-4.81-0.59-8.74-1-11.78c6.21,2.82,11.84,4.23,16.91,4.23c2.03,0,3.92-0.31,5.68-0.93
					c1.76-0.62,3.06-1.49,3.9-2.61c0.84-1.12,1.26-2.38,1.26-3.78c0-1.08-0.2-2.04-0.61-2.9c-0.61-1.17-1.61-2.39-3.03-3.66
					c-1.81-1.74-5.04-4.61-9.69-8.6c-2.22-1.93-3.75-3.31-4.59-4.13c-1.9-1.81-3.36-3.43-4.37-4.87c-1.01-1.44-1.74-2.87-2.19-4.3
					s-0.67-2.95-0.67-4.56c0-2.98,0.83-5.77,2.49-8.38c1.66-2.61,4.15-4.66,7.46-6.13s7.48-2.21,12.52-2.21
					c4.53,0,9.63,0.55,15.3,1.66c0.16,3.29,0.47,7.06,0.95,11.31c-4.93-1.9-9.48-2.85-13.66-2.85c-3.1,0-5.63,0.71-7.61,2.11
					c-1.98,1.41-2.96,3.05-2.96,4.92c0,0.51,0.07,1.04,0.21,1.59c0.14,0.55,0.34,1.09,0.62,1.62s0.77,1.2,1.47,2.04
					c0.71,0.84,1.74,1.82,3.1,2.95c1.36,1.12,2.52,2.04,3.49,2.73l5.86,5.32c1.48,1.23,2.81,2.44,3.98,3.61
					c1.17,1.17,2.17,2.29,3.01,3.37c0.84,1.08,1.49,2.11,1.97,3.09c0.47,0.98,0.83,1.99,1.07,3.02c0.24,1.03,0.36,2.11,0.36,3.25
					c0,2.66-0.62,5.17-1.85,7.53s-3.01,4.3-5.32,5.82c-2.31,1.52-4.85,2.57-7.6,3.16c-2.75,0.59-5.67,0.88-8.74,0.88
					c-2.03,0-4.39-0.17-7.08-0.52C3934.22-334.68,3930.67-335.35,3926.27-336.33z"/>
			</g>
			<g>
				<path class="st3" d="M3736.74-404.56l3.68-10.16c0.03-0.07,0.03-0.15,0-0.22l-3.67-10.17l10.17,3.67c0.07,0.03,0.15,0.03,0.22,0
					l10.17-3.68l-3.68,10.16c-0.03,0.07-0.03,0.15,0,0.22l3.67,10.17l-10.17-3.67c-0.07-0.03-0.15-0.02-0.22,0L3736.74-404.56z
					 M3747.01-411.25c0.38,0,0.76,0.07,1.13,0.2l4.16,1.5l-1.5-4.16c-0.26-0.73-0.26-1.53,0-2.26l1.5-4.14l-4.15,1.5
					c-0.73,0.26-1.53,0.26-2.26,0l-4.15-1.5l1.5,4.16c0.26,0.73,0.26,1.53,0,2.26l-1.5,4.14l4.15-1.5
					C3746.24-411.18,3746.63-411.25,3747.01-411.25z"/>
			</g>
			<g>
				<path class="st3" d="M3827.3-404.56l3.68-10.16c0.03-0.07,0.03-0.15,0-0.22l-3.67-10.17l10.17,3.67c0.07,0.03,0.15,0.03,0.22,0
					l10.17-3.68l-3.68,10.16c-0.03,0.07-0.03,0.15,0,0.22l3.67,10.17l-10.17-3.67c-0.07-0.03-0.15-0.03-0.22,0L3827.3-404.56z
					 M3837.57-411.25c0.38,0,0.77,0.07,1.13,0.2l4.16,1.5l-1.5-4.16c-0.26-0.73-0.26-1.53,0-2.26l1.5-4.14l-4.15,1.5
					c-0.73,0.26-1.53,0.26-2.26,0l-4.15-1.5l1.5,4.16c0.26,0.73,0.26,1.53,0,2.26l-1.5,4.15l4.15-1.5
					C3836.81-411.18,3837.19-411.25,3837.57-411.25z"/>
			</g>
		</g>
	</g>
	<g>
		<g>
			<g>
				<path class="st3" d="M3707.24,969.29l-28.31-76.1c-1.17-3.13-3.18-5.67-5.66-7.14l-60.31-35.66l60.3-35.65
					c2.49-1.47,4.5-4,5.66-7.14l28.32-76.11l28.31,76.1c1.17,3.13,3.18,5.67,5.66,7.14l60.32,35.66l-60.29,35.62
					c-2.49,1.47-4.5,4-5.67,7.14L3707.24,969.29z M3626.03,850.39l49.59,29.32c3.66,2.16,6.62,5.89,8.33,10.5l23.29,62.6
					l23.31-62.63c1.72-4.61,4.68-8.34,8.33-10.5l49.56-29.29l-49.59-29.32c-3.66-2.16-6.62-5.89-8.33-10.5l-23.29-62.59l-23.3,62.61
					c-1.72,4.61-4.68,8.34-8.33,10.5L3626.03,850.39z"/>
			</g>
		</g>
		<g>
			<rect x="3732.84" y="761.7" class="st8" width="66.69" height="183.83"/>
		</g>
		<g>
			<path class="st3" d="M3785.49,916.12h-2.98v-24.64h2.98V916.12z"/>
			<path class="st3" d="M3804.42,907.29c0,2.98-0.72,5.28-2.15,6.9c-1.44,1.62-3.35,2.43-5.73,2.43c-2.46,0-4.39-0.84-5.8-2.51
				c-1.41-1.67-2.11-3.95-2.11-6.82c0-2.96,0.73-5.25,2.18-6.89c1.45-1.64,3.37-2.46,5.74-2.46c2.39,0,4.3,0.82,5.73,2.45
				C3803.7,902.02,3804.42,904.32,3804.42,907.29z M3801.34,907.29c0-2.29-0.42-3.99-1.25-5.11c-0.83-1.11-2.02-1.67-3.56-1.67
				c-1.55,0-2.75,0.56-3.59,1.67c-0.84,1.11-1.26,2.82-1.26,5.11c0,2.22,0.42,3.9,1.26,5.04c0.84,1.15,2.04,1.72,3.59,1.72
				c1.53,0,2.72-0.56,3.55-1.69C3800.92,911.24,3801.34,909.55,3801.34,907.29z"/>
			<path class="st3" d="M3808.1,918.96c0.2,0.08,0.5,0.2,0.89,0.34s0.83,0.28,1.33,0.4c0.55,0.14,1.06,0.25,1.52,0.33
				c0.46,0.08,0.97,0.13,1.52,0.13c0.92,0,1.7-0.12,2.34-0.36c0.64-0.24,1.14-0.58,1.5-1.01c0.34-0.43,0.58-0.93,0.71-1.5
				c0.14-0.57,0.21-1.22,0.21-1.95v-1.55c-0.8,0.7-1.59,1.21-2.36,1.54c-0.77,0.33-1.74,0.5-2.9,0.5c-2.02,0-3.62-0.75-4.81-2.25
				c-1.19-1.5-1.79-3.65-1.79-6.46c0-1.47,0.21-2.77,0.62-3.9c0.41-1.13,0.97-2.1,1.66-2.89c0.67-0.76,1.45-1.35,2.36-1.76
				c0.91-0.41,1.85-0.62,2.82-0.62c0.92,0,1.71,0.11,2.38,0.33c0.67,0.22,1.34,0.53,2.02,0.93l0.17-0.76h2.8v15.68
				c0,3-0.65,5.2-1.96,6.6c-1.31,1.4-3.31,2.11-6,2.11c-0.87,0-1.75-0.07-2.65-0.21c-0.9-0.14-1.74-0.32-2.53-0.55v-3.1H3808.1z
				 M3818.11,911.33v-9.71c-0.74-0.36-1.42-0.61-2.05-0.77s-1.25-0.23-1.88-0.23c-1.51,0-2.7,0.55-3.56,1.66s-1.3,2.7-1.3,4.77
				c0,1.96,0.33,3.46,0.99,4.48c0.66,1.02,1.73,1.54,3.21,1.54c0.77,0,1.56-0.15,2.38-0.46
				C3816.72,912.3,3817.46,911.87,3818.11,911.33z"/>
			<path class="st3" d="M3828.64,895.48h-3.39v-3.09h3.39V895.48z M3828.44,916.12h-2.98v-17.69h2.98V916.12z"/>
			<path class="st3" d="M3837.59,916.55c-1.18,0-2.29-0.16-3.32-0.48c-1.03-0.32-1.88-0.65-2.56-1.01v-3.34h0.16
				c0.25,0.2,0.55,0.42,0.89,0.67c0.34,0.24,0.8,0.5,1.37,0.76c0.51,0.23,1.06,0.44,1.67,0.62c0.61,0.18,1.24,0.27,1.89,0.27
				c0.47,0,0.98-0.06,1.52-0.17c0.54-0.11,0.94-0.25,1.2-0.42c0.37-0.24,0.64-0.5,0.8-0.78c0.16-0.27,0.25-0.69,0.25-1.24
				c0-0.71-0.19-1.24-0.58-1.6c-0.39-0.36-1.07-0.66-2.05-0.9c-0.38-0.09-0.88-0.21-1.49-0.33s-1.18-0.26-1.69-0.41
				c-1.35-0.39-2.33-0.99-2.95-1.81s-0.92-1.81-0.92-2.97c0-1.59,0.6-2.89,1.81-3.89s2.8-1.5,4.8-1.5c0.98,0,1.97,0.12,2.96,0.36
				c0.99,0.24,1.83,0.55,2.5,0.92v3.18h-0.16c-0.76-0.6-1.61-1.08-2.54-1.43c-0.93-0.35-1.88-0.52-2.83-0.52
				c-0.98,0-1.81,0.21-2.49,0.62c-0.67,0.41-1.01,1.03-1.01,1.87c0,0.74,0.2,1.29,0.6,1.66c0.4,0.36,1.04,0.66,1.93,0.89
				c0.44,0.12,0.94,0.23,1.48,0.34c0.54,0.11,1.12,0.24,1.72,0.39c1.31,0.33,2.29,0.87,2.95,1.63c0.66,0.76,0.99,1.79,0.99,3.1
				c0,0.76-0.15,1.48-0.45,2.16s-0.74,1.26-1.32,1.75c-0.63,0.53-1.35,0.93-2.15,1.2S3838.79,916.55,3837.59,916.55z"/>
			<path class="st3" d="M3852.63,916.47c-1.63,0-2.89-0.46-3.8-1.39s-1.36-2.38-1.36-4.38v-9.8h-2.01v-2.47h2.01v-5.08h2.98v5.08
				h5.48v2.47h-5.48v8.41c0,0.9,0.02,1.59,0.05,2.07c0.03,0.49,0.15,0.94,0.36,1.36c0.18,0.37,0.47,0.65,0.87,0.83
				c0.4,0.18,0.94,0.28,1.63,0.28c0.49,0,0.96-0.07,1.41-0.21s0.78-0.26,0.98-0.36h0.17v2.68c-0.56,0.16-1.13,0.28-1.7,0.37
				S3853.12,916.47,3852.63,916.47z"/>
			<path class="st3" d="M3861.37,895.48h-3.39v-3.09h3.39V895.48z M3861.17,916.12h-2.98v-17.69h2.98V916.12z"/>
			<path class="st3" d="M3872.57,916.52c-1.21,0-2.33-0.19-3.34-0.56c-1.01-0.38-1.88-0.94-2.61-1.7c-0.73-0.76-1.29-1.72-1.69-2.87
				c-0.4-1.16-0.6-2.52-0.6-4.08c0-1.55,0.21-2.89,0.62-4.02s0.97-2.08,1.67-2.85c0.7-0.77,1.56-1.36,2.6-1.78s2.16-0.63,3.35-0.63
				c0.97,0,1.91,0.14,2.81,0.41s1.71,0.59,2.42,0.95v3.34h-0.17c-0.21-0.18-0.48-0.38-0.82-0.62c-0.33-0.23-0.74-0.47-1.21-0.71
				c-0.41-0.21-0.9-0.4-1.46-0.55s-1.1-0.24-1.62-0.24c-1.54,0-2.78,0.58-3.71,1.75c-0.93,1.17-1.4,2.82-1.4,4.95
				c0,2.09,0.45,3.72,1.35,4.89c0.9,1.17,2.16,1.75,3.76,1.75c0.97,0,1.89-0.2,2.77-0.6c0.88-0.4,1.65-0.92,2.33-1.55h0.17v3.34
				c-0.3,0.14-0.67,0.3-1.11,0.5s-0.84,0.34-1.2,0.44c-0.51,0.15-0.96,0.26-1.36,0.34C3873.72,916.48,3873.2,916.52,3872.57,916.52z
				"/>
			<path class="st3" d="M3885.28,916.55c-1.18,0-2.29-0.16-3.32-0.48c-1.03-0.32-1.88-0.65-2.56-1.01v-3.34h0.16
				c0.25,0.2,0.55,0.42,0.89,0.67c0.34,0.24,0.8,0.5,1.37,0.76c0.51,0.23,1.06,0.44,1.67,0.62c0.61,0.18,1.24,0.27,1.89,0.27
				c0.47,0,0.98-0.06,1.52-0.17c0.54-0.11,0.94-0.25,1.2-0.42c0.37-0.24,0.64-0.5,0.8-0.78c0.16-0.27,0.25-0.69,0.25-1.24
				c0-0.71-0.19-1.24-0.58-1.6c-0.39-0.36-1.07-0.66-2.05-0.9c-0.38-0.09-0.88-0.21-1.49-0.33s-1.18-0.26-1.69-0.41
				c-1.35-0.39-2.33-0.99-2.95-1.81s-0.92-1.81-0.92-2.97c0-1.59,0.6-2.89,1.81-3.89s2.8-1.5,4.8-1.5c0.98,0,1.97,0.12,2.96,0.36
				c0.99,0.24,1.83,0.55,2.5,0.92v3.18h-0.16c-0.76-0.6-1.61-1.08-2.54-1.43c-0.93-0.35-1.88-0.52-2.83-0.52
				c-0.98,0-1.81,0.21-2.49,0.62c-0.67,0.41-1.01,1.03-1.01,1.87c0,0.74,0.2,1.29,0.6,1.66c0.4,0.36,1.04,0.66,1.93,0.89
				c0.44,0.12,0.94,0.23,1.48,0.34c0.54,0.11,1.12,0.24,1.72,0.39c1.31,0.33,2.29,0.87,2.95,1.63c0.66,0.76,0.99,1.79,0.99,3.1
				c0,0.76-0.15,1.48-0.45,2.16s-0.74,1.26-1.32,1.75c-0.63,0.53-1.35,0.93-2.15,1.2S3886.49,916.55,3885.28,916.55z"/>
		</g>
		<g>
			<path class="st3" d="M3684.75,880.13c-0.25-4.81-0.59-8.74-1-11.78c6.21,2.82,11.84,4.23,16.91,4.23c2.03,0,3.92-0.31,5.68-0.93
				c1.76-0.62,3.06-1.49,3.9-2.61c0.84-1.12,1.26-2.38,1.26-3.78c0-1.08-0.2-2.04-0.61-2.9c-0.61-1.17-1.61-2.39-3.03-3.66
				c-1.81-1.74-5.04-4.61-9.69-8.6c-2.22-1.93-3.75-3.31-4.59-4.13c-1.9-1.81-3.36-3.43-4.37-4.87c-1.01-1.44-1.74-2.87-2.18-4.3
				c-0.44-1.43-0.67-2.95-0.67-4.56c0-2.98,0.83-5.77,2.49-8.38c1.66-2.61,4.15-4.66,7.46-6.13c3.31-1.47,7.48-2.21,12.52-2.21
				c4.53,0,9.63,0.55,15.3,1.66c0.16,3.29,0.48,7.06,0.95,11.31c-4.93-1.9-9.48-2.85-13.65-2.85c-3.1,0-5.63,0.71-7.61,2.11
				c-1.98,1.41-2.96,3.05-2.96,4.92c0,0.51,0.07,1.04,0.21,1.59c0.14,0.55,0.34,1.09,0.62,1.62s0.77,1.2,1.47,2.04
				c0.71,0.84,1.74,1.82,3.1,2.95c1.36,1.12,2.52,2.04,3.49,2.73l5.86,5.32c1.49,1.24,2.81,2.44,3.98,3.61s2.17,2.3,3.01,3.37
				c0.84,1.08,1.49,2.11,1.97,3.09c0.47,0.98,0.83,1.99,1.07,3.02c0.24,1.03,0.36,2.11,0.36,3.25c0,2.66-0.62,5.17-1.85,7.53
				s-3.01,4.3-5.32,5.82c-2.31,1.52-4.85,2.57-7.6,3.16c-2.76,0.58-5.67,0.88-8.74,0.88c-2.03,0-4.39-0.17-7.08-0.52
				C3692.7,881.78,3689.16,881.11,3684.75,880.13z"/>
			<path class="st3" d="M3736.39,881.51c0.76-10.89,1.37-22.07,1.84-33.51s0.71-20.2,0.71-26.25l-0.05-5.08l7.94,0.1
				c0.44,0,2.87-0.03,7.27-0.1c-1.29,16.66-2.11,38.27-2.46,64.84l-6.99-0.09C3743.49,881.41,3740.73,881.44,3736.39,881.51z"/>
			<path class="st3" d="M3764.8,881.51c0.95-9.44,1.67-20.28,2.15-32.54c0.48-12.26,0.72-23.02,0.72-32.3
				c3.8,0.06,6.98,0.1,9.54,0.1c2.75,0,5.45-0.05,8.1-0.14c2.64-0.09,5.44-0.14,8.38-0.14c3.67,0,6.96,0.21,9.85,0.62
				c2.9,0.41,5.47,1.36,7.72,2.85c2.25,1.49,3.92,3.29,5.01,5.42c1.09,2.12,1.64,4.59,1.64,7.41c0,1.77-0.21,3.46-0.62,5.06
				c-0.41,1.6-1.02,3.1-1.83,4.51c-0.81,1.41-1.77,2.64-2.87,3.71c-1.11,1.06-2.21,1.9-3.3,2.52c-1.09,0.62-2.34,1.15-3.73,1.59
				s-3.26,0.98-5.61,1.62l3.23,6.27c1.04,2,3.02,5.57,5.94,10.74l4.8,8.41c0.25,0.44,1.01,1.88,2.28,4.32
				c-3.87-0.06-6.43-0.09-7.67-0.09c-1.52,0-4.21,0.03-8.05,0.09l-5.26-12.64c-0.92-1.93-2.02-4.21-3.32-6.84l-5.74-11.54
				c-0.57-1.08-1.36-2.69-2.37-4.85c2.12,0.38,4.06,0.57,5.8,0.57c2.73,0,5.21-0.44,7.46-1.33c2.25-0.89,3.98-2.26,5.18-4.11
				c1.2-1.85,1.81-3.87,1.81-6.06c0-1.33-0.26-2.56-0.78-3.71s-1.4-2.11-2.64-2.9c-1.24-0.79-2.71-1.3-4.42-1.52
				c-1.71-0.22-3.42-0.33-5.13-0.33c-0.95,0-2.25,0.02-3.89,0.05c-1.65,0.03-3.67,0.05-6.08,0.05l-0.85,19.52l-0.89,35.63
				l-7.37-0.09C3770.81,881.41,3768.41,881.44,3764.8,881.51z"/>
			<path class="st3" d="M3826.36,881.51c0.76-10.89,1.37-22.07,1.84-33.51c0.47-11.45,0.71-20.2,0.71-26.25l-0.05-5.08l7.94,0.1
				c0.44,0,2.87-0.03,7.27-0.1c-1.29,16.66-2.11,38.27-2.46,64.84l-6.99-0.09C3833.46,881.41,3830.71,881.44,3826.36,881.51z"/>
			<path class="st3" d="M3857.5,816.66c3.67,0.06,6.15,0.1,7.45,0.1c1.61,0,4.02-0.03,7.21-0.1l-2.24,38.34
				c-0.03,0.44-0.05,0.92-0.05,1.43c0,4.28,0.61,7.49,1.83,9.64s3.01,3.72,5.37,4.7c2.36,0.98,5.06,1.47,8.1,1.47
				c1.93,0,3.77-0.22,5.51-0.67c1.42-0.38,2.72-0.9,3.9-1.57c0.95-0.57,1.79-1.24,2.52-2c0.86-0.92,1.57-1.98,2.14-3.18
				c0.6-1.17,1.05-2.5,1.33-3.99c0.41-2.25,0.79-6.16,1.15-11.73l1.01-16.53c0.22-4.81,0.4-10.12,0.53-15.91
				c3.57,0.06,6.23,0.1,7.97,0.1l6.93-0.1l-1.47,22.9l-0.95,18.19c-0.29,4.24-0.73,7.41-1.33,9.5c-0.51,1.74-1.22,3.36-2.14,4.84
				c-0.89,1.33-1.95,2.52-3.18,3.56c-1.58,1.36-3.44,2.53-5.56,3.51c-2.38,1.11-4.89,1.92-7.55,2.42c-3.67,0.7-7.46,1.04-11.35,1.04
				c-3.99,0-7.73-0.36-11.21-1.09c-2.98-0.63-5.71-1.62-8.19-2.95c-2.49-1.33-4.46-2.82-5.92-4.47c-1.17-1.33-2.11-2.99-2.8-4.99
				c-0.79-2.22-1.19-4.69-1.19-7.41c0-0.95,0.03-2.18,0.1-3.68c0.06-1.5,0.18-3.44,0.34-5.82l0.43-6.7
				c0.16-2.09,0.34-5.16,0.53-9.22l0.48-10.31C3857.29,823.2,3857.41,820.08,3857.5,816.66z"/>
			<path class="st3" d="M3926.27,880.13c-0.25-4.81-0.59-8.74-1-11.78c6.21,2.82,11.84,4.23,16.91,4.23c2.03,0,3.92-0.31,5.68-0.93
				c1.76-0.62,3.06-1.49,3.9-2.61s1.26-2.38,1.26-3.78c0-1.08-0.2-2.04-0.61-2.9c-0.61-1.17-1.61-2.39-3.03-3.66
				c-1.81-1.74-5.04-4.61-9.69-8.6c-2.22-1.93-3.75-3.31-4.59-4.13c-1.9-1.81-3.36-3.43-4.37-4.87c-1.01-1.44-1.74-2.87-2.19-4.3
				s-0.67-2.95-0.67-4.56c0-2.98,0.83-5.77,2.49-8.38c1.66-2.61,4.15-4.66,7.46-6.13s7.48-2.21,12.52-2.21
				c4.53,0,9.63,0.55,15.3,1.66c0.16,3.29,0.47,7.06,0.95,11.31c-4.93-1.9-9.48-2.85-13.66-2.85c-3.1,0-5.63,0.71-7.61,2.11
				c-1.98,1.41-2.96,3.05-2.96,4.92c0,0.51,0.07,1.04,0.21,1.59c0.14,0.55,0.34,1.09,0.62,1.62s0.77,1.2,1.47,2.04
				c0.71,0.84,1.74,1.82,3.1,2.95c1.36,1.12,2.52,2.04,3.49,2.73l5.86,5.32c1.48,1.24,2.81,2.44,3.98,3.61s2.17,2.3,3.01,3.37
				c0.84,1.08,1.49,2.11,1.97,3.09c0.47,0.98,0.83,1.99,1.07,3.02c0.24,1.03,0.36,2.11,0.36,3.25c0,2.66-0.62,5.17-1.85,7.53
				s-3.01,4.3-5.32,5.82c-2.31,1.52-4.85,2.57-7.6,3.16c-2.75,0.58-5.67,0.88-8.74,0.88c-2.03,0-4.39-0.17-7.08-0.52
				C3934.21,881.78,3930.67,881.11,3926.27,880.13z"/>
		</g>
		<g>
			<polygon class="st3" points="3754.79,795.85 3750.98,803.62 3754.79,811.41 3747.01,807.6 3739.24,811.41 3743.05,803.63 
				3739.24,795.85 3747.02,799.66 			"/>
		</g>
		<g>
			<polygon class="st3" points="3844.79,795.85 3840.98,803.62 3844.79,811.41 3837.01,807.6 3829.24,811.41 3833.05,803.63 
				3829.24,795.85 3837.02,799.66 			"/>
		</g>
	</g>
</g>
<g id="Layer_2">
	<g>
		<linearGradient id="SVGID_2_" gradientUnits="userSpaceOnUse" x1="332.0532" y1="260.631" x2="418.8275" y2="260.631">
			<stop  offset="0.1126" style="stop-color:#FFFFFF"/>
			<stop  offset="0.3405" style="stop-color:#CAB3B3"/>
			<stop  offset="0.8646" style="stop-color:#60262D"/>
			<stop  offset="1" style="stop-color:#490D17"/>
		</linearGradient>
		<path class="st9" d="M415.91,238.85c-3.46-17.98-6.91-35.95-10.37-53.93c-2.18-11.33-4.36-22.67-6.54-34
			c0,0-17.72,92.13-18.07,93.98l-44.24,7.88l17.9,18.89l26.34,4.69c0.35,1.84,18.07,93.98,18.07,93.98s11.54-60.02,17.55-91.28"/>
		<linearGradient id="SVGID_3_" gradientUnits="userSpaceOnUse" x1="75.3257" y1="321.2248" x2="238.8603" y2="321.2248">
			<stop  offset="0.1126" style="stop-color:#FFFFFF"/>
			<stop  offset="0.3405" style="stop-color:#CAB3B3"/>
			<stop  offset="0.8646" style="stop-color:#60262D"/>
			<stop  offset="1" style="stop-color:#490D17"/>
		</linearGradient>
		<line class="st10" x1="75.33" y1="321.22" x2="238.86" y2="321.22"/>
	</g>
	<g>
		<g>
			<linearGradient id="SVGID_4_" gradientUnits="userSpaceOnUse" x1="405.5089" y1="260.6312" x2="515.6035" y2="260.6312">
				<stop  offset="0" style="stop-color:#E52421"/>
				<stop  offset="0.0245" style="stop-color:#E52320"/>
				<stop  offset="0.35" style="stop-color:#E41117"/>
				<stop  offset="0.6089" style="stop-color:#E30613"/>
			</linearGradient>
			<path class="st11" d="M421.23,244.94l61.99,15.69l-61.97,15.68l6.49-11.84l2.09-3.82l-2.09-3.82L421.23,244.94 M405.51,232.77
				l15.26,27.89l-15.26,27.84l110.09-27.86L405.51,232.77L405.51,232.77z"/>
		</g>
		<g>
			<linearGradient id="SVGID_5_" gradientUnits="userSpaceOnUse" x1="368.688" y1="260.6007" x2="414.3865" y2="260.6007">
				<stop  offset="0" style="stop-color:#E52421"/>
				<stop  offset="0.0245" style="stop-color:#E52320"/>
				<stop  offset="0.35" style="stop-color:#E41117"/>
				<stop  offset="0.6089" style="stop-color:#E30613"/>
			</linearGradient>
			<path class="st12" d="M384.41,234.42l7.64,1.93l13.28,24.27l-13.28,24.22l-7.62,1.93l12.24-22.33l2.09-3.82l-2.09-3.82
				L384.41,234.42 M368.69,222.24l21,38.39l-21,38.33l28.67-7.26l17.03-31.08l-17.03-31.13L368.69,222.24L368.69,222.24z"/>
		</g>
	</g>
</g>
<g id="Layer_5">
</g>
<g id="Layer_4">
	<g>
		<rect x="75.33" y="227.8" class="st2" width="300.56" height="77.86"/>
		<text transform="matrix(1 0 0 1 75.3258 292.688)" class="st3 st4 st5">SIRIUS</text>
		<text transform="matrix(1 0 0 1 246.7452 330.3043)" class="st0 st1">logistics</text>
		<g>
			<polygon class="st3" points="149.29,207.51 145.48,215.28 149.29,223.07 141.51,219.26 133.73,223.07 137.54,215.3 
				133.73,207.51 141.51,211.32 			"/>
		</g>
		<g>
			<polygon class="st3" points="239.29,207.51 235.48,215.28 239.29,223.07 231.51,219.26 223.73,223.07 227.54,215.3 
				223.73,207.51 231.51,211.32 			"/>
		</g>
	</g>
</g>
<g id="Layer_6">
	<linearGradient id="SVGID_6_" gradientUnits="userSpaceOnUse" x1="320.6738" y1="920.387" x2="418.1833" y2="920.387">
		<stop  offset="0.2793" style="stop-color:#FFFFFF"/>
		<stop  offset="0.3304" style="stop-color:#E8E8E8"/>
		<stop  offset="0.4343" style="stop-color:#BCBCBC"/>
		<stop  offset="0.5381" style="stop-color:#929292"/>
		<stop  offset="0.6395" style="stop-color:#6D6C6C"/>
		<stop  offset="0.7379" style="stop-color:#4D4D4C"/>
		<stop  offset="0.8325" style="stop-color:#343433"/>
		<stop  offset="0.9217" style="stop-color:#121212"/>
		<stop  offset="1" style="stop-color:#000000"/>
	</linearGradient>
	<polyline class="st13" points="415.95,901.85 400.61,846.39 384.43,904.05 328.89,920.36 384.43,936.68 400.61,994.34 
		415.79,938.85 	"/>
	<g>
		<g>
			<path class="st14" d="M416.59,905.41l43.66,14.98l-43.65,14.98l5.14-12.71l0.91-2.25l-0.91-2.25L416.59,905.41 M406.11,895.47
				l10.07,24.94l-10.07,24.9l72.62-24.92L406.11,895.47L406.11,895.47z"/>
		</g>
		<g>
			<path class="st14" d="M392.3,896l3.89,1.33l9.3,23.05l-9.3,23.01l-3.88,1.33l8.93-22.09l0.91-2.25l-0.91-2.25L392.3,896
				 M381.82,886.06l13.86,34.33l-13.86,34.28l18.91-6.49l11.23-27.79l-11.23-27.84L381.82,886.06L381.82,886.06z"/>
		</g>
	</g>
	<linearGradient id="SVGID_7_" gradientUnits="userSpaceOnUse" x1="88.1949" y1="981.3233" x2="251.7296" y2="981.3233">
		<stop  offset="0" style="stop-color:#FFFFFF"/>
		<stop  offset="0.091" style="stop-color:#EEEEF0"/>
		<stop  offset="0.2538" style="stop-color:#C4C5C7"/>
		<stop  offset="0.4696" style="stop-color:#868A8D"/>
		<stop  offset="0.7304" style="stop-color:#404A4D"/>
		<stop  offset="1" style="stop-color:#021616"/>
	</linearGradient>
	<line class="st15" x1="88.19" y1="981.32" x2="251.73" y2="981.32"/>
	<text transform="matrix(1 0 0 1 259.6145 990.4028)" class="st16 st0 st1">logistics</text>
	<path class="st16" d="M93.14,951.41c-0.25-4.81-0.59-8.74-1-11.78c6.21,2.82,11.84,4.23,16.91,4.23c2.03,0,3.92-0.31,5.68-0.93
		c1.76-0.62,3.06-1.49,3.9-2.61c0.84-1.12,1.26-2.38,1.26-3.78c0-1.08-0.2-2.04-0.61-2.9c-0.61-1.17-1.61-2.39-3.03-3.66
		c-1.81-1.74-5.04-4.61-9.69-8.6c-2.22-1.93-3.74-3.31-4.59-4.13c-1.9-1.8-3.36-3.43-4.37-4.87c-1.01-1.44-1.74-2.87-2.19-4.3
		c-0.44-1.43-0.67-2.95-0.67-4.56c0-2.98,0.83-5.77,2.49-8.38c1.66-2.61,4.15-4.66,7.46-6.13c3.31-1.47,7.48-2.21,12.52-2.21
		c4.53,0,9.63,0.55,15.3,1.66c0.16,3.29,0.48,7.06,0.95,11.31c-4.93-1.9-9.48-2.85-13.65-2.85c-3.1,0-5.63,0.71-7.61,2.11
		c-1.98,1.41-2.96,3.05-2.96,4.92c0,0.51,0.07,1.04,0.21,1.59c0.14,0.55,0.34,1.09,0.62,1.62s0.77,1.2,1.47,2.04
		c0.71,0.84,1.74,1.82,3.1,2.95c1.36,1.12,2.52,2.04,3.49,2.73l5.86,5.32c1.49,1.24,2.81,2.44,3.98,3.61
		c1.17,1.17,2.17,2.3,3.01,3.37c0.84,1.08,1.49,2.11,1.97,3.09c0.47,0.98,0.83,1.99,1.07,3.02c0.24,1.03,0.36,2.11,0.36,3.25
		c0,2.66-0.62,5.17-1.85,7.53c-1.24,2.36-3.01,4.3-5.32,5.82c-2.31,1.52-4.85,2.57-7.6,3.16c-2.76,0.58-5.67,0.88-8.74,0.88
		c-2.03,0-4.39-0.17-7.08-0.52C101.09,953.05,97.54,952.39,93.14,951.41z"/>
	<path class="st16" d="M144.78,952.79c0.76-10.89,1.37-22.07,1.84-33.51c0.47-11.45,0.71-20.2,0.71-26.25l-0.05-5.08l7.94,0.1
		c0.44,0,2.87-0.03,7.27-0.1c-1.29,16.66-2.11,38.27-2.46,64.84l-6.99-0.09C151.87,952.69,149.12,952.72,144.78,952.79z"/>
	<path class="st16" d="M173.18,952.79c0.95-9.44,1.67-20.28,2.15-32.54c0.48-12.26,0.72-23.02,0.72-32.3c3.8,0.06,6.98,0.1,9.55,0.1
		c2.75,0,5.45-0.05,8.1-0.14c2.64-0.09,5.44-0.14,8.38-0.14c3.67,0,6.96,0.21,9.85,0.62c2.9,0.41,5.47,1.36,7.72,2.85
		c2.25,1.49,3.92,3.29,5.01,5.42c1.09,2.12,1.64,4.59,1.64,7.41c0,1.77-0.21,3.46-0.62,5.06c-0.41,1.6-1.02,3.1-1.83,4.51
		s-1.77,2.64-2.87,3.71c-1.11,1.06-2.21,1.9-3.3,2.52c-1.09,0.62-2.34,1.15-3.73,1.59c-1.39,0.44-3.26,0.98-5.61,1.62l3.23,6.27
		c1.04,2,3.02,5.57,5.94,10.74l4.8,8.41c0.25,0.44,1.01,1.88,2.28,4.32c-3.87-0.06-6.43-0.09-7.67-0.09c-1.52,0-4.21,0.03-8.05,0.09
		l-5.26-12.64c-0.92-1.93-2.02-4.21-3.32-6.84l-5.74-11.54c-0.57-1.08-1.36-2.69-2.37-4.84c2.12,0.38,4.06,0.57,5.8,0.57
		c2.73,0,5.21-0.44,7.46-1.33c2.25-0.89,3.98-2.26,5.18-4.11c1.2-1.85,1.81-3.87,1.81-6.06c0-1.33-0.26-2.56-0.78-3.71
		c-0.52-1.14-1.4-2.11-2.64-2.9c-1.23-0.79-2.71-1.3-4.42-1.52c-1.71-0.22-3.42-0.33-5.13-0.33c-0.95,0-2.25,0.02-3.9,0.05
		c-1.65,0.03-3.67,0.05-6.08,0.05l-0.85,19.52l-0.9,35.63l-7.37-0.09C179.19,952.69,176.8,952.72,173.18,952.79z"/>
	<path class="st16" d="M234.75,952.79c0.76-10.89,1.37-22.07,1.84-33.51c0.47-11.45,0.71-20.2,0.71-26.25l-0.05-5.08l7.94,0.1
		c0.44,0,2.87-0.03,7.27-0.1c-1.29,16.66-2.11,38.27-2.46,64.84l-6.99-0.09C241.85,952.69,239.09,952.72,234.75,952.79z"/>
	<g>
		<polygon class="st16" points="253.51,869.83 249.51,877.51 253.14,885.38 245.45,881.38 237.58,885.01 241.58,877.33 
			237.96,869.46 245.65,873.45 		"/>
	</g>
	<g>
		<polygon class="st16" points="163.51,869.83 159.51,877.51 163.14,885.38 155.45,881.38 147.58,885.01 151.58,877.33 
			147.96,869.46 155.65,873.45 		"/>
	</g>
	<path class="st16" d="M334.65,951.41c-0.25-4.81-0.59-8.74-1-11.78c6.21,2.82,11.84,4.23,16.91,4.23c2.03,0,3.92-0.31,5.68-0.93
		c1.76-0.62,3.06-1.49,3.9-2.61s1.26-2.38,1.26-3.78c0-1.08-0.2-2.04-0.61-2.9c-0.61-1.17-1.61-2.39-3.03-3.66
		c-1.81-1.74-5.04-4.61-9.69-8.6c-2.22-1.93-3.75-3.31-4.59-4.13c-1.9-1.8-3.36-3.43-4.37-4.87c-1.01-1.44-1.74-2.87-2.19-4.3
		c-0.44-1.43-0.67-2.95-0.67-4.56c0-2.98,0.83-5.77,2.49-8.38c1.66-2.61,4.15-4.66,7.46-6.13s7.48-2.21,12.52-2.21
		c4.53,0,9.63,0.55,15.3,1.66c0.16,3.29,0.47,7.06,0.95,11.31c-4.93-1.9-9.48-2.85-13.66-2.85c-3.1,0-5.63,0.71-7.61,2.11
		s-2.96,3.05-2.96,4.92c0,0.51,0.07,1.04,0.21,1.59c0.14,0.55,0.34,1.09,0.62,1.62s0.77,1.2,1.47,2.04c0.71,0.84,1.74,1.82,3.1,2.95
		s2.52,2.04,3.49,2.73l5.86,5.32c1.48,1.24,2.81,2.44,3.98,3.61s2.17,2.3,3.01,3.37c0.84,1.08,1.49,2.11,1.97,3.09
		c0.47,0.98,0.83,1.99,1.07,3.02c0.24,1.03,0.36,2.11,0.36,3.25c0,2.66-0.62,5.17-1.85,7.53s-3.01,4.3-5.32,5.82
		c-2.31,1.52-4.85,2.57-7.6,3.16c-2.75,0.58-5.67,0.88-8.74,0.88c-2.03,0-4.39-0.17-7.08-0.52
		C342.6,953.05,339.05,952.39,334.65,951.41z"/>
	<path class="st16" d="M265.89,887.94c3.67,0.06,6.15,0.1,7.45,0.1c1.61,0,4.02-0.03,7.21-0.1l-2.24,38.34
		c-0.03,0.44-0.05,0.92-0.05,1.43c0,4.28,0.61,7.49,1.83,9.64c1.22,2.15,3.01,3.72,5.37,4.7c2.36,0.98,5.06,1.47,8.1,1.47
		c1.93,0,3.77-0.22,5.51-0.67c1.43-0.38,2.72-0.9,3.9-1.57c0.95-0.57,1.79-1.24,2.52-2c0.86-0.92,1.57-1.98,2.14-3.18
		c0.6-1.17,1.05-2.5,1.33-3.99c0.41-2.25,0.79-6.16,1.15-11.73l1.01-16.53c0.22-4.81,0.4-10.12,0.53-15.91
		c3.57,0.06,6.23,0.1,7.97,0.1l6.93-0.1l-1.47,22.9l-0.95,18.19c-0.29,4.24-0.73,7.41-1.33,9.5c-0.51,1.74-1.22,3.36-2.14,4.84
		c-0.89,1.33-1.95,2.52-3.18,3.56c-1.58,1.36-3.44,2.53-5.56,3.51c-2.38,1.11-4.89,1.92-7.55,2.42c-3.67,0.7-7.46,1.04-11.35,1.04
		c-3.99,0-7.73-0.36-11.21-1.09c-2.98-0.63-5.71-1.62-8.19-2.95c-2.49-1.33-4.46-2.82-5.92-4.47c-1.17-1.33-2.11-2.99-2.8-4.99
		c-0.79-2.22-1.19-4.69-1.19-7.41c0-0.95,0.03-2.18,0.1-3.68c0.06-1.5,0.18-3.44,0.34-5.82l0.43-6.7c0.16-2.09,0.34-5.16,0.53-9.22
		l0.48-10.31C265.68,894.48,265.79,891.36,265.89,887.94z"/>
</g>
<g id="Layer_7">
	<linearGradient id="SVGID_8_" gradientUnits="userSpaceOnUse" x1="332.4335" y1="1532.2012" x2="429.7892" y2="1532.2012">
		<stop  offset="0.2793" style="stop-color:#FFFFFF"/>
		<stop  offset="0.3978" style="stop-color:#D4C1C1"/>
		<stop  offset="0.6195" style="stop-color:#926566"/>
		<stop  offset="0.8006" style="stop-color:#683035"/>
		<stop  offset="0.9319" style="stop-color:#51161F"/>
		<stop  offset="1" style="stop-color:#490D17"/>
	</linearGradient>
	<polyline class="st17" points="427.59,1513.66 412.25,1458.21 396.07,1515.87 340.53,1532.18 396.07,1548.49 412.25,1606.15 
		427.43,1550.67 	"/>
	<g>
		<g>
			<linearGradient id="SVGID_9_" gradientUnits="userSpaceOnUse" x1="417.7489" y1="1532.2064" x2="490.373" y2="1532.2064">
				<stop  offset="0" style="stop-color:#E52421"/>
				<stop  offset="0.0245" style="stop-color:#E52320"/>
				<stop  offset="0.35" style="stop-color:#E41117"/>
				<stop  offset="0.6089" style="stop-color:#E30613"/>
			</linearGradient>
			<path class="st18" d="M426.48,1515.57l48.48,16.64l-48.48,16.64l5.96-14.74l0.76-1.87l-0.76-1.87L426.48,1515.57 M417.75,1507.28
				l10.07,24.94l-10.07,24.9l72.62-24.92L417.75,1507.28L417.75,1507.28z"/>
		</g>
		<g>
			<linearGradient id="SVGID_10_" gradientUnits="userSpaceOnUse" x1="393.46" y1="1532.1791" x2="423.605" y2="1532.1791">
				<stop  offset="0" style="stop-color:#E52421"/>
				<stop  offset="0.0245" style="stop-color:#E52320"/>
				<stop  offset="0.35" style="stop-color:#E41117"/>
				<stop  offset="0.6089" style="stop-color:#E30613"/>
			</linearGradient>
			<path class="st19" d="M402.19,1506.16l6.39,2.19l9.62,23.85l-9.62,23.81l-6.39,2.19l9.75-24.12l0.76-1.87l-0.76-1.87
				L402.19,1506.16 M393.46,1497.87l13.86,34.33l-13.86,34.28l18.91-6.49l11.23-27.79l-11.23-27.84L393.46,1497.87L393.46,1497.87z"
				/>
		</g>
	</g>
	<linearGradient id="SVGID_11_" gradientUnits="userSpaceOnUse" x1="99.8336" y1="1593.1378" x2="263.3683" y2="1593.1378">
		<stop  offset="0" style="stop-color:#FFFFFF"/>
		<stop  offset="0.087" style="stop-color:#F5F0F0"/>
		<stop  offset="0.2428" style="stop-color:#DAC9C9"/>
		<stop  offset="0.4493" style="stop-color:#B19191"/>
		<stop  offset="0.6987" style="stop-color:#814E51"/>
		<stop  offset="0.9818" style="stop-color:#4C111A"/>
		<stop  offset="1" style="stop-color:#490D17"/>
	</linearGradient>
	<line class="st20" x1="99.83" y1="1593.14" x2="263.37" y2="1593.14"/>
	<text transform="matrix(1 0 0 1 271.2532 1602.2173)" class="st0 st1">logistics</text>
	<path class="st3" d="M104.78,1563.22c-0.25-4.81-0.59-8.74-1-11.78c6.21,2.82,11.84,4.23,16.91,4.23c2.03,0,3.92-0.31,5.68-0.93
		c1.76-0.62,3.06-1.49,3.9-2.61c0.84-1.12,1.26-2.38,1.26-3.78c0-1.08-0.2-2.04-0.61-2.9c-0.61-1.17-1.61-2.39-3.03-3.66
		c-1.81-1.74-5.04-4.61-9.69-8.6c-2.22-1.93-3.74-3.31-4.59-4.13c-1.9-1.8-3.36-3.43-4.37-4.87c-1.01-1.44-1.74-2.87-2.19-4.3
		c-0.44-1.43-0.67-2.95-0.67-4.56c0-2.98,0.83-5.77,2.49-8.38c1.66-2.61,4.15-4.66,7.46-6.13c3.31-1.47,7.48-2.21,12.52-2.21
		c4.53,0,9.63,0.55,15.3,1.66c0.16,3.29,0.48,7.06,0.95,11.31c-4.93-1.9-9.48-2.85-13.65-2.85c-3.1,0-5.63,0.71-7.61,2.11
		c-1.98,1.41-2.96,3.05-2.96,4.92c0,0.51,0.07,1.04,0.21,1.59c0.14,0.55,0.34,1.09,0.62,1.62s0.77,1.2,1.47,2.04
		c0.71,0.84,1.74,1.82,3.1,2.95c1.36,1.12,2.52,2.04,3.49,2.73l5.86,5.32c1.49,1.24,2.81,2.44,3.98,3.61s2.17,2.3,3.01,3.37
		c0.84,1.08,1.49,2.11,1.97,3.09c0.47,0.98,0.83,1.99,1.07,3.02c0.24,1.03,0.36,2.11,0.36,3.25c0,2.66-0.62,5.17-1.85,7.53
		c-1.24,2.36-3.01,4.3-5.32,5.82c-2.31,1.52-4.85,2.57-7.6,3.16c-2.76,0.58-5.67,0.88-8.74,0.88c-2.03,0-4.39-0.17-7.08-0.52
		C112.73,1564.87,109.18,1564.21,104.78,1563.22z"/>
	<path class="st3" d="M156.41,1564.6c0.76-10.89,1.37-22.07,1.84-33.51c0.47-11.45,0.71-20.2,0.71-26.25l-0.05-5.08l7.94,0.1
		c0.44,0,2.87-0.03,7.27-0.1c-1.29,16.66-2.11,38.27-2.46,64.84l-6.99-0.09C163.51,1564.51,160.76,1564.54,156.41,1564.6z"/>
	<path class="st3" d="M184.82,1564.6c0.95-9.44,1.67-20.28,2.15-32.54c0.48-12.26,0.72-23.02,0.72-32.3c3.8,0.06,6.98,0.1,9.55,0.1
		c2.75,0,5.45-0.05,8.1-0.14c2.64-0.09,5.44-0.14,8.38-0.14c3.67,0,6.96,0.21,9.85,0.62c2.9,0.41,5.47,1.36,7.72,2.85
		c2.25,1.49,3.92,3.29,5.01,5.42c1.09,2.12,1.64,4.59,1.64,7.41c0,1.77-0.21,3.46-0.62,5.06c-0.41,1.6-1.02,3.1-1.83,4.51
		s-1.77,2.64-2.87,3.71c-1.11,1.06-2.21,1.9-3.3,2.52c-1.09,0.62-2.34,1.15-3.73,1.59c-1.39,0.44-3.26,0.98-5.61,1.62l3.23,6.27
		c1.04,2,3.02,5.57,5.94,10.74l4.8,8.41c0.25,0.44,1.01,1.88,2.28,4.32c-3.87-0.06-6.43-0.09-7.67-0.09c-1.52,0-4.21,0.03-8.05,0.09
		l-5.26-12.64c-0.92-1.93-2.02-4.21-3.32-6.84l-5.74-11.54c-0.57-1.08-1.36-2.69-2.37-4.84c2.12,0.38,4.06,0.57,5.8,0.57
		c2.73,0,5.21-0.44,7.46-1.33c2.25-0.89,3.98-2.26,5.18-4.11c1.2-1.85,1.81-3.87,1.81-6.06c0-1.33-0.26-2.56-0.78-3.71
		c-0.52-1.14-1.4-2.11-2.64-2.9c-1.23-0.79-2.71-1.3-4.42-1.52c-1.71-0.22-3.42-0.33-5.13-0.33c-0.95,0-2.25,0.02-3.9,0.05
		c-1.65,0.03-3.67,0.05-6.08,0.05l-0.85,19.52l-0.9,35.63l-7.37-0.09C190.83,1564.51,188.44,1564.54,184.82,1564.6z"/>
	<path class="st3" d="M246.39,1564.6c0.76-10.89,1.37-22.07,1.84-33.51c0.47-11.45,0.71-20.2,0.71-26.25l-0.05-5.08l7.94,0.1
		c0.44,0,2.87-0.03,7.27-0.1c-1.29,16.66-2.11,38.27-2.46,64.84l-6.99-0.09C253.49,1564.51,250.73,1564.54,246.39,1564.6z"/>
	<g>
		<polygon class="st3" points="265.15,1481.65 261.15,1489.32 264.77,1497.2 257.09,1493.2 249.22,1496.82 253.22,1489.14 
			249.6,1481.27 257.28,1485.27 		"/>
	</g>
	<g>
		<polygon class="st3" points="175.15,1481.65 171.15,1489.32 174.77,1497.2 167.09,1493.2 159.22,1496.82 163.22,1489.14 
			159.6,1481.27 167.28,1485.27 		"/>
	</g>
	<path class="st3" d="M346.29,1563.22c-0.25-4.81-0.59-8.74-1-11.78c6.21,2.82,11.84,4.23,16.91,4.23c2.03,0,3.92-0.31,5.68-0.93
		c1.76-0.62,3.06-1.49,3.9-2.61s1.26-2.38,1.26-3.78c0-1.08-0.2-2.04-0.61-2.9c-0.61-1.17-1.61-2.39-3.03-3.66
		c-1.81-1.74-5.04-4.61-9.69-8.6c-2.22-1.93-3.75-3.31-4.59-4.13c-1.9-1.8-3.36-3.43-4.37-4.87c-1.01-1.44-1.74-2.87-2.19-4.3
		c-0.44-1.43-0.67-2.95-0.67-4.56c0-2.98,0.83-5.77,2.49-8.38c1.66-2.61,4.15-4.66,7.46-6.13s7.48-2.21,12.52-2.21
		c4.53,0,9.63,0.55,15.3,1.66c0.16,3.29,0.47,7.06,0.95,11.31c-4.93-1.9-9.48-2.85-13.66-2.85c-3.1,0-5.63,0.71-7.61,2.11
		s-2.96,3.05-2.96,4.92c0,0.51,0.07,1.04,0.21,1.59c0.14,0.55,0.34,1.09,0.62,1.62s0.77,1.2,1.47,2.04c0.71,0.84,1.74,1.82,3.1,2.95
		s2.52,2.04,3.49,2.73l5.86,5.32c1.48,1.24,2.81,2.44,3.98,3.61s2.17,2.3,3.01,3.37c0.84,1.08,1.49,2.11,1.97,3.09
		c0.47,0.98,0.83,1.99,1.07,3.02c0.24,1.03,0.36,2.11,0.36,3.25c0,2.66-0.62,5.17-1.85,7.53s-3.01,4.3-5.32,5.82
		c-2.31,1.52-4.85,2.57-7.6,3.16c-2.75,0.58-5.67,0.88-8.74,0.88c-2.03,0-4.39-0.17-7.08-0.52
		C354.24,1564.87,350.69,1564.21,346.29,1563.22z"/>
	<path class="st3" d="M277.53,1499.76c3.67,0.06,6.15,0.1,7.45,0.1c1.61,0,4.02-0.03,7.21-0.1l-2.24,38.34
		c-0.03,0.44-0.05,0.92-0.05,1.43c0,4.28,0.61,7.49,1.83,9.64c1.22,2.15,3.01,3.72,5.37,4.7c2.36,0.98,5.06,1.47,8.1,1.47
		c1.93,0,3.77-0.22,5.51-0.67c1.43-0.38,2.72-0.9,3.9-1.57c0.95-0.57,1.79-1.24,2.52-2c0.86-0.92,1.57-1.98,2.14-3.18
		c0.6-1.17,1.05-2.5,1.33-3.99c0.41-2.25,0.79-6.16,1.15-11.73l1.01-16.53c0.22-4.81,0.4-10.12,0.53-15.91
		c3.57,0.06,6.23,0.1,7.97,0.1l6.93-0.1l-1.47,22.9l-0.95,18.19c-0.29,4.24-0.73,7.41-1.33,9.5c-0.51,1.74-1.22,3.36-2.14,4.84
		c-0.89,1.33-1.95,2.52-3.18,3.56c-1.58,1.36-3.44,2.53-5.56,3.51c-2.38,1.11-4.89,1.92-7.55,2.42c-3.67,0.7-7.46,1.04-11.35,1.04
		c-3.99,0-7.73-0.36-11.21-1.09c-2.98-0.63-5.71-1.62-8.19-2.95c-2.49-1.33-4.46-2.82-5.92-4.47c-1.17-1.33-2.11-2.99-2.8-4.99
		c-0.79-2.22-1.19-4.69-1.19-7.41c0-0.95,0.03-2.18,0.1-3.68c0.06-1.5,0.18-3.44,0.34-5.82l0.43-6.7c0.16-2.09,0.34-5.16,0.53-9.22
		l0.48-10.31C277.32,1506.3,277.43,1503.18,277.53,1499.76z"/>
</g>
<g id="Layer_8">
	<linearGradient id="SVGID_12_" gradientUnits="userSpaceOnUse" x1="336.379" y1="2108.6821" x2="433.7347" y2="2108.6821">
		<stop  offset="0.2793" style="stop-color:#FFFFFF"/>
		<stop  offset="0.3978" style="stop-color:#D4C1C1"/>
		<stop  offset="0.6195" style="stop-color:#926566"/>
		<stop  offset="0.8006" style="stop-color:#683035"/>
		<stop  offset="0.9319" style="stop-color:#51161F"/>
		<stop  offset="1" style="stop-color:#490D17"/>
	</linearGradient>
	<polyline class="st21" points="431.53,2090.14 416.2,2034.69 400.01,2092.35 344.48,2108.66 400.01,2124.97 416.2,2182.63 
		431.37,2127.15 	"/>
	<g>
		<g>
			<linearGradient id="SVGID_13_" gradientUnits="userSpaceOnUse" x1="421.6944" y1="2108.6873" x2="494.3185" y2="2108.6873">
				<stop  offset="0" style="stop-color:#E52421"/>
				<stop  offset="0.0245" style="stop-color:#E52320"/>
				<stop  offset="0.35" style="stop-color:#E41117"/>
				<stop  offset="0.6089" style="stop-color:#E30613"/>
			</linearGradient>
			<path class="st22" d="M430.43,2092.05l48.48,16.64l-48.48,16.64l5.96-14.74l0.76-1.87l-0.76-1.87L430.43,2092.05 M421.69,2083.77
				l10.07,24.94l-10.07,24.9l72.62-24.92L421.69,2083.77L421.69,2083.77z"/>
		</g>
		<g>
			<linearGradient id="SVGID_14_" gradientUnits="userSpaceOnUse" x1="397.4055" y1="2108.6599" x2="427.5505" y2="2108.6599">
				<stop  offset="0" style="stop-color:#E52421"/>
				<stop  offset="0.0245" style="stop-color:#E52320"/>
				<stop  offset="0.35" style="stop-color:#E41117"/>
				<stop  offset="0.6089" style="stop-color:#E30613"/>
			</linearGradient>
			<path class="st23" d="M406.14,2082.64l6.39,2.19l9.62,23.85l-9.62,23.81l-6.39,2.19l9.75-24.12l0.76-1.87l-0.76-1.87
				L406.14,2082.64 M397.41,2074.35l13.86,34.33l-13.86,34.28l18.91-6.49l11.23-27.79l-11.23-27.84L397.41,2074.35L397.41,2074.35z"
				/>
		</g>
	</g>
	<linearGradient id="SVGID_15_" gradientUnits="userSpaceOnUse" x1="103.7792" y1="2169.6187" x2="267.3138" y2="2169.6187">
		<stop  offset="0" style="stop-color:#FFFFFF"/>
		<stop  offset="0.087" style="stop-color:#F5F0F0"/>
		<stop  offset="0.2428" style="stop-color:#DAC9C9"/>
		<stop  offset="0.4493" style="stop-color:#B19191"/>
		<stop  offset="0.6987" style="stop-color:#814E51"/>
		<stop  offset="0.9818" style="stop-color:#4C111A"/>
		<stop  offset="1" style="stop-color:#490D17"/>
	</linearGradient>
	<line class="st24" x1="103.78" y1="2169.62" x2="267.31" y2="2169.62"/>
	<text transform="matrix(1 0 0 1 275.1987 2178.6982)" class="st0 st1">logistics</text>
	<path class="st3" d="M108.72,2139.7c-0.25-4.81-0.59-8.74-1-11.78c6.21,2.82,11.84,4.23,16.91,4.23c2.03,0,3.92-0.31,5.68-0.93
		c1.76-0.62,3.06-1.49,3.9-2.61c0.84-1.12,1.26-2.38,1.26-3.78c0-1.08-0.2-2.04-0.61-2.9c-0.61-1.17-1.61-2.39-3.03-3.66
		c-1.81-1.74-5.04-4.61-9.69-8.6c-2.22-1.93-3.74-3.31-4.59-4.13c-1.9-1.8-3.36-3.43-4.37-4.87c-1.01-1.44-1.74-2.87-2.19-4.3
		c-0.44-1.43-0.67-2.95-0.67-4.56c0-2.98,0.83-5.77,2.49-8.38c1.66-2.61,4.15-4.66,7.46-6.13c3.31-1.47,7.48-2.21,12.52-2.21
		c4.53,0,9.63,0.55,15.3,1.66c0.16,3.29,0.48,7.06,0.95,11.31c-4.93-1.9-9.48-2.85-13.65-2.85c-3.1,0-5.63,0.71-7.61,2.11
		c-1.98,1.41-2.96,3.05-2.96,4.92c0,0.51,0.07,1.04,0.21,1.59c0.14,0.55,0.34,1.09,0.62,1.62s0.77,1.2,1.47,2.04
		c0.71,0.84,1.74,1.82,3.1,2.95c1.36,1.12,2.52,2.04,3.49,2.73l5.86,5.32c1.49,1.24,2.81,2.44,3.98,3.61s2.17,2.3,3.01,3.37
		c0.84,1.08,1.49,2.11,1.97,3.09c0.47,0.98,0.83,1.99,1.07,3.02c0.24,1.03,0.36,2.11,0.36,3.25c0,2.66-0.62,5.17-1.85,7.53
		c-1.24,2.36-3.01,4.3-5.32,5.82c-2.31,1.52-4.85,2.57-7.6,3.16c-2.76,0.58-5.67,0.88-8.74,0.88c-2.03,0-4.39-0.17-7.08-0.52
		C116.67,2141.35,113.12,2140.69,108.72,2139.7z"/>
	<path class="st3" d="M160.36,2141.08c0.76-10.89,1.37-22.07,1.84-33.51c0.47-11.45,0.71-20.2,0.71-26.25l-0.05-5.08l7.94,0.1
		c0.44,0,2.87-0.03,7.27-0.1c-1.29,16.66-2.11,38.27-2.46,64.84l-6.99-0.09C167.46,2140.99,164.7,2141.02,160.36,2141.08z"/>
	<path class="st3" d="M188.77,2141.08c0.95-9.44,1.67-20.28,2.15-32.54c0.48-12.26,0.72-23.02,0.72-32.3c3.8,0.06,6.98,0.1,9.55,0.1
		c2.75,0,5.45-0.05,8.1-0.14c2.64-0.09,5.44-0.14,8.38-0.14c3.67,0,6.96,0.21,9.85,0.62c2.9,0.41,5.47,1.36,7.72,2.85
		c2.25,1.49,3.92,3.29,5.01,5.42c1.09,2.12,1.64,4.59,1.64,7.41c0,1.77-0.21,3.46-0.62,5.06c-0.41,1.6-1.02,3.1-1.83,4.51
		s-1.77,2.64-2.87,3.71c-1.11,1.06-2.21,1.9-3.3,2.52c-1.09,0.62-2.34,1.15-3.73,1.59c-1.39,0.44-3.26,0.98-5.61,1.62l3.23,6.27
		c1.04,2,3.02,5.57,5.94,10.74l4.8,8.41c0.25,0.44,1.01,1.88,2.28,4.32c-3.87-0.06-6.43-0.09-7.67-0.09c-1.52,0-4.21,0.03-8.05,0.09
		l-5.26-12.64c-0.92-1.93-2.02-4.21-3.32-6.84l-5.74-11.54c-0.57-1.08-1.36-2.69-2.37-4.84c2.12,0.38,4.06,0.57,5.8,0.57
		c2.73,0,5.21-0.44,7.46-1.33c2.25-0.89,3.98-2.26,5.18-4.11c1.2-1.85,1.81-3.87,1.81-6.06c0-1.33-0.26-2.56-0.78-3.71
		c-0.52-1.14-1.4-2.11-2.64-2.9c-1.23-0.79-2.71-1.3-4.42-1.52c-1.71-0.22-3.42-0.33-5.13-0.33c-0.95,0-2.25,0.02-3.9,0.05
		c-1.65,0.03-3.67,0.05-6.08,0.05l-0.85,19.52l-0.9,35.63l-7.37-0.09C194.77,2140.99,192.38,2141.02,188.77,2141.08z"/>
	<path class="st3" d="M250.33,2141.08c0.76-10.89,1.37-22.07,1.84-33.51c0.47-11.45,0.71-20.2,0.71-26.25l-0.05-5.08l7.94,0.1
		c0.44,0,2.87-0.03,7.27-0.1c-1.29,16.66-2.11,38.27-2.46,64.84l-6.99-0.09C257.43,2140.99,254.67,2141.02,250.33,2141.08z"/>
	<g>
		<polygon class="st3" points="269.1,2058.13 265.1,2065.8 268.72,2073.68 261.03,2069.68 253.17,2073.3 257.17,2065.62 
			253.54,2057.75 261.23,2061.75 		"/>
	</g>
	<g>
		<polygon class="st3" points="179.1,2058.13 175.1,2065.8 178.72,2073.68 171.03,2069.68 163.17,2073.3 167.17,2065.62 
			163.54,2057.75 171.23,2061.75 		"/>
	</g>
	<path class="st3" d="M350.23,2139.7c-0.25-4.81-0.59-8.74-1-11.78c6.21,2.82,11.84,4.23,16.91,4.23c2.03,0,3.92-0.31,5.68-0.93
		c1.76-0.62,3.06-1.49,3.9-2.61s1.26-2.38,1.26-3.78c0-1.08-0.2-2.04-0.61-2.9c-0.61-1.17-1.61-2.39-3.03-3.66
		c-1.81-1.74-5.04-4.61-9.69-8.6c-2.22-1.93-3.75-3.31-4.59-4.13c-1.9-1.8-3.36-3.43-4.37-4.87c-1.01-1.44-1.74-2.87-2.19-4.3
		c-0.44-1.43-0.67-2.95-0.67-4.56c0-2.98,0.83-5.77,2.49-8.38c1.66-2.61,4.15-4.66,7.46-6.13s7.48-2.21,12.52-2.21
		c4.53,0,9.63,0.55,15.3,1.66c0.16,3.29,0.47,7.06,0.95,11.31c-4.93-1.9-9.48-2.85-13.66-2.85c-3.1,0-5.63,0.71-7.61,2.11
		s-2.96,3.05-2.96,4.92c0,0.51,0.07,1.04,0.21,1.59c0.14,0.55,0.34,1.09,0.62,1.62s0.77,1.2,1.47,2.04c0.71,0.84,1.74,1.82,3.1,2.95
		s2.52,2.04,3.49,2.73l5.86,5.32c1.48,1.24,2.81,2.44,3.98,3.61s2.17,2.3,3.01,3.37c0.84,1.08,1.49,2.11,1.97,3.09
		c0.47,0.98,0.83,1.99,1.07,3.02c0.24,1.03,0.36,2.11,0.36,3.25c0,2.66-0.62,5.17-1.85,7.53s-3.01,4.3-5.32,5.82
		c-2.31,1.52-4.85,2.57-7.6,3.16c-2.75,0.58-5.67,0.88-8.74,0.88c-2.03,0-4.39-0.17-7.08-0.52
		C358.18,2141.35,354.64,2140.69,350.23,2139.7z"/>
	<path class="st3" d="M281.47,2076.24c3.67,0.06,6.15,0.1,7.45,0.1c1.61,0,4.02-0.03,7.21-0.1l-2.24,38.34
		c-0.03,0.44-0.05,0.92-0.05,1.43c0,4.28,0.61,7.49,1.83,9.64c1.22,2.15,3.01,3.72,5.37,4.7c2.36,0.98,5.06,1.47,8.1,1.47
		c1.93,0,3.77-0.22,5.51-0.67c1.43-0.38,2.72-0.9,3.9-1.57c0.95-0.57,1.79-1.24,2.52-2c0.86-0.92,1.57-1.98,2.14-3.18
		c0.6-1.17,1.05-2.5,1.33-3.99c0.41-2.25,0.79-6.16,1.15-11.73l1.01-16.53c0.22-4.81,0.4-10.12,0.53-15.91
		c3.57,0.06,6.23,0.1,7.97,0.1l6.93-0.1l-1.47,22.9l-0.95,18.19c-0.29,4.24-0.73,7.41-1.33,9.5c-0.51,1.74-1.22,3.36-2.14,4.84
		c-0.89,1.33-1.95,2.52-3.18,3.56c-1.58,1.36-3.44,2.53-5.56,3.51c-2.38,1.11-4.89,1.92-7.55,2.42c-3.67,0.7-7.46,1.04-11.35,1.04
		c-3.99,0-7.73-0.36-11.21-1.09c-2.98-0.63-5.71-1.62-8.19-2.95c-2.49-1.33-4.46-2.82-5.92-4.47c-1.17-1.33-2.11-2.99-2.8-4.99
		c-0.79-2.22-1.19-4.69-1.19-7.41c0-0.95,0.03-2.18,0.1-3.68c0.06-1.5,0.18-3.44,0.34-5.82l0.43-6.7c0.16-2.09,0.34-5.16,0.53-9.22
		l0.48-10.31C281.26,2082.78,281.38,2079.66,281.47,2076.24z"/>
</g>
<g id="Layer_9">
	<g>
		<linearGradient id="SVGID_16_" gradientUnits="userSpaceOnUse" x1="-324.5469" y1="-344.6205" x2="-238.7169" y2="-344.6205">
			<stop  offset="0.1126" style="stop-color:#FFFFFF"/>
			<stop  offset="0.3619" style="stop-color:#BBA9A9"/>
			<stop  offset="0.9359" style="stop-color:#3B181B"/>
			<stop  offset="1" style="stop-color:#300E10"/>
		</linearGradient>
		<path class="st25" d="M-241.33-366.4c-3.46-17.98-6.91-35.95-10.37-53.93c-2.18-11.33-4.36-22.67-6.54-34
			c0,0-17.72,92.13-18.07,93.98l-44.24,7.88l17.9,18.89l26.34,4.69c0.35,1.84,18.07,93.98,18.07,93.98s11.54-60.02,17.55-91.28"/>
		<linearGradient id="SVGID_17_" gradientUnits="userSpaceOnUse" x1="-581.908" y1="-284.0268" x2="-418.3734" y2="-284.0268">
			<stop  offset="0.1126" style="stop-color:#FFFFFF"/>
			<stop  offset="0.3619" style="stop-color:#BBA9A9"/>
			<stop  offset="0.9359" style="stop-color:#3B181B"/>
			<stop  offset="1" style="stop-color:#300E10"/>
		</linearGradient>
		<line class="st26" x1="-581.91" y1="-284.03" x2="-418.37" y2="-284.03"/>
	</g>
	<g>
		<rect x="-581.91" y="-377.45" class="st2" width="300.56" height="77.86"/>
		<text transform="matrix(1 0 0 1 -581.9079 -312.5634)" class="st27 st4 st5">SIRIUS</text>
		<text transform="matrix(1 0 0 1 -410.4885 -274.9472)" class="st27 st0 st1">logistics</text>
		<g>
			<polygon class="st27" points="-507.94,-397.74 -511.76,-389.97 -507.94,-382.18 -515.73,-385.99 -523.5,-382.18 -519.69,-389.96 
				-523.5,-397.74 -515.72,-393.93 			"/>
		</g>
		<g>
			<polygon class="st27" points="-417.94,-397.74 -421.76,-389.97 -417.94,-382.18 -425.73,-385.99 -433.5,-382.18 -429.69,-389.96 
				-433.5,-397.74 -425.72,-393.93 			"/>
		</g>
	</g>
	<g>
		<g>
			<path class="st28" d="M-237.88-361.76l67.72,17.14l-67.7,17.14l7.54-13.75l1.84-3.36l-1.84-3.36L-237.88-361.76 M-251.72-372.49
				l15.26,27.89l-15.26,27.84l110.09-27.86L-251.72-372.49L-251.72-372.49z"/>
		</g>
		<g>
			<path class="st28" d="M-274.7-372.28l10.14,2.57l13.73,25.09l-13.72,25.04l-10.13,2.56l13.28-24.23l1.84-3.36l-1.84-3.36
				L-274.7-372.28 M-288.55-383.01l21,38.39l-21,38.33l28.67-7.26l17.03-31.08l-17.03-31.13L-288.55-383.01L-288.55-383.01z"/>
		</g>
	</g>
	<rect x="-623.68" y="-613.68" class="st29" width="31.4" height="31.4"/>
	<rect x="-583.68" y="-613.68" class="st27" width="31.4" height="31.4"/>
	<rect x="-543.68" y="-613.68" class="st30" width="31.4" height="31.4"/>
</g>
<g id="Layer_10">
	<g>
		<linearGradient id="SVGID_18_" gradientUnits="userSpaceOnUse" x1="315.382" y1="-344.6205" x2="401.212" y2="-344.6205">
			<stop  offset="0" style="stop-color:#FFFFFF"/>
			<stop  offset="0.3057" style="stop-color:#FFF5D1"/>
			<stop  offset="1" style="stop-color:#FEDB39"/>
		</linearGradient>
		<path class="st31" d="M398.6-366.4c-3.46-17.98-6.91-35.95-10.37-53.93c-2.18-11.33-4.36-22.67-6.54-34
			c0,0-17.72,92.13-18.07,93.98l-44.24,7.88l17.9,18.89l26.34,4.69c0.35,1.84,18.07,93.98,18.07,93.98s11.54-60.02,17.55-91.28"/>
		<linearGradient id="SVGID_19_" gradientUnits="userSpaceOnUse" x1="58.0209" y1="-284.0268" x2="221.5556" y2="-284.0268">
			<stop  offset="0" style="stop-color:#FFFFFF"/>
			<stop  offset="0.3057" style="stop-color:#FFF5D1"/>
			<stop  offset="1" style="stop-color:#FEDB39"/>
		</linearGradient>
		<line class="st32" x1="58.02" y1="-284.03" x2="221.56" y2="-284.03"/>
	</g>
	<g>
		<rect x="58.02" y="-377.45" class="st2" width="300.56" height="77.86"/>
		<text transform="matrix(1 0 0 1 58.0211 -312.5634)" class="st33 st4 st5">SIRIUS</text>
		<text transform="matrix(1 0 0 1 229.4405 -274.9472)" class="st33 st0 st1">logistics</text>
		<g>
			<polygon class="st33" points="131.98,-397.74 128.17,-389.97 131.98,-382.18 124.2,-385.99 116.43,-382.18 120.24,-389.96 
				116.43,-397.74 124.21,-393.93 			"/>
		</g>
		<g>
			<polygon class="st33" points="221.98,-397.74 218.17,-389.97 221.98,-382.18 214.2,-385.99 206.43,-382.18 210.24,-389.96 
				206.43,-397.74 214.21,-393.93 			"/>
		</g>
	</g>
	<g>
		<g>
			<path class="st34" d="M402.05-361.76l67.72,17.14l-67.7,17.14l7.54-13.75l1.84-3.36l-1.84-3.36L402.05-361.76 M388.2-372.49
				l15.26,27.89l-15.26,27.84l110.09-27.86L388.2-372.49L388.2-372.49z"/>
		</g>
		<g>
			<path class="st34" d="M365.23-372.28l10.14,2.57l13.73,25.09l-13.72,25.04l-10.13,2.56l13.28-24.23l1.84-3.36l-1.84-3.36
				L365.23-372.28 M351.38-383.01l21,38.39l-21,38.33l28.67-7.26l17.03-31.08l-17.03-31.13L351.38-383.01L351.38-383.01z"/>
		</g>
	</g>
	<rect x="20.58" y="-613.68" class="st33" width="31.4" height="31.4"/>
	<rect x="60.58" y="-613.68" class="st34" width="31.4" height="31.4"/>
	<rect x="100.58" y="-613.68" class="st35" width="31.4" height="31.4"/>
</g>
<g id="Layer_11">
	<g>
		<linearGradient id="SVGID_20_" gradientUnits="userSpaceOnUse" x1="942.1409" y1="-344.6205" x2="1027.9709" y2="-344.6205">
			<stop  offset="0.1126" style="stop-color:#FFFFFF"/>
			<stop  offset="0.3911" style="stop-color:#BABBC3"/>
			<stop  offset="1" style="stop-color:#334756"/>
		</linearGradient>
		<path class="st36" d="M1025.36-366.4c-3.46-17.98-6.91-35.95-10.37-53.93c-2.18-11.33-4.36-22.67-6.54-34
			c0,0-17.72,92.13-18.07,93.98l-44.24,7.88l17.9,18.89l26.34,4.69c0.35,1.84,18.07,93.98,18.07,93.98s11.54-60.02,17.55-91.28"/>
		<linearGradient id="SVGID_21_" gradientUnits="userSpaceOnUse" x1="684.7798" y1="-284.0268" x2="848.3145" y2="-284.0268">
			<stop  offset="0.1126" style="stop-color:#FFFFFF"/>
			<stop  offset="0.3911" style="stop-color:#BABBC3"/>
			<stop  offset="1" style="stop-color:#334756"/>
		</linearGradient>
		<line class="st37" x1="684.78" y1="-284.03" x2="848.31" y2="-284.03"/>
	</g>
	<g>
		<g>
			<path class="st38" d="M1028.81-361.76l67.72,17.14l-67.7,17.14l7.54-13.75l1.84-3.36l-1.84-3.36L1028.81-361.76 M1014.96-372.49
				l15.26,27.89l-15.26,27.84l110.09-27.86L1014.96-372.49L1014.96-372.49z"/>
		</g>
		<g>
			<path class="st38" d="M991.99-372.28l10.14,2.57l13.73,25.09l-13.72,25.04L992-317.02l13.28-24.23l1.84-3.36l-1.84-3.36
				L991.99-372.28 M978.14-383.01l21,38.39l-21,38.33l28.67-7.26l17.03-31.08l-17.03-31.13L978.14-383.01L978.14-383.01z"/>
		</g>
	</g>
	<g>
		<rect x="684.78" y="-377.45" class="st2" width="300.56" height="77.86"/>
		<text transform="matrix(1 0 0 1 684.78 -312.5634)" class="st39 st4 st5">SIRIUS</text>
		<text transform="matrix(1 0 0 1 856.1994 -274.9472)" class="st39 st0 st1">logistics</text>
		<g>
			<polygon class="st39" points="758.74,-397.74 754.93,-389.97 758.74,-382.18 750.96,-385.99 743.19,-382.18 747,-389.96 
				743.19,-397.74 750.97,-393.93 			"/>
		</g>
		<g>
			<polygon class="st39" points="848.74,-397.74 844.93,-389.97 848.74,-382.18 840.96,-385.99 833.19,-382.18 837,-389.96 
				833.19,-397.74 840.97,-393.93 			"/>
		</g>
	</g>
	<rect x="650.58" y="-613.68" class="st39" width="31.4" height="31.4"/>
	<rect x="690.58" y="-613.68" class="st40" width="31.4" height="31.4"/>
	<g>
		<rect x="730.58" y="-613.68" class="st38" width="31.4" height="31.4"/>
	</g>
</g>
<g id="Layer_12">
	<g>
		<linearGradient id="SVGID_22_" gradientUnits="userSpaceOnUse" x1="1561.446" y1="-344.6508" x2="1647.276" y2="-344.6508">
			<stop  offset="0" style="stop-color:#FFFFFF"/>
			<stop  offset="0.0197" style="stop-color:#FCFDF9"/>
			<stop  offset="0.1814" style="stop-color:#E4EDC9"/>
			<stop  offset="0.3409" style="stop-color:#CFE09A"/>
			<stop  offset="0.4941" style="stop-color:#BCD470"/>
			<stop  offset="0.64" style="stop-color:#ACCB4E"/>
			<stop  offset="0.7766" style="stop-color:#A0C636"/>
			<stop  offset="0.9004" style="stop-color:#98C226"/>
			<stop  offset="1" style="stop-color:#95C11F"/>
		</linearGradient>
		<path class="st41" d="M1644.67-366.43c-3.46-17.98-6.91-35.95-10.37-53.93c-2.18-11.33-4.36-22.67-6.54-34
			c0,0-17.72,92.13-18.07,93.98l-44.24,7.88l17.9,18.89l26.34,4.69c0.35,1.84,18.07,93.98,18.07,93.98s11.54-60.02,17.55-91.28"/>
		<linearGradient id="SVGID_23_" gradientUnits="userSpaceOnUse" x1="1304.085" y1="-284.0571" x2="1467.6196" y2="-284.0571">
			<stop  offset="0" style="stop-color:#FFFFFF"/>
			<stop  offset="0.0197" style="stop-color:#FCFDF9"/>
			<stop  offset="0.1814" style="stop-color:#E4EDC9"/>
			<stop  offset="0.3409" style="stop-color:#CFE09A"/>
			<stop  offset="0.4941" style="stop-color:#BCD470"/>
			<stop  offset="0.64" style="stop-color:#ACCB4E"/>
			<stop  offset="0.7766" style="stop-color:#A0C636"/>
			<stop  offset="0.9004" style="stop-color:#98C226"/>
			<stop  offset="1" style="stop-color:#95C11F"/>
		</linearGradient>
		<line class="st42" x1="1304.08" y1="-284.06" x2="1467.62" y2="-284.06"/>
	</g>
	<g>
		<g>
			<path class="st43" d="M1648.12-361.79l67.72,17.14l-67.7,17.14l7.54-13.75l1.84-3.36l-1.84-3.36L1648.12-361.79 M1634.27-372.52
				l15.26,27.89l-15.26,27.84l110.09-27.86L1634.27-372.52L1634.27-372.52z"/>
		</g>
		<g>
			<path class="st43" d="M1611.3-372.31l10.14,2.57l13.73,25.09l-13.72,25.04l-10.13,2.56l13.28-24.23l1.84-3.36l-1.84-3.36
				L1611.3-372.31 M1597.45-383.04l21,38.39l-21,38.33l28.67-7.26l17.03-31.08l-17.03-31.13L1597.45-383.04L1597.45-383.04z"/>
		</g>
	</g>
	<g>
		<rect x="1304.08" y="-377.48" class="st2" width="300.56" height="77.86"/>
		<text transform="matrix(1 0 0 1 1304.0851 -312.5937)" class="st44 st4 st5">SIRIUS</text>
		<text transform="matrix(1 0 0 1 1475.5045 -274.9775)" class="st44 st0 st1">logistics</text>
		<g>
			<polygon class="st44" points="1378.05,-397.77 1374.24,-390 1378.05,-382.21 1370.27,-386.02 1362.49,-382.21 1366.3,-389.99 
				1362.49,-397.77 1370.27,-393.96 			"/>
		</g>
		<g>
			<polygon class="st44" points="1468.05,-397.77 1464.24,-390 1468.05,-382.21 1460.27,-386.02 1452.49,-382.21 1456.3,-389.99 
				1452.49,-397.77 1460.27,-393.96 			"/>
		</g>
	</g>
	<rect x="1260.58" y="-613.68" class="st44" width="31.4" height="31.4"/>
	<rect x="1300.58" y="-613.68" class="st45" width="31.4" height="31.4"/>
	<g>
		<rect x="1340.58" y="-613.68" class="st43" width="31.4" height="31.4"/>
	</g>
</g>
<g id="Layer_13">
	<g>
		<linearGradient id="SVGID_24_" gradientUnits="userSpaceOnUse" x1="2179.0134" y1="-344.6205" x2="2264.8435" y2="-344.6205">
			<stop  offset="0.1126" style="stop-color:#FFFFFF"/>
			<stop  offset="0.4285" style="stop-color:#C9D7E0"/>
			<stop  offset="1" style="stop-color:#4892A7"/>
		</linearGradient>
		<path class="st46" d="M2262.24-366.4c-3.46-17.98-6.91-35.95-10.37-53.93c-2.18-11.33-4.36-22.67-6.54-34
			c0,0-17.72,92.13-18.07,93.98l-44.24,7.88l17.9,18.89l26.34,4.69c0.35,1.84,18.07,93.98,18.07,93.98s11.54-60.02,17.55-91.28"/>
		<linearGradient id="SVGID_25_" gradientUnits="userSpaceOnUse" x1="1921.6523" y1="-284.0268" x2="2085.187" y2="-284.0268">
			<stop  offset="0.1126" style="stop-color:#FFFFFF"/>
			<stop  offset="0.4285" style="stop-color:#C9D7E0"/>
			<stop  offset="1" style="stop-color:#4892A7"/>
		</linearGradient>
		<line class="st47" x1="1921.65" y1="-284.03" x2="2085.19" y2="-284.03"/>
	</g>
	<g>
		<g>
			<path class="st48" d="M2265.68-361.76l67.72,17.14l-67.7,17.14l7.54-13.75l1.84-3.36l-1.84-3.36L2265.68-361.76 M2251.84-372.49
				l15.26,27.89l-15.26,27.84l110.09-27.86L2251.84-372.49L2251.84-372.49z"/>
		</g>
		<g>
			<path class="st48" d="M2228.86-372.28l10.14,2.57l13.73,25.09l-13.72,25.04l-10.13,2.56l13.28-24.23l1.84-3.36l-1.84-3.36
				L2228.86-372.28 M2215.01-383.01l21,38.39l-21,38.33l28.67-7.26l17.03-31.08l-17.03-31.13L2215.01-383.01L2215.01-383.01z"/>
		</g>
	</g>
	<g>
		<rect x="1921.65" y="-377.45" class="st2" width="300.56" height="77.86"/>
		<text transform="matrix(1 0 0 1 1921.6525 -312.5634)" class="st49 st4 st5">SIRIUS</text>
		<text transform="matrix(1 0 0 1 2093.0718 -274.9472)" class="st49 st0 st1">logistics</text>
		<g>
			<polygon class="st49" points="1995.62,-397.74 1991.8,-389.97 1995.62,-382.18 1987.83,-385.99 1980.06,-382.18 1983.87,-389.96 
				1980.06,-397.74 1987.84,-393.93 			"/>
		</g>
		<g>
			<polygon class="st49" points="2085.62,-397.74 2081.8,-389.97 2085.62,-382.18 2077.83,-385.99 2070.06,-382.18 2073.87,-389.96 
				2070.06,-397.74 2077.84,-393.93 			"/>
		</g>
	</g>
	<rect x="1880.58" y="-613.68" class="st49" width="31.4" height="31.4"/>
	<rect x="1920.58" y="-613.68" class="st50" width="31.4" height="31.4"/>
	<g>
		<rect x="1960.58" y="-613.68" class="st48" width="31.4" height="31.4"/>
	</g>
</g>
</svg>
