<?xml version="1.0" encoding="iso-8859-1"?>
<!-- Generator: Adobe Illustrator 21.0.0, SVG Export Plug-In . SVG Version: 6.00 Build 0)  -->
<svg version="1.1" id="Layer_1" xmlns="http://www.w3.org/2000/svg" xmlns:xlink="http://www.w3.org/1999/xlink" x="0px" y="0px"
	 viewBox="0 0 100.354 100.352" style="enable-background:new 0 0 100.354 100.352;" xml:space="preserve">
<g>
	<path d="M49.244,67.609c-2.654,1.638-6.518,0.779-8.107-1.797l-11.49-18.621c-1.615-2.618-0.801-6.061,1.815-7.675l-0.788-1.276
		l0.788,1.276l10.05-6.205l-8.849-14.337l-10.044,6.2l0,0c-9.853,6.081-9.532,22.005,0.782,38.723
		c4.72,7.651,10.663,13.736,16.732,17.135c3.574,2.001,7.096,3.006,10.377,3.005c2.755,0,5.34-0.708,7.644-2.13l9.667-5.963
		l-8.849-14.341L49.244,67.609z M56.579,79.354c-5.228,3.227-11.032,1.271-14.979-0.94c-5.632-3.153-11.188-8.868-15.645-16.092
		c-9.386-15.216-10.109-29.442-1.759-34.596l-0.788-1.276l0.788,1.276l7.49-4.624l5.698,9.232l-7.498,4.629l0,0
		c-4.024,2.483-5.276,7.778-2.792,11.803l11.489,18.62c2.456,3.983,8.174,5.278,12.235,2.775l7.177-4.43l5.698,9.233L56.579,79.354z
		"/>
	<path d="M59.587,40.593c2.225,3.416,2.76,7.601,1.467,11.483l2.847,0.948c1.583-4.754,0.927-9.882-1.799-14.067
		c-2.809-4.326-7.57-7.09-12.736-7.396l-0.177,2.995C53.47,34.809,57.26,37.009,59.587,40.593z"/>
	<path d="M51.396,21.636l-0.343,2.98c6.969,0.801,13.155,4.625,16.973,10.489c3.697,5.685,4.745,12.685,2.873,19.208l2.884,0.827
		c2.111-7.358,0.93-15.257-3.242-21.671C66.233,26.852,59.256,22.539,51.396,21.636z"/>
	<path d="M78.017,28.604C72.44,20.027,63.429,14.299,53.295,12.89l-0.413,2.972c9.272,1.289,17.517,6.53,22.62,14.378
		c5,7.681,6.5,17.167,4.116,26.028l2.897,0.779C85.12,47.365,83.48,36.997,78.017,28.604z"/>
</g>
</svg>
