<?xml version="1.0" encoding="utf-8"?><svg viewBox="0 0 448 512" xmlns="http://www.w3.org/2000/svg" xmlns:xlink="http://www.w3.org/1999/xlink"><style>:root>svg{display:none}:root>svg:target{display:block}</style><svg viewBox="0 0 448 512" id="burger" xmlns="http://www.w3.org/2000/svg"><!--! Font Awesome Pro 6.2.0 by @fontawesome - https://fontawesome.com License - https://fontawesome.com/license (Commercial License) Copyright 2022 Fonticons, Inc.--><path d="M0 96c0-17.7 14.3-32 32-32h384c17.7 0 32 14.3 32 32s-14.3 32-32 32H32c-17.7 0-32-14.3-32-32zm0 160c0-17.7 14.3-32 32-32h384c17.7 0 32 14.3 32 32s-14.3 32-32 32H32c-17.7 0-32-14.3-32-32zm448 160c0 17.7-14.3 32-32 32H32c-17.7 0-32-14.3-32-32s14.3-32 32-32h384c17.7 0 32 14.3 32 32z"/></svg><svg viewBox="0 0 400 206.678" id="logo" xmlns="http://www.w3.org/2000/svg"><g fill-rule="evenodd"><path d="M0 65.633v55.917h111.628v-.434c0-.299-4.147-4.582-13.31-13.747L85.007 94.057h-57.72V36.328L13.986 23.022C6.671 15.703.531 9.716.343 9.716.024 9.716 0 13.704 0 65.633m149.819 39.5c-.085.086-.155.419-.155.741s-.093.586-.207.586c-.118 0-.206.616-.206 1.435 0 .789-.082 1.485-.182 1.547-.1.062-.249 1.369-.331 2.906-.083 1.537-.233 2.794-.335 2.794-.102 0-.186.646-.186 1.435s-.093 1.492-.207 1.563c-.113.07-.206.866-.206 1.769v1.641h1.215c1.584 0 1.613-.05 1.781-3.1.183-3.336.338-3.721 1.495-3.721.761 0 .892.067 1.005.516.071.285.213.517.314.517.102 0 .184.186.184.414 0 .227.078.413.173.413.094 0 .35.558.568 1.24.218.683.466 1.241.551 1.241.086 0 .155.139.155.31 0 .17.076.31.167.31.092 0 .255.395.362.878l.195.879 1.499.061c1.413.057 1.498.035 1.498-.382 0-.445-.58-1.863-.841-2.056-.077-.057-.206-.406-.286-.775-.08-.37-.231-.672-.336-.672-.105 0-.19-.126-.19-.279 0-.259-.392-1.211-.841-2.044-.394-.733-.268-.942 1.202-1.984.37-.262.672-.609.672-.772 0-.163.089-.296.198-.296.108 0 .258-.327.333-.726.075-.399.219-.777.32-.839.254-.157.232-2.569-.024-2.569-.114 0-.207-.229-.207-.509s-.144-.629-.32-.775a13.886 13.886 0 01-.706-.649c-.93-.921-1.445-1.042-4.762-1.124-1.762-.043-3.274-.009-3.359.076m53.695.007c-1.971.481-3.372 2.23-3.558 4.44-.065.785-.199 1.428-.296 1.428-.097 0-.177.586-.177 1.302 0 .716-.096 1.399-.214 1.517-.322.322-.356 5.294-.038 5.4.139.046.254.192.256.325.005.377 1.152 1.585 1.505 1.585.174 0 .356.116.403.258.064.19.821.259 2.843.259 2.021 0 2.779-.069 2.842-.259a.392.392 0 01.342-.258c.14 0 .455-.209.699-.465.244-.256.636-.648.871-.871.235-.222.477-.641.537-.93.059-.289.196-.686.303-.884.106-.197.194-.68.194-1.073 0-.393.084-.766.188-.83.103-.064.255-1.327.337-2.807.082-1.48.23-2.741.328-2.803.251-.155.227-1.533-.026-1.533-.114 0-.207-.305-.207-.678 0-2.277-3.794-3.938-7.132-3.123m68.217 0c-2.002.489-3.397 2.32-3.571 4.684-.056.771-.183 1.451-.281 1.511-.098.061-.179.658-.179 1.326 0 .669-.093 1.274-.206 1.344-.413.255-.256 4.934.181 5.403.213.23.446.596.518.815.397 1.219 6.74 2.266 7.104 1.172a.393.393 0 01.342-.258c.14 0 .458-.233.705-.517.247-.284.541-.517.653-.517.113 0 .263-.232.334-.516.071-.285.213-.517.314-.517.102 0 .184-.186.184-.414 0-.227.084-.413.186-.413.222 0 .373-1.034.686-4.703.128-1.506.31-2.739.404-2.739.235 0 .217-1.782-.023-2.225-.107-.197-.248-.615-.314-.928-.126-.597-1.114-1.702-1.979-2.212-.508-.3-4.165-.514-5.058-.296m20.625.034a2.912 2.912 0 00-.836.472 3.091 3.091 0 01-.733.461.995.995 0 00-.497.503c-.077.202-.297.536-.489.743-.369.398-.602 1.256-.602 2.221 0 .321-.093.64-.207.71-.113.071-.206.709-.206 1.418 0 .71-.095 1.384-.21 1.499-.324.325-.37 5.916-.049 6.023a.418.418 0 01.259.373c0 1.606 5.993 3.071 7.284 1.78.132-.132.454-.24.716-.24.261 0 .475-.093.475-.207 0-.113.092-.206.204-.206.679 0 1.036-.73 1.036-2.114 0-.796.09-1.401.207-1.401.116 0 .207-.572.207-1.302 0-.716.098-1.4.218-1.52.12-.12.189-.767.155-1.437l-.063-1.219-2.739-.057c-2.607-.055-2.739-.038-2.739.349 0 .224-.093.465-.207.535-.114.07-.207.541-.207 1.046v.918h2.894v1.034c0 .568-.093 1.033-.206 1.033-.114 0-.207.454-.207 1.008 0 .654-.112 1.101-.317 1.271-.433.36-3.441.399-3.559.047-.047-.142-.218-.259-.379-.259s-.293-.18-.293-.401c0-.221-.093-.459-.207-.529-.255-.157-.273-1.071-.025-1.225.1-.061.249-1.369.332-2.906.082-1.537.233-2.794.335-2.794.102 0 .188-.395.191-.879.005-.693.145-1.031.665-1.602l.658-.723 1.946.031c1.071.017 2.005.123 2.075.236.071.113.547.239 1.059.279l.93.074.061-1.292c.055-1.141.017-1.292-.32-1.292-.21 0-.486-.103-.612-.23-.266-.266-5.289-.457-5.998-.229m31.933.167c-.426.185-.775.419-.775.521 0 .101-.099.185-.221.185-.278 0-.812.522-.812.794 0 .113-.117.243-.259.291-.187.062-.258.746-.258 2.471v2.386l.879.853c.483.469 1.018.853 1.188.853.171 0 .31.071.31.158 0 .216 1.559.876 2.069.876.226 0 .412.093.412.206 0 .114.099.207.221.207 1.047 0 1.244 2.481.274 3.451-.785.785-2.787.777-4.32-.019-1.695-.88-1.963-.782-1.963.717 0 1.34.274 1.846 1.001 1.846.226 0 .448.11.492.244.153.457 4.707.494 5.658.045 1.292-.61 2.358-2.009 2.358-3.096 0-.276.093-.501.206-.501.296 0 .256-2.085-.051-2.747-.142-.306-.328-.558-.414-.558-.085-.001-.155-.155-.155-.341 0-.554-1.126-1.465-2.308-1.869-.607-.207-1.149-.433-1.206-.503-.057-.07-.289-.186-.517-.257-1.165-.367-2.334-2.82-1.343-2.82.113 0 .206-.1.206-.222 0-.74 3.419-1.238 4.066-.591.121.122.582.191 1.023.155l.803-.066.061-1.266c.075-1.568.137-1.537-3.265-1.652-2.074-.07-2.737-.021-3.36.249m51.887-.193c-.313.054-.569.186-.569.292 0 .106-.093.193-.206.193-.385 0-1.623 1.341-1.765 1.912-.077.313-.224.569-.325.569s-.184.273-.184.608c0 .334-.082.658-.182.72-.1.062-.249 1.369-.331 2.906-.083 1.537-.233 2.794-.335 2.794-.102 0-.186.884-.186 1.964 0 1.171.083 1.964.207 1.964.113 0 .206.193.206.429 0 .237.381.818.846 1.292l.845.863h2.204c3.015 0 4.083-.335 4.248-1.331.263-1.593.172-2.08-.391-2.08-.284 0-.516.093-.516.207 0 .113-.227.206-.505.206s-.562.093-.632.207c-.288.466-2.777.24-3.317-.301-.53-.529-.774-2.8-.301-2.8.116 0 .207-.581.207-1.331 0-.733.093-1.389.207-1.459.113-.071.206-.82.206-1.666s.081-1.539.181-1.539c.099 0 .236-.349.304-.775.175-1.094 1.255-1.565 3.145-1.371.732.075 1.331.217 1.331.315s.332.178.738.178c.643 0 .721-.053.606-.414-.075-.237-.037-.413.09-.413.446 0 .249-1.537-.237-1.84-.465-.291-4.426-.503-5.589-.299m17.571-.001c-.313.055-.569.187-.569.293 0 .106-.09.193-.199.193-.511 0-1.676 1.378-1.796 2.124-.069.428-.207.829-.306.89-.235.146-.234 2.567.002 2.567.099 0 .232.256.295.569.14.689 1.284 1.912 1.789 1.912.118 0 .215.093.215.207 0 .114.181.207.402.207.22 0 .454.085.519.19s.419.257.787.337c1.453.315 2.211 1.107 2.216 2.315.002.597-.089 1.085-.203 1.085-.113 0-.206.1-.206.222 0 .776-3.64 1.365-3.886.628-.042-.126-.232-.233-.421-.236-.19-.004-.525-.143-.746-.31-.87-.659-1.313-.408-1.468.83-.161 1.291-.054 1.721.469 1.883.202.063.548.212.769.333 1.467.797 6.528.297 6.837-.676.07-.22.207-.4.305-.4.353 0 .828-.66.828-1.152 0-.276.093-.502.207-.502.124 0 .206-.827.206-2.067 0-1.137-.078-2.067-.173-2.067-.096 0-.28-.233-.409-.517-.13-.284-.371-.517-.536-.517-.166 0-.36-.186-.432-.413-.072-.227-.311-.414-.531-.414-.22 0-.399-.091-.399-.204 0-.112-.372-.264-.827-.336-.455-.073-.827-.214-.827-.313s-.186-.18-.414-.18c-.227 0-.413-.083-.413-.184 0-.102-.233-.243-.517-.314-.762-.192-.768-2.164-.009-2.922.538-.539 3.834-.797 3.834-.301 0 .114.359.207.798.207h.798l.138-1.175c.198-1.682.091-1.747-3.003-1.827-1.406-.036-2.812-.02-3.124.035m-260.735.226c-.121.086-.344.482-.497.88-.532 1.387-.876 2.177-1.371 3.151-.274.539-.498 1.167-.498 1.396 0 .228-.093.414-.207.414-.113 0-.206.187-.206.414 0 .227-.092.413-.205.413-.112 0-.263.372-.336.827-.073.455-.214.827-.313.827s-.18.186-.18.414c0 .227-.092.413-.204.413-.113 0-.264.372-.337.827-.073.455-.213.827-.312.827s-.181.186-.181.413c0 .228-.074.414-.165.414-.091 0-.286.348-.435.775-.148.426-.5 1.257-.783 1.847-.76 1.588-.645 1.81.972 1.882l1.342.06.361-.837c.199-.46.362-.975.362-1.145 0-.17.093-.309.207-.309.114 0 .207-.167.207-.372 0-.743.419-.868 2.909-.868h2.414l.129.646a9.44 9.44 0 01.129 1.509c0 1.165.26 1.359 1.816 1.359h1.32l-.147-1.602c-.082-.881-.229-1.633-.328-1.671-.099-.038-.18-.526-.18-1.085 0-.559-.085-1.016-.189-1.016-.103 0-.254-.792-.334-1.76-.081-.969-.229-1.811-.329-1.873-.1-.062-.182-.526-.182-1.031 0-.505-.093-.918-.207-.918-.113 0-.212-.395-.219-.878a12.107 12.107 0 00-.198-1.809l-.353-1.757-.166-.827-1.444-.053c-.794-.029-1.542.017-1.662.103m35.102-.018c-.162.066-.259.524-.259 1.226v1.119h2.119l2.119-.001-.189 2.688c-.104 1.478-.267 2.688-.362 2.688-.095 0-.172.611-.172 1.357 0 .747-.083 1.514-.184 1.706-.1.191-.25 1.487-.333 2.88l-.149 2.532h2.733v-.918c0-.505.093-.975.206-1.045.114-.071.207-.768.207-1.551 0-.782.084-1.474.186-1.537.102-.063.252-1.371.335-2.906.082-1.536.231-2.792.331-2.792s.182-.698.182-1.55V107.7h2.239c2.524 0 2.827-.188 2.686-1.669l-.067-.708-5.685-.037c-3.127-.02-5.801.011-5.943.069m53.306.233c-.111.206-.268 1.513-.349 2.904-.082 1.39-.228 2.577-.325 2.637-.098.061-.178.75-.178 1.532 0 .783-.084 1.475-.188 1.539-.103.064-.255 1.327-.336 2.808-.082 1.48-.23 2.741-.329 2.802-.099.061-.18.478-.18.926v.814H222.222v-.62c0-.341.093-.62.207-.62.119 0 .207-.655.207-1.55 0-.896.087-1.551.206-1.551.117 0 .207-.583.207-1.337v-1.337l2.429-.058 2.429-.058.062-1.189.062-1.189h-4.468l.075-1.705c.041-.938.158-1.737.26-1.774.102-.038.185-.248.185-.466 0-.371.18-.396 2.947-.396h2.947l.271-.613c.15-.338.242-.873.206-1.189l-.066-.575-4.384-.056c-4.059-.051-4.398-.028-4.584.321m30.156.045c0 .227-.093.414-.206.414-.118 0-.207.616-.207 1.434 0 .789-.085 1.487-.188 1.551-.104.064-.255 1.328-.337 2.808-.082 1.48-.23 2.741-.329 2.802-.099.061-.18.738-.18 1.505 0 .766-.084 1.481-.186 1.589-.102.108-.219.988-.258 1.954l-.073 1.757h8.889l.062-1.189.062-1.188H252.614l.128-1.912c.07-1.052.209-2.001.308-2.109.099-.108.18-.764.18-1.457 0-.694.085-1.35.19-1.458.104-.108.238-.801.297-1.54s.203-2.171.32-3.183c.259-2.236.284-2.191-1.233-2.191-1.09 0-1.228.046-1.228.413m58.708.207c0 .341-.093.62-.206.62-.117 0-.207.582-.207 1.331 0 .733-.083 1.383-.184 1.445-.1.063-.25 1.417-.333 3.01-.082 1.593-.232 2.896-.333 2.896s-.184.644-.184 1.43c0 .786-.084 1.461-.188 1.499-.103.038-.219.813-.256 1.722l-.068 1.654 1.204.063c1.696.088 1.729.035 1.901-3.071.081-1.472.229-2.677.328-2.677s.18-.645.18-1.435c0-.789.082-1.485.182-1.547.099-.061.249-1.369.331-2.906.082-1.537.233-2.794.335-2.794.102 0 .186-.419.186-.93v-.93h-2.688v.62m29.492-.483c-.076.076-.138.634-.138 1.241v1.102H343.979v.889c0 .489-.085.977-.19 1.085-.104.108-.24.801-.302 1.54-.363 4.327-.664 7.017-.8 7.151-.085.085-.155.836-.155 1.669v1.516h1.215c1.581 0 1.616-.059 1.791-2.997.081-1.364.22-2.574.309-2.687.089-.114.214-.812.278-1.551.063-.739.226-2.529.361-3.979l.245-2.636h4.651l.141-1.024c.078-.563.081-1.121.007-1.24-.148-.241-11.516-.316-11.754-.079m20.999 0c-.168.068-.258.56-.258 1.418 0 .723-.093 1.372-.207 1.442-.114.07-.207.687-.207 1.37 0 .682-.085 1.402-.19 1.598-.105.196-.258 1.585-.34 3.087-.081 1.502-.228 2.731-.326 2.731-.097 0-.177.586-.177 1.302 0 .716-.1 1.402-.222 1.524-.122.122-.192.536-.155.92l.067.698 1.371.061 1.372.06.137-.784c.155-.888.703-5.731.86-7.606.057-.682.164-1.38.236-1.55.173-.406.657-6.052.536-6.253-.101-.171-2.084-.185-2.497-.018m-205.162 2.515c.044.133.212.242.373.242s.293.139.293.31c0 .17.093.31.207.31.113 0 .207.325.207.723 0 .398-.094.724-.207.724-.114 0-.207.168-.207.374 0 1.013-1.293 1.693-3.218 1.693h-1.33l.002-.672c0-.369.061-1.45.135-2.401l.135-1.73 1.765.093c1.088.057 1.795.185 1.845.334m51.862.359c.266.266.484.609.484.762 0 .153.116.402.258.552.207.219.207.293 0 .369-.169.062-.258.54-.258 1.38 0 .707-.086 1.373-.19 1.481-.105.108-.236.801-.292 1.54-.222 2.934-.658 4.341-1.347 4.341-.112 0-.241.113-.287.25-.055.163-.589.249-1.552.249-2.117 0-2.361-.324-2.24-2.979.142-3.091.558-6.919.761-6.994a.311.311 0 00.185-.273c0-.273.534-.795.813-.795.121 0 .221-.087.221-.194 0-.606 2.778-.354 3.444.311m68.271.013c.555.515.735 4.61.21 4.796-.106.038-.194.707-.194 1.487 0 .78-.08 1.467-.179 1.528-.099.061-.226.527-.283 1.034-.1.882-.516 1.567-.953 1.567-.112 0-.241.113-.287.25-.175.523-2.975.315-3.481-.259-.482-.545-.463-6.417.022-6.902.11-.11.2-.648.2-1.195 0-1.04.678-2.429 1.189-2.434.142-.001.258-.089.258-.196 0-.609 2.769-.352 3.498.324m-141.348 2.693c.115.664.256 1.696.314 2.293.059.597.191 1.085.294 1.085.103 0 .188.21.188.465.001.45-.056.463-1.653.398-1.595-.065-1.655-.086-1.655-.568 0-.276.093-.501.207-.501.114 0 .207-.187.207-.414 0-.227.093-.413.206-.413.114 0 .207-.233.207-.517 0-.284.092-.517.204-.517.113 0 .264-.372.337-.827.073-.455.213-.827.312-.827.1 0 .181-.17.181-.379 0-.388.209-.72.36-.57.046.046.177.628.291 1.292M.982 133.683c-.199.052-.362.273-.362.492 0 .219-.093.399-.207.399-.137 0-.206 12.024-.206 35.659 0 23.634.069 35.658.206 35.658.114 0 .207.138.207.307 0 .168.209.357.465.419.753.185 35.04.014 35.229-.174.316-.317.211-11.397-.112-11.786-.257-.31-1.32-.342-11.522-.342H13.441l-.054-30.188c-.047-26.57-.091-30.212-.364-30.385-.306-.193-11.32-.248-12.041-.059m68.889.001c-.398.051-.812.179-.92.284-.108.106-.405.192-.66.192s-.516.086-.581.191c-.065.105-.396.252-.736.327-.339.074-.617.221-.617.326 0 .104-.186.19-.414.19-.227 0-.413.093-.413.207 0 .113-.118.206-.261.206-.23 0-.756.439-1.538 1.283a11.98 11.98 0 01-.517.516c-.48.445-.785.867-.785 1.087 0 .118-.086.215-.19.215-.105 0-.256.302-.336.672-.081.369-.204.718-.275.775-.264.212-.646 1.041-.646 1.403 0 .206-.116.491-.258.633-.348.347-.492 53.101-.151 54.952.391 2.114.452 2.34.639 2.34.101 0 .183.186.183.414 0 .227.086.413.191.413.104 0 .251.279.326.62.075.341.222.62.327.62.104 0 .19.124.19.276 0 .522 2.598 3.024 3.282 3.161.355.071.646.211.646.31 0 .1.139.181.31.181.17 0 .31.085.31.189 0 .103.395.254.878.335.484.081.945.252 1.026.38.224.353 19.478.328 19.832-.025.142-.143.482-.259.754-.259.485 0 1.903-.565 2.109-.84.057-.076.313-.203.569-.283.256-.08.465-.232.465-.338 0-.106.116-.194.258-.196.459-.006 2.843-2.727 2.843-3.246 0-.145.093-.265.206-.265.114 0 .207-.232.207-.517 0-.284.09-.516.2-.516.109 0 .261-.465.336-1.034.076-.568.218-1.034.318-1.034.099 0 .18-.506.18-1.124 0-.619.093-1.183.206-1.253.136-.084.207-8.749.207-25.323 0-16.574-.071-25.239-.207-25.323-.113-.07-.206-.587-.206-1.149s-.081-1.021-.18-1.021c-.099 0-.23-.439-.29-.975-.06-.537-.212-1.01-.337-1.051-.125-.042-.227-.301-.227-.576 0-.274-.093-.499-.207-.499-.113 0-.206-.133-.206-.294 0-.162-.233-.571-.517-.909-.284-.338-.517-.688-.517-.778 0-.243-1.679-1.72-2.11-1.857-.204-.065-.371-.204-.371-.31 0-.106-.139-.193-.31-.193-.17 0-.31-.089-.31-.198 0-.108-.325-.258-.723-.333-.398-.074-.724-.218-.724-.319s-.318-.184-.706-.184c-.389 0-.745-.116-.792-.258-.085-.255-16.925-.45-18.76-.218m63.566.002c-.455.049-.916.175-1.024.281-.108.106-.41.193-.671.193-.262 0-.476.083-.476.184 0 .101-.325.245-.723.319-.398.075-.724.225-.724.333 0 .109-.139.198-.31.198-.17 0-.31.093-.31.207 0 .113-.137.206-.304.206-.393 0-2.797 2.408-2.797 2.801 0 .165-.071.3-.158.3-.166 0-.875 1.509-.875 1.862a.206.206 0 01-.207.205c-.114 0-.207.214-.207.476 0 .261-.083.563-.185.671-.444.47-.496 3.441-.496 28.311 0 24.852.053 27.853.496 28.127.102.063.185.341.185.619 0 .277.083.504.184.504.101 0 .245.326.319.724.075.398.225.723.333.723.109 0 .198.14.198.31 0 .171.093.31.206.31.114 0 .207.151.207.336 0 .47 2.529 2.924 3.182 3.088.297.075.539.218.539.32 0 .101.186.184.414.184.227 0 .413.089.413.197 0 .109.349.262.775.34.427.079.842.246.923.371.209.325 21.615.324 21.824-.001.081-.126.589-.295 1.129-.374.54-.08.982-.232.982-.339 0-.107.14-.194.31-.194.171 0 .31-.093.31-.207 0-.113.189-.206.42-.206.231 0 .474-.14.539-.31.066-.171.206-.311.312-.311.344 0 2.243-1.794 2.243-2.118 0-.095.193-.378.428-.629s.479-.713.543-1.025c.063-.313.196-.569.296-.569.099 0 .18-.224.18-.499s.097-.532.215-.571c.118-.04.271-.748.341-1.575.069-.826.205-1.551.302-1.611.332-.205.219-28.392-.116-28.726-.16-.161-.33-.41-.379-.554-.068-.206-1.952-.262-8.822-.262h-8.735l-.395.488c-.367.453-.395.88-.395 5.971 0 6.791-.321 6.247 3.701 6.27 1.546.009 2.694.064 2.552.121-.199.08-.258 1.571-.258 6.469 0 7.168-.043 7.609-.75 7.786-.27.068-.491.206-.491.308 0 .101-.227.184-.504.184-.278 0-.562.093-.632.207-.078.125-1.622.206-3.94.206-2.404 0-3.812-.076-3.812-.206 0-.114-.272-.207-.605-.207-.818 0-1.876-1.058-1.876-1.877 0-.332-.093-.604-.207-.604-.136 0-.206-7.235-.206-21.292 0-14.057.07-21.292.206-21.292.114 0 .207-.195.207-.433 0-.679.598-1.522 1.312-1.851.883-.406 9.872-.444 10.006-.041.047.142.178.258.29.258.795 0 .897.576.961 5.411.037 2.79.142 4.718.258 4.718.108 0 .196.168.196.374 0 .866 1.23 1.073 6.375 1.073 3.054 0 4.788-.075 4.788-.206 0-.114.165-.207.368-.207 1.019 0 1.079-.393 1.079-7.031 0-3.41-.08-6.199-.177-6.199-.098 0-.23-.765-.294-1.7-.064-.935-.217-1.734-.339-1.774-.123-.041-.224-.3-.224-.574 0-.275-.085-.5-.19-.5-.104 0-.247-.256-.316-.568-.154-.696-.722-1.455-2.078-2.772-1.459-1.42-1.716-1.621-2.067-1.621-.17 0-.31-.089-.31-.198 0-.108-.325-.258-.723-.333-.398-.074-.724-.218-.724-.319s-.26-.184-.579-.184c-.318 0-.695-.116-.837-.258-.252-.253-18.458-.443-20.599-.216m56.259.232c-.512.566-.529 71.963-.017 72.476.573.573 11.632.477 12.305-.106l.497-.431V134.33l-.488-.395c-.735-.595-11.76-.61-12.297-.017m54.27-.199c-.417.264-.865 1.248-.865 1.9 0 .321-.093.641-.207.712-.114.07-.207.494-.207.942 0 .448-.085.815-.189.815s-.254.698-.334 1.55c-.08.853-.227 1.551-.328 1.551-.1 0-.182.353-.182.785 0 .432-.091.876-.201.987-.111.11-.264.873-.34 1.695-.076.821-.218 1.494-.316 1.494-.097 0-.177.372-.177.827 0 .455-.085.827-.189.827s-.255.699-.335 1.553c-.08.854-.227 1.604-.327 1.666-.1.062-.182.427-.182.812 0 .384-.084.75-.185.813-.102.063-.237.464-.3.891-.286 1.92-.665 3.754-.807 3.895-.086.085-.155.505-.155.935 0 .429-.084.831-.186.894-.102.064-.251.767-.331 1.564-.08.797-.229 1.5-.331 1.563-.103.063-.186.43-.186.814 0 .385-.085.752-.189.816-.104.065-.255.814-.335 1.666-.079.852-.227 1.549-.327 1.549-.101 0-.183.372-.183.827 0 .455-.083.827-.185.827-.101 0-.236.349-.3.775-.339 2.286-.669 3.966-.807 4.102-.085.084-.155.458-.155.83 0 .372-.082.727-.182.789-.1.062-.247.812-.328 1.666-.08.855-.23 1.554-.334 1.554-.104 0-.189.366-.189.814 0 .448-.084.867-.186.93-.102.063-.251.766-.331 1.563-.08.797-.229 1.5-.331 1.564-.102.063-.186.481-.186.929 0 .448-.093.815-.207.815-.113 0-.206.366-.206.814 0 .448-.088.869-.195.935-.107.066-.259.772-.337 1.567-.079.796-.224 1.497-.322 1.558-.099.061-.18.478-.18.926 0 .448-.085.815-.189.815s-.254.697-.334 1.55c-.08.853-.228 1.55-.328 1.55s-.182.419-.182.931c0 .511-.086.93-.19.93-.104 0-.254.698-.334 1.55-.08.853-.227 1.551-.328 1.551-.1 0-.182.32-.182.711 0 .391-.093.769-.207.839-.113.07-.207.407-.207.749s-.082.779-.183.97c-.1.192-.247.915-.326 1.609-.231 2.026-.509 1.943 6.507 1.943 6.703 0 6.612.022 6.612-1.596 0-.373.093-.678.207-.678.114 0 .207-.459.207-1.021 0-.562.083-1.073.185-1.136.102-.063.251-.859.332-1.77.08-.911.229-1.708.331-1.771.102-.063.185-.522.185-1.02s.085-.958.189-1.022c.103-.064.254-.907.334-1.873.081-.966.228-1.756.329-1.756.1 0 .182-.14.182-.31 0-.27.999-.31 7.752-.31h7.752v.608c0 .334.093.665.207.735.113.071.206.495.206.943 0 .448.08.815.177.815.098 0 .241.767.319 1.705.077.938.23 1.736.339 1.774.11.038.199.521.199 1.073 0 .553.083 1.056.185 1.119.102.063.251.86.332 1.77.08.911.23 1.708.331 1.771.102.063.185.34.185.617 0 1.31.118 1.334 6.61 1.33 3.27-.002 6.032-.089 6.201-.195.355-.225.364-2.955.01-3.073-.116-.039-.211-.435-.211-.88 0-.446-.085-.81-.189-.81s-.254-.699-.334-1.553c-.081-.855-.228-1.604-.328-1.666-.1-.062-.182-.427-.182-.812 0-.384-.085-.752-.19-.816-.104-.064-.254-.815-.334-1.669-.08-.853-.228-1.603-.328-1.664-.1-.062-.182-.371-.182-.687 0-.315-.07-.643-.155-.728-.136-.135-.421-1.588-.804-4.1-.065-.426-.201-.775-.303-.775-.102 0-.185-.367-.185-.815 0-.448-.085-.867-.189-.931-.104-.065-.255-.814-.335-1.666-.079-.852-.227-1.549-.327-1.549s-.183-.373-.183-.827c0-.455-.085-.827-.189-.827s-.254-.699-.334-1.554c-.08-.854-.228-1.604-.328-1.665-.1-.062-.182-.48-.182-.928 0-.448-.078-.814-.173-.814-.152 0-.276-.625-.786-3.981-.065-.427-.202-.828-.303-.891-.102-.063-.185-.434-.185-.825 0-.392-.084-.712-.185-.712-.102 0-.252-.744-.332-1.655-.081-.91-.23-1.706-.332-1.769-.101-.063-.185-.434-.185-.826 0-.391-.082-.711-.182-.711-.101 0-.248-.697-.328-1.549-.08-.852-.23-1.602-.334-1.666-.104-.064-.189-.431-.189-.816 0-.384-.081-.749-.18-.81-.099-.061-.244-.762-.322-1.558-.078-.796-.23-1.501-.337-1.567-.107-.066-.195-.487-.195-.935 0-.448-.093-.815-.207-.815-.113 0-.206-.366-.206-.814 0-.448-.084-.867-.186-.93-.102-.063-.251-.766-.331-1.563-.08-.797-.229-1.5-.331-1.564-.102-.063-.186-.419-.186-.791 0-.372-.07-.746-.155-.83-.085-.084-.267-.821-.405-1.637-.454-2.699-.5-2.927-.681-3.344-.098-.227-.282-1.064-.409-1.86-.403-2.539-.459-2.792-.647-2.908-.101-.063-.184-.48-.184-.928 0-.449-.08-.815-.177-.815-.098 0-.232-.519-.297-1.153-.21-2.03.139-1.948-8.291-1.945-3.99.002-7.378.081-7.527.176m56.851.198l-.455.395v35.787c0 33.565.022 35.814.356 36.204.531.62 11.51.647 12.222.029l.445-.386v-23.207h2.67c3.199 0 3.325.036 3.325.952 0 .386.082.702.182.702.101 0 .248.604.327 1.343.079.739.23 1.344.334 1.344.105 0 .19.279.19.62 0 .341.083.62.183.62.101 0 .247.605.327 1.344.079.739.229 1.344.334 1.344.104 0 .19.325.19.723 0 .398.082.724.183.724.101 0 .247.51.324 1.133.078.624.229 1.188.334 1.253.106.065.193.439.193.83 0 .391.093.711.206.711.114 0 .207.326.207.724 0 .398.084.723.186.723.103 0 .252.559.331 1.241.079.683.228 1.293.33 1.356.103.063.187.342.187.62 0 .277.082.504.182.504.101 0 .248.604.327 1.342.079.738.229 1.394.334 1.459.105.065.19.369.19.676 0 .312.232.809.525 1.125l.526.566h5.771c5.672 0 5.779-.008 6.193-.452.436-.468.58-1.408.215-1.408-.113 0-.207-.326-.207-.724 0-.398-.093-.723-.206-.723-.114 0-.207-.326-.207-.724 0-.398-.084-.723-.186-.723-.103 0-.252-.558-.331-1.241-.079-.682-.228-1.292-.33-1.356-.103-.063-.187-.383-.187-.711 0-.327-.088-.65-.197-.717-.108-.067-.26-.677-.336-1.356-.077-.679-.221-1.234-.32-1.234s-.18-.326-.18-.724c0-.398-.082-.723-.183-.723-.101 0-.247-.51-.325-1.134-.077-.623-.228-1.187-.333-1.252-.106-.066-.193-.387-.193-.715 0-.328-.093-.653-.206-.723-.114-.071-.207-.402-.207-.736 0-.335-.074-.608-.164-.608-.091 0-.278-.628-.416-1.395-.386-2.14-.488-2.533-.657-2.533-.086 0-.221-.569-.3-1.264-.078-.695-.253-1.444-.388-1.665-.202-.329-.183-.437.106-.601a3.75 3.75 0 00.657-.505c.168-.168.406-.306.528-.306.321 0 3.114-2.901 3.114-3.234 0-.154.089-.28.198-.28.108 0 .258-.326.333-.724.075-.398.218-.723.319-.723s.184-.233.184-.517c0-.284.083-.517.184-.517.195 0 .332-.647.637-2.997.24-1.852.242-24.922.003-26.977-.244-2.091-.422-2.894-.641-2.894-.1 0-.183-.232-.183-.517 0-.284-.083-.517-.184-.517-.101 0-.244-.325-.319-.723-.075-.398-.225-.724-.333-.724-.109 0-.198-.139-.198-.31 0-.17-.162-.483-.361-.694a32.058 32.058 0 01-.982-1.133c-.341-.411-.694-.75-.784-.752-.091-.003-.415-.237-.722-.521-.306-.285-.674-.517-.818-.517-.143 0-.26-.092-.26-.204 0-.113-.372-.264-.827-.337-.455-.073-.827-.213-.827-.312 0-.1-.225-.181-.499-.181-.275 0-.539-.116-.586-.258-.166-.498-28.479-.484-29.054.015m62.832.009c-.435.377-.445.513-.445 5.883 0 7.096-.768 6.341 6.447 6.341h5.543v59.796l.445.386c.712.618 11.69.591 12.222-.029.333-.39.356-2.321.356-30.285V146.15h5.643c4.114 0 5.711-.067 5.892-.248.418-.418.347-11.614-.077-12.037-.548-.548-35.392-.489-36.026.061M83.877 146.515c.048.144.219.394.379.554.161.16.292.391.292.513s.093.222.207.222c.136 0 .206 7.579.206 22.325 0 14.746-.07 22.326-.206 22.326-.114 0-.207.139-.207.31 0 .341-.512.89-1.203 1.292-.315.182-1.625.258-4.469.258h-4.024l-.734-.755-.733-.755v-45.244l.672-.706.672-.707 4.53.052c3.438.04 4.552.116 4.618.315m240.421.417c.365.374.663.815.663.982 0 .167.093.303.207.303.135 0 .207 3.411.207 9.819 0 6.408-.072 9.819-.207 9.819-.114 0-.207.14-.207.31 0 .401-.736 1.137-1.137 1.137-.17 0-.31.093-.31.207 0 .132-1.826.207-5.064.207h-5.065v-23.608l5.125.073 5.124.072.664.679m-72.54 7.423c.014.476.118.924.232.994.113.07.206.541.206 1.046s.093.918.207.918c.114 0 .207.465.207 1.033 0 .569.076 1.034.17 1.034.094 0 .282.86.418 1.912.449 3.461.486 3.669.651 3.669.09 0 .23.838.311 1.862.081 1.024.231 1.913.332 1.976.102.063.185.522.185 1.02s.082.957.182 1.018c.1.062.248.905.329 1.873.08.968.231 1.76.334 1.76.104 0 .189.465.189 1.034 0 .568.093 1.033.206 1.033.114 0 .207.411.207.913 0 .503.081.944.18.982.098.038.222.604.275 1.258l.096 1.189H246.202v-.724c0-.398.084-.723.187-.723s.254-.884.335-1.964c.081-1.08.229-1.964.329-1.964s.182-.367.182-.815c0-.448.093-.872.207-.942.114-.07.207-.536.207-1.034s.083-.957.185-1.02c.101-.063.251-.86.331-1.771.081-.91.23-1.707.332-1.77.102-.063.185-.569.185-1.124 0-.555.085-1.061.188-1.125.104-.064.254-.907.335-1.873.08-.966.228-1.756.328-1.756.101 0 .183-.413.183-.918 0-.505.093-.976.206-1.046.114-.07.207-.535.207-1.034 0-.498.086-.959.192-1.024.105-.065.256-.954.336-1.976.08-1.021.227-1.857.326-1.857s.18-.318.18-.707c0-1.95.539-1.369.595.643"/><path d="M9.716.176c0 .392 111.271 111.471 111.6 111.408.198-.038.332-.256.323-.527-.008-.255-.031-25.346-.052-55.76L121.55 0H65.633C34.879 0 9.716.079 9.716.176m88.268 40.562v17.38l-17.26-17.261c-9.494-9.493-17.261-17.314-17.261-17.379 0-.065 7.767-.119 17.261-.119h17.26v17.379" fill="#3cc0f0"/><path d="M121.652 55.09c0 30.357.024 42.745.053 27.529.03-15.216.03-40.053 0-55.194-.029-15.141-.053-2.691-.053 27.665" fill="#0ff"/></g></svg><svg viewBox="0 0 100.354 100.352" id="phone" xmlns="http://www.w3.org/2000/svg"><path d="M49.244 67.609c-2.654 1.638-6.518.779-8.107-1.797l-11.49-18.621a5.583 5.583 0 011.815-7.675l-.788-1.276.788 1.276 10.05-6.205-8.849-14.337-10.044 6.2c-9.853 6.081-9.532 22.005.782 38.723 4.72 7.651 10.663 13.736 16.732 17.135 3.574 2.001 7.096 3.006 10.377 3.005 2.755 0 5.34-.708 7.644-2.13l9.667-5.963-8.849-14.341-9.728 6.006zm7.335 11.745c-5.228 3.227-11.032 1.271-14.979-.94-5.632-3.153-11.188-8.868-15.645-16.092-9.386-15.216-10.109-29.442-1.759-34.596l-.788-1.276.788 1.276 7.49-4.624 5.698 9.232-7.498 4.629c-4.024 2.483-5.276 7.778-2.792 11.803l11.489 18.62c2.456 3.983 8.174 5.278 12.235 2.775l7.177-4.43 5.698 9.233-7.114 4.39zM59.587 40.593a13.253 13.253 0 011.467 11.483l2.847.948c1.583-4.754.927-9.882-1.799-14.067-2.809-4.326-7.57-7.09-12.736-7.396l-.177 2.995c4.281.253 8.071 2.453 10.398 6.037z"/><path d="M51.396 21.636l-.343 2.98a23.37 23.37 0 0116.973 10.489 23.382 23.382 0 012.873 19.208l2.884.827a26.382 26.382 0 00-3.242-21.671 26.358 26.358 0 00-19.145-11.833z"/><path d="M78.017 28.604A35.268 35.268 0 0053.295 12.89l-.413 2.972a32.27 32.27 0 0122.62 14.378c5 7.681 6.5 17.167 4.116 26.028l2.897.779a35.363 35.363 0 00-4.498-28.443z"/></svg></svg>