<?xml version="1.0" encoding="utf-8"?><svg viewBox="0 0 566.93 566.93" xmlns="http://www.w3.org/2000/svg" xmlns:xlink="http://www.w3.org/1999/xlink"><style>:root>svg{display:none}:root>svg:target{display:block}</style><svg viewBox="0 0 448 512" id="burger" xmlns="http://www.w3.org/2000/svg"><!--! Font Awesome Pro 6.2.0 by @fontawesome - https://fontawesome.com License - https://fontawesome.com/license (Commercial License) Copyright 2022 Fonticons, Inc.--><path d="M0 96c0-17.7 14.3-32 32-32h384c17.7 0 32 14.3 32 32s-14.3 32-32 32H32c-17.7 0-32-14.3-32-32zm0 160c0-17.7 14.3-32 32-32h384c17.7 0 32 14.3 32 32s-14.3 32-32 32H32c-17.7 0-32-14.3-32-32zm448 160c0 17.7-14.3 32-32 32H32c-17.7 0-32-14.3-32-32s14.3-32 32-32h384c17.7 0 32 14.3 32 32z"/></svg><svg viewBox="0 0 320 512" id="close" xmlns="http://www.w3.org/2000/svg"><!--! Font Awesome Pro 6.2.0 by @fontawesome - https://fontawesome.com License - https://fontawesome.com/license (Commercial License) Copyright 2022 Fonticons, Inc.--><path d="M310.6 150.6c12.5-12.5 12.5-32.8 0-45.3s-32.8-12.5-45.3 0L160 210.7 54.6 105.4c-12.5-12.5-32.8-12.5-45.3 0s-12.5 32.8 0 45.3L114.7 256 9.4 361.4c-12.5 12.5-12.5 32.8 0 45.3s32.8 12.5 45.3 0L160 301.3l105.4 105.3c12.5 12.5 32.8 12.5 45.3 0s12.5-32.8 0-45.3L205.3 256l105.3-105.4z"/></svg><svg viewBox="0 0 566.93 566.93" id="logo" xmlns="http://www.w3.org/2000/svg"><text transform="translate(246.745 330.304)" class="cst0 cst1">logistics</text><path class="cst2" d="M75.33 227.8h413.62v142.32H75.33z"/><text transform="translate(75.326 292.688)" class="cst3 cst4 cst5">SIRIUS</text><path class="cst6" d="M3748.91 190.79l-161.61-1.5 161.61-1.5z"/><path class="cst7" d="M3993.1 232.54c-47.72 14.63-38.05 1.05-50.41 50.41-12.32-49.48-2.86-35.77-50.41-50.41 47.71-14.64 38.06-1.04 50.41-50.41 12.31 49.48 2.86 35.77 50.41 50.41z"/><text transform="translate(3772.963 299.212)" class="cst0" font-size="30">logistics</text><path class="cst2" d="M3595.29 201.19h294.53v78.76h-294.53z"/><text transform="translate(3595.285 266.084)" class="cst3 cst4 cst5">SIRIUS</text><path class="cst3" d="M3668.11 181.51l-3.81 7.77 3.81 7.79-7.78-3.81-7.78 3.81 3.81-7.77-3.81-7.79 7.78 3.81zM3758.11 181.51l-3.81 7.77 3.81 7.79-7.78-3.81-7.78 3.81 3.81-7.77-3.81-7.79 7.78 3.81zM3972.38 202.84l-2.83 6.55 3.45 6.25-6.55-2.82-6.25 3.44 2.83-6.55-3.45-6.25 6.56 2.83z"/><path class="cst3" d="M3920.05 244.1c.59 1.44 1.24 2.83 2.11 3.98.87 1.15 1.94 2.02 3.13 2.4 2.4.74 5.11-.13 7.6-1.39 2.51-1.27 4.9-2.97 7.19-4.8 2.29-1.83 4.49-3.82 6.62-5.9 1.06-1.04 2.12-2.09 3.14-3.18.53-.53 1.01-1.08 1.53-1.61.48-.55.95-1.08 1.42-1.65 1.89-2.24 3.59-4.64 5.21-7.14 1.6-2.5 3.08-5.11 4.46-7.8.71-1.34 1.35-2.71 2-4.09.33-.69.64-1.39.94-2.09l.46-1.06.22-.53.11-.27.06-.13c.01-.03.07-.15.04-.04 0-.07.02.02.01.05l-.01.15-.01.29-.04.58-.11 1.16c-.1.77-.22 1.54-.35 2.31-.26 1.54-.64 3.05-1.03 4.57-.83 3.02-1.95 5.97-3.31 8.82-1.37 2.85-3 5.59-4.91 8.16-1.94 2.63-4.09 4.85-6.32 7.09-2.27 2.19-4.66 4.26-7.26 6.1-2.61 1.83-5.39 3.5-8.51 4.63-1.56.55-3.21.98-4.96 1.08-1.73.1-3.62-.17-5.21-1.1-1.58-.95-2.69-2.42-3.29-3.94-.64-1.53-.88-3.1-.93-4.65z"/><g><path class="cst3" d="M3707.24-247.17l-28.31-76.1c-1.17-3.13-3.18-5.67-5.66-7.14l-60.31-35.66 60.3-35.65c2.49-1.47 4.5-4 5.66-7.14l28.32-76.11 28.31 76.1c1.17 3.13 3.18 5.67 5.66 7.14l60.32 35.66-60.29 35.62c-2.49 1.47-4.5 4-5.66 7.14l-28.34 76.14zm-81.21-118.9l49.59 29.32c3.66 2.16 6.62 5.89 8.33 10.5l23.29 62.6 23.31-62.63c1.72-4.61 4.68-8.34 8.33-10.5l49.56-29.29-49.59-29.32c-3.66-2.16-6.62-5.89-8.33-10.5l-23.29-62.59-23.3 62.61c-1.72 4.61-4.68 8.34-8.33 10.5l-49.57 29.3z"/><path class="cst8" d="M3732.84-454.76h66.69v183.83h-66.69z"/><path d="M3785.49-300.34h-2.98v-24.64h2.98v24.64zM3804.41-309.17c0 2.98-.72 5.28-2.15 6.9-1.44 1.62-3.35 2.43-5.73 2.43-2.46 0-4.39-.84-5.8-2.51s-2.11-3.95-2.11-6.82c0-2.96.73-5.25 2.18-6.89 1.45-1.64 3.36-2.46 5.74-2.46 2.39 0 4.3.82 5.73 2.45s2.14 3.93 2.14 6.9zm-3.07 0c0-2.29-.42-3.99-1.25-5.11s-2.02-1.67-3.56-1.67c-1.55 0-2.75.56-3.59 1.67-.84 1.11-1.26 2.82-1.26 5.11 0 2.22.42 3.9 1.26 5.04.84 1.15 2.03 1.72 3.59 1.72 1.53 0 2.72-.56 3.56-1.69.83-1.12 1.25-2.81 1.25-5.07zM3808.1-297.5c.2.08.5.2.89.34s.83.28 1.33.4c.55.14 1.05.25 1.52.33s.97.13 1.52.13c.92 0 1.7-.12 2.34-.36.64-.24 1.14-.58 1.5-1.01.34-.43.58-.94.71-1.5.14-.57.21-1.22.21-1.95v-1.55c-.8.7-1.59 1.21-2.36 1.54-.77.33-1.74.5-2.9.5-2.02 0-3.62-.75-4.81-2.25-1.19-1.5-1.79-3.65-1.79-6.46 0-1.47.21-2.77.62-3.9.41-1.13.97-2.1 1.66-2.89.67-.76 1.45-1.35 2.36-1.76a6.8 6.8 0 012.82-.62c.92 0 1.71.11 2.38.33.67.21 1.34.53 2.02.93l.17-.76h2.8v15.68c0 3-.66 5.2-1.96 6.6s-3.31 2.11-6 2.11c-.87 0-1.75-.07-2.65-.21-.9-.14-1.75-.32-2.53-.55v-3.1h.15zm10.01-7.64v-9.71c-.74-.36-1.42-.61-2.05-.77-.63-.15-1.25-.23-1.88-.23-1.51 0-2.7.55-3.56 1.66-.87 1.11-1.3 2.7-1.3 4.77 0 1.96.33 3.46.99 4.48.66 1.02 1.73 1.54 3.21 1.54.77 0 1.57-.15 2.38-.46.82-.3 1.56-.73 2.21-1.28zM3828.64-320.98h-3.39v-3.09h3.39v3.09zm-.2 20.64h-2.98v-17.69h2.98v17.69zM3837.59-299.91c-1.18 0-2.29-.16-3.32-.48-1.03-.32-1.88-.65-2.56-1.01v-3.34h.16c.25.2.55.42.89.66.34.24.8.5 1.37.76.51.23 1.06.44 1.67.62.61.18 1.24.27 1.89.27.47 0 .98-.06 1.52-.17.54-.11.94-.25 1.2-.42.37-.24.64-.5.8-.78.16-.27.25-.69.25-1.23 0-.71-.19-1.24-.58-1.6-.39-.36-1.07-.66-2.05-.9-.38-.1-.88-.21-1.49-.33s-1.18-.26-1.69-.41c-1.35-.39-2.33-.99-2.95-1.81s-.92-1.81-.92-2.97c0-1.59.6-2.89 1.81-3.89 1.2-1 2.8-1.5 4.8-1.5.98 0 1.97.12 2.96.36s1.83.55 2.5.92v3.18h-.16c-.76-.6-1.61-1.08-2.54-1.43-.93-.35-1.88-.52-2.83-.52-.98 0-1.81.21-2.49.62-.67.41-1.01 1.04-1.01 1.87 0 .74.2 1.29.6 1.65s1.04.66 1.93.89c.44.12.94.23 1.48.34.54.11 1.12.24 1.72.39 1.31.33 2.29.87 2.95 1.63.66.76.99 1.79.99 3.1 0 .76-.15 1.48-.45 2.16-.3.68-.74 1.26-1.32 1.75-.63.53-1.35.93-2.15 1.2-.78.28-1.78.42-2.98.42zM3852.63-299.99c-1.63 0-2.89-.46-3.8-1.38s-1.36-2.38-1.36-4.38v-9.8h-2.01v-2.47h2.01v-5.08h2.98v5.08h5.48v2.47h-5.48v8.41c0 .9.02 1.59.05 2.07.03.48.15.94.36 1.36.18.37.47.65.87.83.4.18.94.28 1.63.28.49 0 .96-.07 1.41-.21s.78-.26.98-.36h.17v2.68c-.56.16-1.13.28-1.7.37s-1.1.13-1.59.13zM3861.37-320.98h-3.39v-3.09h3.39v3.09zm-.2 20.64h-2.98v-17.69h2.98v17.69zM3872.57-299.94c-1.21 0-2.33-.19-3.34-.56-1.01-.38-1.88-.94-2.61-1.7s-1.29-1.72-1.69-2.87c-.4-1.16-.6-2.52-.6-4.08 0-1.55.21-2.89.62-4.02.42-1.13.97-2.08 1.67-2.85s1.56-1.36 2.6-1.78c1.04-.42 2.16-.62 3.35-.62.97 0 1.91.14 2.81.41.9.27 1.71.59 2.42.95v3.34h-.17c-.21-.18-.48-.38-.82-.62-.33-.23-.74-.47-1.21-.71-.41-.21-.9-.4-1.46-.55s-1.1-.24-1.62-.24c-1.54 0-2.78.58-3.71 1.75-.93 1.17-1.4 2.82-1.4 4.95 0 2.09.45 3.72 1.35 4.88s2.16 1.75 3.76 1.75c.97 0 1.89-.2 2.77-.6.88-.4 1.65-.92 2.33-1.55h.17v3.34c-.3.14-.67.3-1.11.5s-.84.34-1.2.44c-.51.15-.96.26-1.36.34-.4.06-.92.1-1.55.1zM3885.28-299.91c-1.18 0-2.29-.16-3.32-.48-1.03-.32-1.88-.65-2.56-1.01v-3.34h.16c.25.2.55.42.89.66.34.24.8.5 1.37.76.51.23 1.06.44 1.67.62.61.18 1.24.27 1.89.27.47 0 .98-.06 1.52-.17.54-.11.94-.25 1.2-.42.37-.24.64-.5.8-.78.16-.27.25-.69.25-1.23 0-.71-.19-1.24-.58-1.6-.39-.36-1.07-.66-2.05-.9-.38-.1-.88-.21-1.49-.33s-1.18-.26-1.69-.41c-1.35-.39-2.33-.99-2.95-1.81s-.92-1.81-.92-2.97c0-1.59.6-2.89 1.81-3.89 1.2-1 2.8-1.5 4.8-1.5.98 0 1.97.12 2.96.36s1.83.55 2.5.92v3.18h-.16c-.76-.6-1.61-1.08-2.54-1.43-.93-.35-1.88-.52-2.83-.52-.98 0-1.81.21-2.49.62-.67.41-1.01 1.04-1.01 1.87 0 .74.2 1.29.6 1.65s1.04.66 1.93.89c.44.12.94.23 1.48.34.54.11 1.12.24 1.72.39 1.31.33 2.29.87 2.95 1.63.66.76.99 1.79.99 3.1 0 .76-.15 1.48-.45 2.16-.3.68-.74 1.26-1.32 1.75-.63.53-1.35.93-2.15 1.2-.77.28-1.77.42-2.98.42z"/><g><path class="cst3" d="M3684.75-336.33c-.25-4.81-.59-8.74-1-11.78 6.21 2.82 11.84 4.23 16.91 4.23 2.03 0 3.92-.31 5.68-.93 1.76-.62 3.06-1.49 3.9-2.61a6.143 6.143 0 001.26-3.78c0-1.08-.2-2.04-.61-2.9-.61-1.17-1.61-2.39-3.03-3.66-1.81-1.74-5.04-4.61-9.69-8.6-2.22-1.93-3.75-3.31-4.59-4.13-1.9-1.81-3.36-3.43-4.37-4.87-1.01-1.44-1.74-2.87-2.18-4.3-.44-1.43-.67-2.95-.67-4.56 0-2.98.83-5.77 2.49-8.38 1.66-2.61 4.15-4.66 7.46-6.13 3.31-1.47 7.48-2.21 12.52-2.21 4.53 0 9.63.55 15.3 1.66.16 3.29.48 7.06.95 11.31-4.93-1.9-9.48-2.85-13.65-2.85-3.1 0-5.63.71-7.61 2.11-1.98 1.41-2.96 3.05-2.96 4.92 0 .51.07 1.04.21 1.59.14.55.34 1.09.62 1.62s.77 1.2 1.47 2.04c.71.84 1.74 1.82 3.1 2.95 1.36 1.12 2.52 2.04 3.49 2.73l5.86 5.32c1.49 1.23 2.81 2.44 3.98 3.61s2.17 2.29 3.01 3.37c.84 1.08 1.49 2.11 1.97 3.09.47.98.83 1.99 1.07 3.02s.36 2.11.36 3.25c0 2.66-.62 5.17-1.85 7.53s-3.01 4.3-5.32 5.82c-2.31 1.52-4.85 2.57-7.6 3.16-2.76.59-5.67.88-8.74.88-2.03 0-4.39-.17-7.08-.52-2.71-.35-6.25-1.02-10.66-2zM3736.39-334.95c.76-10.89 1.37-22.06 1.84-33.51s.71-20.2.71-26.25l-.05-5.08 7.94.1c.44 0 2.87-.03 7.27-.1-1.29 16.66-2.11 38.27-2.46 64.84l-6.99-.09c-1.16-.01-3.92.02-8.26.09zM3764.8-334.95c.95-9.44 1.67-20.28 2.15-32.54.48-12.26.72-23.02.72-32.3 3.8.06 6.98.1 9.55.1 2.75 0 5.45-.05 8.1-.14 2.64-.09 5.44-.14 8.38-.14 3.67 0 6.96.21 9.85.62 2.9.41 5.47 1.36 7.72 2.85s3.92 3.29 5.01 5.42c1.09 2.12 1.64 4.59 1.64 7.41 0 1.77-.21 3.46-.62 5.06-.41 1.6-1.02 3.1-1.83 4.51-.81 1.41-1.77 2.64-2.87 3.71-1.11 1.06-2.21 1.9-3.3 2.52s-2.34 1.15-3.73 1.59c-1.39.44-3.26.98-5.61 1.62l3.23 6.27c1.04 2 3.02 5.57 5.94 10.74l4.8 8.41c.25.44 1.01 1.88 2.28 4.32-3.88-.06-6.43-.09-7.67-.09-1.52 0-4.21.03-8.05.09l-5.26-12.63c-.92-1.93-2.02-4.21-3.32-6.84l-5.74-11.54c-.57-1.08-1.36-2.69-2.37-4.85 2.12.38 4.06.57 5.8.57 2.73 0 5.21-.44 7.46-1.33 2.25-.89 3.98-2.26 5.18-4.11 1.2-1.85 1.81-3.87 1.81-6.06 0-1.33-.26-2.56-.78-3.71s-1.4-2.11-2.64-2.9c-1.23-.79-2.71-1.3-4.42-1.52-1.71-.22-3.42-.33-5.13-.33-.95 0-2.25.02-3.9.05-1.65.03-3.67.05-6.08.05l-.85 19.52-.9 35.63-7.37-.09c-1.17-.04-3.57-.01-7.18.06zM3826.36-334.95c.76-10.89 1.37-22.06 1.84-33.51s.71-20.2.71-26.25l-.05-5.08 7.94.1c.44 0 2.87-.03 7.27-.1-1.29 16.66-2.11 38.27-2.46 64.84l-6.99-.09c-1.16-.01-3.91.02-8.26.09zM3857.5-399.8c3.67.06 6.15.1 7.45.1 1.61 0 4.02-.03 7.21-.1l-2.24 38.34c-.03.45-.05.92-.05 1.43 0 4.28.61 7.49 1.83 9.64 1.22 2.15 3.01 3.72 5.37 4.7 2.36.98 5.06 1.47 8.1 1.47 1.93 0 3.77-.22 5.51-.66 1.43-.38 2.72-.9 3.9-1.57.95-.57 1.79-1.23 2.52-1.99.85-.92 1.57-1.98 2.14-3.18.6-1.17 1.04-2.5 1.33-3.99.41-2.25.79-6.16 1.15-11.73l1.01-16.53c.22-4.81.4-10.12.53-15.91 3.57.06 6.23.1 7.97.1l6.93-.1-1.47 22.9-.95 18.19c-.29 4.24-.73 7.41-1.33 9.5-.51 1.74-1.22 3.36-2.14 4.84-.89 1.33-1.95 2.52-3.18 3.56-1.58 1.36-3.44 2.53-5.56 3.51a31.567 31.567 0 01-7.55 2.42c-3.67.7-7.46 1.04-11.35 1.04-3.99 0-7.73-.37-11.21-1.09-2.98-.63-5.71-1.62-8.19-2.95s-4.46-2.82-5.92-4.47c-1.17-1.33-2.11-2.99-2.8-4.99-.79-2.21-1.19-4.69-1.19-7.41 0-.95.03-2.18.1-3.68.06-1.5.18-3.44.34-5.82l.43-6.7c.16-2.09.34-5.16.53-9.22l.48-10.31c.09-2.8.21-5.92.3-9.34zM3926.27-336.33c-.25-4.81-.59-8.74-1-11.78 6.21 2.82 11.84 4.23 16.91 4.23 2.03 0 3.92-.31 5.68-.93 1.76-.62 3.06-1.49 3.9-2.61a6.143 6.143 0 001.26-3.78c0-1.08-.2-2.04-.61-2.9-.61-1.17-1.61-2.39-3.03-3.66-1.81-1.74-5.04-4.61-9.69-8.6-2.22-1.93-3.75-3.31-4.59-4.13-1.9-1.81-3.36-3.43-4.37-4.87-1.01-1.44-1.74-2.87-2.19-4.3s-.67-2.95-.67-4.56c0-2.98.83-5.77 2.49-8.38 1.66-2.61 4.15-4.66 7.46-6.13s7.48-2.21 12.52-2.21c4.53 0 9.63.55 15.3 1.66.16 3.29.47 7.06.95 11.31-4.93-1.9-9.48-2.85-13.66-2.85-3.1 0-5.63.71-7.61 2.11-1.98 1.41-2.96 3.05-2.96 4.92 0 .51.07 1.04.21 1.59.14.55.34 1.09.62 1.62s.77 1.2 1.47 2.04c.71.84 1.74 1.82 3.1 2.95 1.36 1.12 2.52 2.04 3.49 2.73l5.86 5.32c1.48 1.23 2.81 2.44 3.98 3.61s2.17 2.29 3.01 3.37c.84 1.08 1.49 2.11 1.97 3.09.47.98.83 1.99 1.07 3.02.24 1.03.36 2.11.36 3.25 0 2.66-.62 5.17-1.85 7.53s-3.01 4.3-5.32 5.82c-2.31 1.52-4.85 2.57-7.6 3.16-2.75.59-5.67.88-8.74.88-2.03 0-4.39-.17-7.08-.52-2.69-.35-6.24-1.02-10.64-2z"/></g><g><path class="cst3" d="M3736.74-404.56l3.68-10.16a.28.28 0 000-.22l-3.67-10.17 10.17 3.67c.07.03.15.03.22 0l10.17-3.68-3.68 10.16a.28.28 0 000 .22l3.67 10.17-10.17-3.67a.332.332 0 00-.22 0l-10.17 3.68zm10.27-6.69c.38 0 .76.07 1.13.2l4.16 1.5-1.5-4.16c-.26-.73-.26-1.53 0-2.26l1.5-4.14-4.15 1.5c-.73.26-1.53.26-2.26 0l-4.15-1.5 1.5 4.16c.26.73.26 1.53 0 2.26l-1.5 4.14 4.15-1.5c.35-.13.74-.2 1.12-.2z"/></g><g><path class="cst3" d="M3827.3-404.56l3.68-10.16a.28.28 0 000-.22l-3.67-10.17 10.17 3.67c.07.03.15.03.22 0l10.17-3.68-3.68 10.16a.28.28 0 000 .22l3.67 10.17-10.17-3.67a.28.28 0 00-.22 0l-10.17 3.68zm10.27-6.69c.38 0 .77.07 1.13.2l4.16 1.5-1.5-4.16c-.26-.73-.26-1.53 0-2.26l1.5-4.14-4.15 1.5c-.73.26-1.53.26-2.26 0l-4.15-1.5 1.5 4.16c.26.73.26 1.53 0 2.26l-1.5 4.15 4.15-1.5c.36-.14.74-.21 1.12-.21z"/></g></g><g><path class="cst3" d="M3707.24 969.29l-28.31-76.1c-1.17-3.13-3.18-5.67-5.66-7.14l-60.31-35.66 60.3-35.65c2.49-1.47 4.5-4 5.66-7.14l28.32-76.11 28.31 76.1c1.17 3.13 3.18 5.67 5.66 7.14l60.32 35.66-60.29 35.62c-2.49 1.47-4.5 4-5.67 7.14l-28.33 76.14zm-81.21-118.9l49.59 29.32c3.66 2.16 6.62 5.89 8.33 10.5l23.29 62.6 23.31-62.63c1.72-4.61 4.68-8.34 8.33-10.5l49.56-29.29-49.59-29.32c-3.66-2.16-6.62-5.89-8.33-10.5l-23.29-62.59-23.3 62.61c-1.72 4.61-4.68 8.34-8.33 10.5l-49.57 29.3z"/><path class="cst8" d="M3732.84 761.7h66.69v183.83h-66.69z"/><path class="cst3" d="M3785.49 916.12h-2.98v-24.64h2.98v24.64zM3804.42 907.29c0 2.98-.72 5.28-2.15 6.9-1.44 1.62-3.35 2.43-5.73 2.43-2.46 0-4.39-.84-5.8-2.51-1.41-1.67-2.11-3.95-2.11-6.82 0-2.96.73-5.25 2.18-6.89 1.45-1.64 3.37-2.46 5.74-2.46 2.39 0 4.3.82 5.73 2.45 1.42 1.63 2.14 3.93 2.14 6.9zm-3.08 0c0-2.29-.42-3.99-1.25-5.11-.83-1.11-2.02-1.67-3.56-1.67-1.55 0-2.75.56-3.59 1.67-.84 1.11-1.26 2.82-1.26 5.11 0 2.22.42 3.9 1.26 5.04.84 1.15 2.04 1.72 3.59 1.72 1.53 0 2.72-.56 3.55-1.69.84-1.12 1.26-2.81 1.26-5.07zM3808.1 918.96c.2.08.5.2.89.34s.83.28 1.33.4c.55.14 1.06.25 1.52.33.46.08.97.13 1.52.13.92 0 1.7-.12 2.34-.36.64-.24 1.14-.58 1.5-1.01.34-.43.58-.93.71-1.5.14-.57.21-1.22.21-1.95v-1.55c-.8.7-1.59 1.21-2.36 1.54-.77.33-1.74.5-2.9.5-2.02 0-3.62-.75-4.81-2.25-1.19-1.5-1.79-3.65-1.79-6.46 0-1.47.21-2.77.62-3.9.41-1.13.97-2.1 1.66-2.89.67-.76 1.45-1.35 2.36-1.76a6.8 6.8 0 012.82-.62c.92 0 1.71.11 2.38.33.67.22 1.34.53 2.02.93l.17-.76h2.8v15.68c0 3-.65 5.2-1.96 6.6-1.31 1.4-3.31 2.11-6 2.11-.87 0-1.75-.07-2.65-.21-.9-.14-1.74-.32-2.53-.55v-3.1h.15zm10.01-7.63v-9.71c-.74-.36-1.42-.61-2.05-.77s-1.25-.23-1.88-.23c-1.51 0-2.7.55-3.56 1.66s-1.3 2.7-1.3 4.77c0 1.96.33 3.46.99 4.48.66 1.02 1.73 1.54 3.21 1.54.77 0 1.56-.15 2.38-.46.82-.31 1.56-.74 2.21-1.28zM3828.64 895.48h-3.39v-3.09h3.39v3.09zm-.2 20.64h-2.98v-17.69h2.98v17.69zM3837.59 916.55c-1.18 0-2.29-.16-3.32-.48-1.03-.32-1.88-.65-2.56-1.01v-3.34h.16c.25.2.55.42.89.67.34.24.8.5 1.37.76.51.23 1.06.44 1.67.62.61.18 1.24.27 1.89.27.47 0 .98-.06 1.52-.17.54-.11.94-.25 1.2-.42.37-.24.64-.5.8-.78.16-.27.25-.69.25-1.24 0-.71-.19-1.24-.58-1.6-.39-.36-1.07-.66-2.05-.9-.38-.09-.88-.21-1.49-.33s-1.18-.26-1.69-.41c-1.35-.39-2.33-.99-2.95-1.81s-.92-1.81-.92-2.97c0-1.59.6-2.89 1.81-3.89s2.8-1.5 4.8-1.5c.98 0 1.97.12 2.96.36s1.83.55 2.5.92v3.18h-.16c-.76-.6-1.61-1.08-2.54-1.43-.93-.35-1.88-.52-2.83-.52-.98 0-1.81.21-2.49.62-.67.41-1.01 1.03-1.01 1.87 0 .74.2 1.29.6 1.66.4.36 1.04.66 1.93.89.44.12.94.23 1.48.34.54.11 1.12.24 1.72.39 1.31.33 2.29.87 2.95 1.63.66.76.99 1.79.99 3.1 0 .76-.15 1.48-.45 2.16s-.74 1.26-1.32 1.75c-.63.53-1.35.93-2.15 1.2s-1.78.41-2.98.41zM3852.63 916.47c-1.63 0-2.89-.46-3.8-1.39s-1.36-2.38-1.36-4.38v-9.8h-2.01v-2.47h2.01v-5.08h2.98v5.08h5.48v2.47h-5.48v8.41c0 .9.02 1.59.05 2.07.03.49.15.94.36 1.36.18.37.47.65.87.83.4.18.94.28 1.63.28.49 0 .96-.07 1.41-.21s.78-.26.98-.36h.17v2.68c-.56.16-1.13.28-1.7.37s-1.1.14-1.59.14zM3861.37 895.48h-3.39v-3.09h3.39v3.09zm-.2 20.64h-2.98v-17.69h2.98v17.69zM3872.57 916.52c-1.21 0-2.33-.19-3.34-.56a6.951 6.951 0 01-2.61-1.7c-.73-.76-1.29-1.72-1.69-2.87-.4-1.16-.6-2.52-.6-4.08 0-1.55.21-2.89.62-4.02s.97-2.08 1.67-2.85 1.56-1.36 2.6-1.78 2.16-.63 3.35-.63c.97 0 1.91.14 2.81.41s1.71.59 2.42.95v3.34h-.17c-.21-.18-.48-.38-.82-.62-.33-.23-.74-.47-1.21-.71-.41-.21-.9-.4-1.46-.55s-1.1-.24-1.62-.24c-1.54 0-2.78.58-3.71 1.75-.93 1.17-1.4 2.82-1.4 4.95 0 2.09.45 3.72 1.35 4.89.9 1.17 2.16 1.75 3.76 1.75.97 0 1.89-.2 2.77-.6.88-.4 1.65-.92 2.33-1.55h.17v3.34c-.3.14-.67.3-1.11.5s-.84.34-1.2.44c-.51.15-.96.26-1.36.34-.4.06-.92.1-1.55.1zM3885.28 916.55c-1.18 0-2.29-.16-3.32-.48-1.03-.32-1.88-.65-2.56-1.01v-3.34h.16c.25.2.55.42.89.67.34.24.8.5 1.37.76.51.23 1.06.44 1.67.62.61.18 1.24.27 1.89.27.47 0 .98-.06 1.52-.17.54-.11.94-.25 1.2-.42.37-.24.64-.5.8-.78.16-.27.25-.69.25-1.24 0-.71-.19-1.24-.58-1.6-.39-.36-1.07-.66-2.05-.9-.38-.09-.88-.21-1.49-.33s-1.18-.26-1.69-.41c-1.35-.39-2.33-.99-2.95-1.81s-.92-1.81-.92-2.97c0-1.59.6-2.89 1.81-3.89s2.8-1.5 4.8-1.5c.98 0 1.97.12 2.96.36s1.83.55 2.5.92v3.18h-.16c-.76-.6-1.61-1.08-2.54-1.43-.93-.35-1.88-.52-2.83-.52-.98 0-1.81.21-2.49.62-.67.41-1.01 1.03-1.01 1.87 0 .74.2 1.29.6 1.66.4.36 1.04.66 1.93.89.44.12.94.23 1.48.34.54.11 1.12.24 1.72.39 1.31.33 2.29.87 2.95 1.63.66.76.99 1.79.99 3.1 0 .76-.15 1.48-.45 2.16s-.74 1.26-1.32 1.75c-.63.53-1.35.93-2.15 1.2s-1.77.41-2.98.41z"/><g><path class="cst3" d="M3684.75 880.13c-.25-4.81-.59-8.74-1-11.78 6.21 2.82 11.84 4.23 16.91 4.23 2.03 0 3.92-.31 5.68-.93 1.76-.62 3.06-1.49 3.9-2.61a6.143 6.143 0 001.26-3.78c0-1.08-.2-2.04-.61-2.9-.61-1.17-1.61-2.39-3.03-3.66-1.81-1.74-5.04-4.61-9.69-8.6-2.22-1.93-3.75-3.31-4.59-4.13-1.9-1.81-3.36-3.43-4.37-4.87-1.01-1.44-1.74-2.87-2.18-4.3-.44-1.43-.67-2.95-.67-4.56 0-2.98.83-5.77 2.49-8.38 1.66-2.61 4.15-4.66 7.46-6.13 3.31-1.47 7.48-2.21 12.52-2.21 4.53 0 9.63.55 15.3 1.66.16 3.29.48 7.06.95 11.31-4.93-1.9-9.48-2.85-13.65-2.85-3.1 0-5.63.71-7.61 2.11-1.98 1.41-2.96 3.05-2.96 4.92 0 .51.07 1.04.21 1.59.14.55.34 1.09.62 1.62s.77 1.2 1.47 2.04c.71.84 1.74 1.82 3.1 2.95 1.36 1.12 2.52 2.04 3.49 2.73l5.86 5.32c1.49 1.24 2.81 2.44 3.98 3.61s2.17 2.3 3.01 3.37c.84 1.08 1.49 2.11 1.97 3.09.47.98.83 1.99 1.07 3.02.24 1.03.36 2.11.36 3.25 0 2.66-.62 5.17-1.85 7.53s-3.01 4.3-5.32 5.82c-2.31 1.52-4.85 2.57-7.6 3.16-2.76.58-5.67.88-8.74.88-2.03 0-4.39-.17-7.08-.52-2.71-.35-6.25-1.02-10.66-2zM3736.39 881.51c.76-10.89 1.37-22.07 1.84-33.51s.71-20.2.71-26.25l-.05-5.08 7.94.1c.44 0 2.87-.03 7.27-.1-1.29 16.66-2.11 38.27-2.46 64.84l-6.99-.09c-1.16-.01-3.92.02-8.26.09zM3764.8 881.51c.95-9.44 1.67-20.28 2.15-32.54.48-12.26.72-23.02.72-32.3 3.8.06 6.98.1 9.54.1 2.75 0 5.45-.05 8.1-.14 2.64-.09 5.44-.14 8.38-.14 3.67 0 6.96.21 9.85.62 2.9.41 5.47 1.36 7.72 2.85s3.92 3.29 5.01 5.42c1.09 2.12 1.64 4.59 1.64 7.41 0 1.77-.21 3.46-.62 5.06-.41 1.6-1.02 3.1-1.83 4.51-.81 1.41-1.77 2.64-2.87 3.71-1.11 1.06-2.21 1.9-3.3 2.52-1.09.62-2.34 1.15-3.73 1.59s-3.26.98-5.61 1.62l3.23 6.27c1.04 2 3.02 5.57 5.94 10.74l4.8 8.41c.25.44 1.01 1.88 2.28 4.32-3.87-.06-6.43-.09-7.67-.09-1.52 0-4.21.03-8.05.09l-5.26-12.64c-.92-1.93-2.02-4.21-3.32-6.84l-5.74-11.54c-.57-1.08-1.36-2.69-2.37-4.85 2.12.38 4.06.57 5.8.57 2.73 0 5.21-.44 7.46-1.33 2.25-.89 3.98-2.26 5.18-4.11 1.2-1.85 1.81-3.87 1.81-6.06 0-1.33-.26-2.56-.78-3.71s-1.4-2.11-2.64-2.9c-1.24-.79-2.71-1.3-4.42-1.52-1.71-.22-3.42-.33-5.13-.33-.95 0-2.25.02-3.89.05-1.65.03-3.67.05-6.08.05l-.85 19.52-.89 35.63-7.37-.09c-1.18-.03-3.58 0-7.19.07zM3826.36 881.51c.76-10.89 1.37-22.07 1.84-33.51.47-11.45.71-20.2.71-26.25l-.05-5.08 7.94.1c.44 0 2.87-.03 7.27-.1-1.29 16.66-2.11 38.27-2.46 64.84l-6.99-.09c-1.16-.01-3.91.02-8.26.09zM3857.5 816.66c3.67.06 6.15.1 7.45.1 1.61 0 4.02-.03 7.21-.1l-2.24 38.34c-.03.44-.05.92-.05 1.43 0 4.28.61 7.49 1.83 9.64s3.01 3.72 5.37 4.7c2.36.98 5.06 1.47 8.1 1.47 1.93 0 3.77-.22 5.51-.67 1.42-.38 2.72-.9 3.9-1.57.95-.57 1.79-1.24 2.52-2 .86-.92 1.57-1.98 2.14-3.18.6-1.17 1.05-2.5 1.33-3.99.41-2.25.79-6.16 1.15-11.73l1.01-16.53c.22-4.81.4-10.12.53-15.91 3.57.06 6.23.1 7.97.1l6.93-.1-1.47 22.9-.95 18.19c-.29 4.24-.73 7.41-1.33 9.5-.51 1.74-1.22 3.36-2.14 4.84-.89 1.33-1.95 2.52-3.18 3.56-1.58 1.36-3.44 2.53-5.56 3.51a31.567 31.567 0 01-7.55 2.42c-3.67.7-7.46 1.04-11.35 1.04-3.99 0-7.73-.36-11.21-1.09-2.98-.63-5.71-1.62-8.19-2.95-2.49-1.33-4.46-2.82-5.92-4.47-1.17-1.33-2.11-2.99-2.8-4.99-.79-2.22-1.19-4.69-1.19-7.41 0-.95.03-2.18.1-3.68.06-1.5.18-3.44.34-5.82l.43-6.7c.16-2.09.34-5.16.53-9.22l.48-10.31c.09-2.78.21-5.9.3-9.32zM3926.27 880.13c-.25-4.81-.59-8.74-1-11.78 6.21 2.82 11.84 4.23 16.91 4.23 2.03 0 3.92-.31 5.68-.93 1.76-.62 3.06-1.49 3.9-2.61s1.26-2.38 1.26-3.78c0-1.08-.2-2.04-.61-2.9-.61-1.17-1.61-2.39-3.03-3.66-1.81-1.74-5.04-4.61-9.69-8.6-2.22-1.93-3.75-3.31-4.59-4.13-1.9-1.81-3.36-3.43-4.37-4.87-1.01-1.44-1.74-2.87-2.19-4.3s-.67-2.95-.67-4.56c0-2.98.83-5.77 2.49-8.38 1.66-2.61 4.15-4.66 7.46-6.13s7.48-2.21 12.52-2.21c4.53 0 9.63.55 15.3 1.66.16 3.29.47 7.06.95 11.31-4.93-1.9-9.48-2.85-13.66-2.85-3.1 0-5.63.71-7.61 2.11-1.98 1.41-2.96 3.05-2.96 4.92 0 .51.07 1.04.21 1.59.14.55.34 1.09.62 1.62s.77 1.2 1.47 2.04c.71.84 1.74 1.82 3.1 2.95 1.36 1.12 2.52 2.04 3.49 2.73l5.86 5.32c1.48 1.24 2.81 2.44 3.98 3.61s2.17 2.3 3.01 3.37c.84 1.08 1.49 2.11 1.97 3.09.47.98.83 1.99 1.07 3.02.24 1.03.36 2.11.36 3.25 0 2.66-.62 5.17-1.85 7.53s-3.01 4.3-5.32 5.82c-2.31 1.52-4.85 2.57-7.6 3.16-2.75.58-5.67.88-8.74.88-2.03 0-4.39-.17-7.08-.52-2.7-.35-6.24-1.02-10.64-2z"/></g><g><path class="cst3" d="M3754.79 795.85l-3.81 7.77 3.81 7.79-7.78-3.81-7.77 3.81 3.81-7.78-3.81-7.78 7.78 3.81z"/></g><g><path class="cst3" d="M3844.79 795.85l-3.81 7.77 3.81 7.79-7.78-3.81-7.77 3.81 3.81-7.78-3.81-7.78 7.78 3.81z"/></g></g><g><path class="cst9" d="M415.91 238.85c-3.46-17.98-6.91-35.95-10.37-53.93l-6.54-34s-17.72 92.13-18.07 93.98l-44.24 7.88 17.9 18.89 26.34 4.69c.35 1.84 18.07 93.98 18.07 93.98l17.55-91.28"/><path class="cst10" d="M75.33 321.22h163.53"/><g><path class="cst11" d="M421.23 244.94l61.99 15.69-61.97 15.68 6.49-11.84 2.09-3.82-2.09-3.82-6.51-11.89m-15.72-12.17l15.26 27.89-15.26 27.84 110.09-27.86-110.09-27.87z"/><path class="cst12" d="M384.41 234.42l7.64 1.93 13.28 24.27-13.28 24.22-7.62 1.93 12.24-22.33 2.09-3.82-2.09-3.82-12.26-22.38m-15.72-12.18l21 38.39-21 38.33 28.67-7.26 17.03-31.08-17.03-31.13-28.67-7.25z"/></g></g><g><path class="cst2" d="M75.33 227.8h300.56v77.86H75.33z"/><text transform="translate(75.326 292.688)" class="cst3 cst4 cst5">SIRIUS</text><text transform="translate(246.745 330.304)" class="cst0 cst1">logistics</text><path class="cst3" d="M149.29 207.51l-3.81 7.77 3.81 7.79-7.78-3.81-7.78 3.81 3.81-7.77-3.81-7.79 7.78 3.81zM239.29 207.51l-3.81 7.77 3.81 7.79-7.78-3.81-7.78 3.81 3.81-7.77-3.81-7.79 7.78 3.81z"/></g><g><path class="cst13" d="M415.95 901.85l-15.34-55.46-16.18 57.66-55.54 16.31 55.54 16.32 16.18 57.66 15.18-55.49"/><path class="cst14" d="M416.59 905.41l43.66 14.98-43.65 14.98 5.14-12.71.91-2.25-.91-2.25-5.15-12.75m-10.48-9.94l10.07 24.94-10.07 24.9 72.62-24.92-72.62-24.92z"/><path class="cst14" d="M392.3 896l3.89 1.33 9.3 23.05-9.3 23.01-3.88 1.33 8.93-22.09.91-2.25-.91-2.25L392.3 896m-10.48-9.94l13.86 34.33-13.86 34.28 18.91-6.49 11.23-27.79-11.23-27.84-18.91-6.49z"/><path class="cst15" d="M88.19 981.32h163.54"/><text transform="translate(259.615 990.403)" class="cst16 cst0 cst1">logistics</text><path class="cst16" d="M93.14 951.41c-.25-4.81-.59-8.74-1-11.78 6.21 2.82 11.84 4.23 16.91 4.23 2.03 0 3.92-.31 5.68-.93 1.76-.62 3.06-1.49 3.9-2.61a6.143 6.143 0 001.26-3.78c0-1.08-.2-2.04-.61-2.9-.61-1.17-1.61-2.39-3.03-3.66-1.81-1.74-5.04-4.61-9.69-8.6-2.22-1.93-3.74-3.31-4.59-4.13-1.9-1.8-3.36-3.43-4.37-4.87-1.01-1.44-1.74-2.87-2.19-4.3-.44-1.43-.67-2.95-.67-4.56 0-2.98.83-5.77 2.49-8.38 1.66-2.61 4.15-4.66 7.46-6.13 3.31-1.47 7.48-2.21 12.52-2.21 4.53 0 9.63.55 15.3 1.66.16 3.29.48 7.06.95 11.31-4.93-1.9-9.48-2.85-13.65-2.85-3.1 0-5.63.71-7.61 2.11-1.98 1.41-2.96 3.05-2.96 4.92 0 .51.07 1.04.21 1.59.14.55.34 1.09.62 1.62s.77 1.2 1.47 2.04c.71.84 1.74 1.82 3.1 2.95 1.36 1.12 2.52 2.04 3.49 2.73l5.86 5.32c1.49 1.24 2.81 2.44 3.98 3.61s2.17 2.3 3.01 3.37c.84 1.08 1.49 2.11 1.97 3.09.47.98.83 1.99 1.07 3.02.24 1.03.36 2.11.36 3.25 0 2.66-.62 5.17-1.85 7.53-1.24 2.36-3.01 4.3-5.32 5.82-2.31 1.52-4.85 2.57-7.6 3.16-2.76.58-5.67.88-8.74.88-2.03 0-4.39-.17-7.08-.52-2.7-.36-6.25-1.02-10.65-2zM144.78 952.79c.76-10.89 1.37-22.07 1.84-33.51.47-11.45.71-20.2.71-26.25l-.05-5.08 7.94.1c.44 0 2.87-.03 7.27-.1-1.29 16.66-2.11 38.27-2.46 64.84l-6.99-.09c-1.17-.01-3.92.02-8.26.09zM173.18 952.79c.95-9.44 1.67-20.28 2.15-32.54.48-12.26.72-23.02.72-32.3 3.8.06 6.98.1 9.55.1 2.75 0 5.45-.05 8.1-.14 2.64-.09 5.44-.14 8.38-.14 3.67 0 6.96.21 9.85.62 2.9.41 5.47 1.36 7.72 2.85s3.92 3.29 5.01 5.42c1.09 2.12 1.64 4.59 1.64 7.41 0 1.77-.21 3.46-.62 5.06-.41 1.6-1.02 3.1-1.83 4.51s-1.77 2.64-2.87 3.71c-1.11 1.06-2.21 1.9-3.3 2.52-1.09.62-2.34 1.15-3.73 1.59-1.39.44-3.26.98-5.61 1.62l3.23 6.27c1.04 2 3.02 5.57 5.94 10.74l4.8 8.41c.25.44 1.01 1.88 2.28 4.32-3.87-.06-6.43-.09-7.67-.09-1.52 0-4.21.03-8.05.09l-5.26-12.64c-.92-1.93-2.02-4.21-3.32-6.84l-5.74-11.54c-.57-1.08-1.36-2.69-2.37-4.84 2.12.38 4.06.57 5.8.57 2.73 0 5.21-.44 7.46-1.33 2.25-.89 3.98-2.26 5.18-4.11 1.2-1.85 1.81-3.87 1.81-6.06 0-1.33-.26-2.56-.78-3.71-.52-1.14-1.4-2.11-2.64-2.9-1.23-.79-2.71-1.3-4.42-1.52-1.71-.22-3.42-.33-5.13-.33-.95 0-2.25.02-3.9.05-1.65.03-3.67.05-6.08.05l-.85 19.52-.9 35.63-7.37-.09c-1.17-.04-3.56-.01-7.18.06zM234.75 952.79c.76-10.89 1.37-22.07 1.84-33.51.47-11.45.71-20.2.71-26.25l-.05-5.08 7.94.1c.44 0 2.87-.03 7.27-.1-1.29 16.66-2.11 38.27-2.46 64.84l-6.99-.09c-1.16-.01-3.92.02-8.26.09zM253.51 869.83l-4 7.68 3.63 7.87-7.69-4-7.87 3.63 4-7.68-3.62-7.87 7.69 3.99zM163.51 869.83l-4 7.68 3.63 7.87-7.69-4-7.87 3.63 4-7.68-3.62-7.87 7.69 3.99zM334.65 951.41c-.25-4.81-.59-8.74-1-11.78 6.21 2.82 11.84 4.23 16.91 4.23 2.03 0 3.92-.31 5.68-.93 1.76-.62 3.06-1.49 3.9-2.61s1.26-2.38 1.26-3.78c0-1.08-.2-2.04-.61-2.9-.61-1.17-1.61-2.39-3.03-3.66-1.81-1.74-5.04-4.61-9.69-8.6-2.22-1.93-3.75-3.31-4.59-4.13-1.9-1.8-3.36-3.43-4.37-4.87-1.01-1.44-1.74-2.87-2.19-4.3-.44-1.43-.67-2.95-.67-4.56 0-2.98.83-5.77 2.49-8.38 1.66-2.61 4.15-4.66 7.46-6.13s7.48-2.21 12.52-2.21c4.53 0 9.63.55 15.3 1.66.16 3.29.47 7.06.95 11.31-4.93-1.9-9.48-2.85-13.66-2.85-3.1 0-5.63.71-7.61 2.11s-2.96 3.05-2.96 4.92c0 .51.07 1.04.21 1.59.14.55.34 1.09.62 1.62s.77 1.2 1.47 2.04c.71.84 1.74 1.82 3.1 2.95s2.52 2.04 3.49 2.73l5.86 5.32c1.48 1.24 2.81 2.44 3.98 3.61s2.17 2.3 3.01 3.37c.84 1.08 1.49 2.11 1.97 3.09.47.98.83 1.99 1.07 3.02.24 1.03.36 2.11.36 3.25 0 2.66-.62 5.17-1.85 7.53s-3.01 4.3-5.32 5.82c-2.31 1.52-4.85 2.57-7.6 3.16-2.75.58-5.67.88-8.74.88-2.03 0-4.39-.17-7.08-.52-2.69-.36-6.24-1.02-10.64-2zM265.89 887.94c3.67.06 6.15.1 7.45.1 1.61 0 4.02-.03 7.21-.1l-2.24 38.34c-.03.44-.05.92-.05 1.43 0 4.28.61 7.49 1.83 9.64 1.22 2.15 3.01 3.72 5.37 4.7 2.36.98 5.06 1.47 8.1 1.47 1.93 0 3.77-.22 5.51-.67 1.43-.38 2.72-.9 3.9-1.57.95-.57 1.79-1.24 2.52-2 .86-.92 1.57-1.98 2.14-3.18.6-1.17 1.05-2.5 1.33-3.99.41-2.25.79-6.16 1.15-11.73l1.01-16.53c.22-4.81.4-10.12.53-15.91 3.57.06 6.23.1 7.97.1l6.93-.1-1.47 22.9-.95 18.19c-.29 4.24-.73 7.41-1.33 9.5-.51 1.74-1.22 3.36-2.14 4.84-.89 1.33-1.95 2.52-3.18 3.56-1.58 1.36-3.44 2.53-5.56 3.51a31.567 31.567 0 01-7.55 2.42c-3.67.7-7.46 1.04-11.35 1.04-3.99 0-7.73-.36-11.21-1.09-2.98-.63-5.71-1.62-8.19-2.95-2.49-1.33-4.46-2.82-5.92-4.47-1.17-1.33-2.11-2.99-2.8-4.99-.79-2.22-1.19-4.69-1.19-7.41 0-.95.03-2.18.1-3.68.06-1.5.18-3.44.34-5.82l.43-6.7c.16-2.09.34-5.16.53-9.22l.48-10.31c.09-2.78.2-5.9.3-9.32z"/></g><g><path class="cst17" d="M427.59 1513.66l-15.34-55.45-16.18 57.66-55.54 16.31 55.54 16.31 16.18 57.66 15.18-55.48"/><path class="cst18" d="M426.48 1515.57l48.48 16.64-48.48 16.64 5.96-14.74.76-1.87-.76-1.87-5.96-14.8m-8.73-8.29l10.07 24.94-10.07 24.9 72.62-24.92-72.62-24.92z"/><path class="cst19" d="M402.19 1506.16l6.39 2.19 9.62 23.85-9.62 23.81-6.39 2.19 9.75-24.12.76-1.87-.76-1.87-9.75-24.18m-8.73-8.29l13.86 34.33-13.86 34.28 18.91-6.49 11.23-27.79-11.23-27.84-18.91-6.49z"/><path class="cst20" d="M99.83 1593.14h163.54"/><text transform="translate(271.253 1602.217)" class="cst0 cst1">logistics</text><path class="cst3" d="M104.78 1563.22c-.25-4.81-.59-8.74-1-11.78 6.21 2.82 11.84 4.23 16.91 4.23 2.03 0 3.92-.31 5.68-.93 1.76-.62 3.06-1.49 3.9-2.61a6.143 6.143 0 001.26-3.78c0-1.08-.2-2.04-.61-2.9-.61-1.17-1.61-2.39-3.03-3.66-1.81-1.74-5.04-4.61-9.69-8.6-2.22-1.93-3.74-3.31-4.59-4.13-1.9-1.8-3.36-3.43-4.37-4.87-1.01-1.44-1.74-2.87-2.19-4.3-.44-1.43-.67-2.95-.67-4.56 0-2.98.83-5.77 2.49-8.38 1.66-2.61 4.15-4.66 7.46-6.13 3.31-1.47 7.48-2.21 12.52-2.21 4.53 0 9.63.55 15.3 1.66.16 3.29.48 7.06.95 11.31-4.93-1.9-9.48-2.85-13.65-2.85-3.1 0-5.63.71-7.61 2.11-1.98 1.41-2.96 3.05-2.96 4.92 0 .51.07 1.04.21 1.59.14.55.34 1.09.62 1.62s.77 1.2 1.47 2.04c.71.84 1.74 1.82 3.1 2.95 1.36 1.12 2.52 2.04 3.49 2.73l5.86 5.32c1.49 1.24 2.81 2.44 3.98 3.61s2.17 2.3 3.01 3.37c.84 1.08 1.49 2.11 1.97 3.09.47.98.83 1.99 1.07 3.02.24 1.03.36 2.11.36 3.25 0 2.66-.62 5.17-1.85 7.53-1.24 2.36-3.01 4.3-5.32 5.82-2.31 1.52-4.85 2.57-7.6 3.16-2.76.58-5.67.88-8.74.88-2.03 0-4.39-.17-7.08-.52-2.7-.35-6.25-1.01-10.65-2zM156.41 1564.6c.76-10.89 1.37-22.07 1.84-33.51.47-11.45.71-20.2.71-26.25l-.05-5.08 7.94.1c.44 0 2.87-.03 7.27-.1-1.29 16.66-2.11 38.27-2.46 64.84l-6.99-.09c-1.16 0-3.91.03-8.26.09zM184.82 1564.6c.95-9.44 1.67-20.28 2.15-32.54.48-12.26.72-23.02.72-32.3 3.8.06 6.98.1 9.55.1 2.75 0 5.45-.05 8.1-.14 2.64-.09 5.44-.14 8.38-.14 3.67 0 6.96.21 9.85.62 2.9.41 5.47 1.36 7.72 2.85s3.92 3.29 5.01 5.42c1.09 2.12 1.64 4.59 1.64 7.41 0 1.77-.21 3.46-.62 5.06-.41 1.6-1.02 3.1-1.83 4.51s-1.77 2.64-2.87 3.71c-1.11 1.06-2.21 1.9-3.3 2.52-1.09.62-2.34 1.15-3.73 1.59-1.39.44-3.26.98-5.61 1.62l3.23 6.27c1.04 2 3.02 5.57 5.94 10.74l4.8 8.41c.25.44 1.01 1.88 2.28 4.32-3.87-.06-6.43-.09-7.67-.09-1.52 0-4.21.03-8.05.09l-5.26-12.64c-.92-1.93-2.02-4.21-3.32-6.84l-5.74-11.54c-.57-1.08-1.36-2.69-2.37-4.84 2.12.38 4.06.57 5.8.57 2.73 0 5.21-.44 7.46-1.33 2.25-.89 3.98-2.26 5.18-4.11 1.2-1.85 1.81-3.87 1.81-6.06 0-1.33-.26-2.56-.78-3.71-.52-1.14-1.4-2.11-2.64-2.9-1.23-.79-2.71-1.3-4.42-1.52-1.71-.22-3.42-.33-5.13-.33-.95 0-2.25.02-3.9.05-1.65.03-3.67.05-6.08.05l-.85 19.52-.9 35.63-7.37-.09c-1.17-.03-3.56 0-7.18.06zM246.39 1564.6c.76-10.89 1.37-22.07 1.84-33.51.47-11.45.71-20.2.71-26.25l-.05-5.08 7.94.1c.44 0 2.87-.03 7.27-.1-1.29 16.66-2.11 38.27-2.46 64.84l-6.99-.09c-1.16 0-3.92.03-8.26.09zM265.15 1481.65l-4 7.67 3.62 7.88-7.68-4-7.87 3.62 4-7.68-3.62-7.87 7.68 4zM175.15 1481.65l-4 7.67 3.62 7.88-7.68-4-7.87 3.62 4-7.68-3.62-7.87 7.68 4zM346.29 1563.22c-.25-4.81-.59-8.74-1-11.78 6.21 2.82 11.84 4.23 16.91 4.23 2.03 0 3.92-.31 5.68-.93 1.76-.62 3.06-1.49 3.9-2.61s1.26-2.38 1.26-3.78c0-1.08-.2-2.04-.61-2.9-.61-1.17-1.61-2.39-3.03-3.66-1.81-1.74-5.04-4.61-9.69-8.6-2.22-1.93-3.75-3.31-4.59-4.13-1.9-1.8-3.36-3.43-4.37-4.87-1.01-1.44-1.74-2.87-2.19-4.3-.44-1.43-.67-2.95-.67-4.56 0-2.98.83-5.77 2.49-8.38 1.66-2.61 4.15-4.66 7.46-6.13s7.48-2.21 12.52-2.21c4.53 0 9.63.55 15.3 1.66.16 3.29.47 7.06.95 11.31-4.93-1.9-9.48-2.85-13.66-2.85-3.1 0-5.63.71-7.61 2.11s-2.96 3.05-2.96 4.92c0 .51.07 1.04.21 1.59.14.55.34 1.09.62 1.62s.77 1.2 1.47 2.04c.71.84 1.74 1.82 3.1 2.95s2.52 2.04 3.49 2.73l5.86 5.32c1.48 1.24 2.81 2.44 3.98 3.61s2.17 2.3 3.01 3.37c.84 1.08 1.49 2.11 1.97 3.09.47.98.83 1.99 1.07 3.02.24 1.03.36 2.11.36 3.25 0 2.66-.62 5.17-1.85 7.53s-3.01 4.3-5.32 5.82c-2.31 1.52-4.85 2.57-7.6 3.16-2.75.58-5.67.88-8.74.88-2.03 0-4.39-.17-7.08-.52-2.69-.35-6.24-1.01-10.64-2zM277.53 1499.76c3.67.06 6.15.1 7.45.1 1.61 0 4.02-.03 7.21-.1l-2.24 38.34c-.03.44-.05.92-.05 1.43 0 4.28.61 7.49 1.83 9.64 1.22 2.15 3.01 3.72 5.37 4.7 2.36.98 5.06 1.47 8.1 1.47 1.93 0 3.77-.22 5.51-.67 1.43-.38 2.72-.9 3.9-1.57.95-.57 1.79-1.24 2.52-2 .86-.92 1.57-1.98 2.14-3.18.6-1.17 1.05-2.5 1.33-3.99.41-2.25.79-6.16 1.15-11.73l1.01-16.53c.22-4.81.4-10.12.53-15.91 3.57.06 6.23.1 7.97.1l6.93-.1-1.47 22.9-.95 18.19c-.29 4.24-.73 7.41-1.33 9.5-.51 1.74-1.22 3.36-2.14 4.84-.89 1.33-1.95 2.52-3.18 3.56-1.58 1.36-3.44 2.53-5.56 3.51a31.567 31.567 0 01-7.55 2.42c-3.67.7-7.46 1.04-11.35 1.04-3.99 0-7.73-.36-11.21-1.09-2.98-.63-5.71-1.62-8.19-2.95-2.49-1.33-4.46-2.82-5.92-4.47-1.17-1.33-2.11-2.99-2.8-4.99-.79-2.22-1.19-4.69-1.19-7.41 0-.95.03-2.18.1-3.68.06-1.5.18-3.44.34-5.82l.43-6.7c.16-2.09.34-5.16.53-9.22l.48-10.31c.09-2.78.2-5.9.3-9.32z"/></g><g><path class="cst21" d="M431.53 2090.14l-15.33-55.45-16.19 57.66-55.53 16.31 55.53 16.31 16.19 57.66 15.17-55.48"/><path class="cst22" d="M430.43 2092.05l48.48 16.64-48.48 16.64 5.96-14.74.76-1.87-.76-1.87-5.96-14.8m-8.74-8.28l10.07 24.94-10.07 24.9 72.62-24.92-72.62-24.92z"/><path class="cst23" d="M406.14 2082.64l6.39 2.19 9.62 23.85-9.62 23.81-6.39 2.19 9.75-24.12.76-1.87-.76-1.87-9.75-24.18m-8.73-8.29l13.86 34.33-13.86 34.28 18.91-6.49 11.23-27.79-11.23-27.84-18.91-6.49z"/><path class="cst24" d="M103.78 2169.62h163.53"/><text transform="translate(275.199 2178.698)" class="cst0 cst1">logistics</text><path class="cst3" d="M108.72 2139.7c-.25-4.81-.59-8.74-1-11.78 6.21 2.82 11.84 4.23 16.91 4.23 2.03 0 3.92-.31 5.68-.93 1.76-.62 3.06-1.49 3.9-2.61a6.143 6.143 0 001.26-3.78c0-1.08-.2-2.04-.61-2.9-.61-1.17-1.61-2.39-3.03-3.66-1.81-1.74-5.04-4.61-9.69-8.6-2.22-1.93-3.74-3.31-4.59-4.13-1.9-1.8-3.36-3.43-4.37-4.87-1.01-1.44-1.74-2.87-2.19-4.3-.44-1.43-.67-2.95-.67-4.56 0-2.98.83-5.77 2.49-8.38 1.66-2.61 4.15-4.66 7.46-6.13 3.31-1.47 7.48-2.21 12.52-2.21 4.53 0 9.63.55 15.3 1.66.16 3.29.48 7.06.95 11.31-4.93-1.9-9.48-2.85-13.65-2.85-3.1 0-5.63.71-7.61 2.11-1.98 1.41-2.96 3.05-2.96 4.92 0 .51.07 1.04.21 1.59.14.55.34 1.09.62 1.62s.77 1.2 1.47 2.04c.71.84 1.74 1.82 3.1 2.95 1.36 1.12 2.52 2.04 3.49 2.73l5.86 5.32c1.49 1.24 2.81 2.44 3.98 3.61s2.17 2.3 3.01 3.37c.84 1.08 1.49 2.11 1.97 3.09.47.98.83 1.99 1.07 3.02.24 1.03.36 2.11.36 3.25 0 2.66-.62 5.17-1.85 7.53-1.24 2.36-3.01 4.3-5.32 5.82-2.31 1.52-4.85 2.57-7.6 3.16-2.76.58-5.67.88-8.74.88-2.03 0-4.39-.17-7.08-.52-2.7-.35-6.25-1.01-10.65-2zM160.36 2141.08c.76-10.89 1.37-22.07 1.84-33.51.47-11.45.71-20.2.71-26.25l-.05-5.08 7.94.1c.44 0 2.87-.03 7.27-.1-1.29 16.66-2.11 38.27-2.46 64.84l-6.99-.09c-1.16 0-3.92.03-8.26.09zM188.77 2141.08c.95-9.44 1.67-20.28 2.15-32.54.48-12.26.72-23.02.72-32.3 3.8.06 6.98.1 9.55.1 2.75 0 5.45-.05 8.1-.14 2.64-.09 5.44-.14 8.38-.14 3.67 0 6.96.21 9.85.62 2.9.41 5.47 1.36 7.72 2.85s3.92 3.29 5.01 5.42c1.09 2.12 1.64 4.59 1.64 7.41 0 1.77-.21 3.46-.62 5.06-.41 1.6-1.02 3.1-1.83 4.51s-1.77 2.64-2.87 3.71c-1.11 1.06-2.21 1.9-3.3 2.52-1.09.62-2.34 1.15-3.73 1.59-1.39.44-3.26.98-5.61 1.62l3.23 6.27c1.04 2 3.02 5.57 5.94 10.74l4.8 8.41c.25.44 1.01 1.88 2.28 4.32-3.87-.06-6.43-.09-7.67-.09-1.52 0-4.21.03-8.05.09l-5.26-12.64c-.92-1.93-2.02-4.21-3.32-6.84l-5.74-11.54c-.57-1.08-1.36-2.69-2.37-4.84 2.12.38 4.06.57 5.8.57 2.73 0 5.21-.44 7.46-1.33 2.25-.89 3.98-2.26 5.18-4.11 1.2-1.85 1.81-3.87 1.81-6.06 0-1.33-.26-2.56-.78-3.71-.52-1.14-1.4-2.11-2.64-2.9-1.23-.79-2.71-1.3-4.42-1.52-1.71-.22-3.42-.33-5.13-.33-.95 0-2.25.02-3.9.05-1.65.03-3.67.05-6.08.05l-.85 19.52-.9 35.63-7.37-.09c-1.18-.03-3.57 0-7.18.06zM250.33 2141.08c.76-10.89 1.37-22.07 1.84-33.51.47-11.45.71-20.2.71-26.25l-.05-5.08 7.94.1c.44 0 2.87-.03 7.27-.1-1.29 16.66-2.11 38.27-2.46 64.84l-6.99-.09c-1.16 0-3.92.03-8.26.09zM269.1 2058.13l-4 7.67 3.62 7.88-7.69-4-7.86 3.62 4-7.68-3.63-7.87 7.69 4zM179.1 2058.13l-4 7.67 3.62 7.88-7.69-4-7.86 3.62 4-7.68-3.63-7.87 7.69 4zM350.23 2139.7c-.25-4.81-.59-8.74-1-11.78 6.21 2.82 11.84 4.23 16.91 4.23 2.03 0 3.92-.31 5.68-.93 1.76-.62 3.06-1.49 3.9-2.61s1.26-2.38 1.26-3.78c0-1.08-.2-2.04-.61-2.9-.61-1.17-1.61-2.39-3.03-3.66-1.81-1.74-5.04-4.61-9.69-8.6-2.22-1.93-3.75-3.31-4.59-4.13-1.9-1.8-3.36-3.43-4.37-4.87-1.01-1.44-1.74-2.87-2.19-4.3-.44-1.43-.67-2.95-.67-4.56 0-2.98.83-5.77 2.49-8.38 1.66-2.61 4.15-4.66 7.46-6.13s7.48-2.21 12.52-2.21c4.53 0 9.63.55 15.3 1.66.16 3.29.47 7.06.95 11.31-4.93-1.9-9.48-2.85-13.66-2.85-3.1 0-5.63.71-7.61 2.11s-2.96 3.05-2.96 4.92c0 .51.07 1.04.21 1.59.14.55.34 1.09.62 1.62s.77 1.2 1.47 2.04c.71.84 1.74 1.82 3.1 2.95s2.52 2.04 3.49 2.73l5.86 5.32c1.48 1.24 2.81 2.44 3.98 3.61s2.17 2.3 3.01 3.37c.84 1.08 1.49 2.11 1.97 3.09.47.98.83 1.99 1.07 3.02.24 1.03.36 2.11.36 3.25 0 2.66-.62 5.17-1.85 7.53s-3.01 4.3-5.32 5.82c-2.31 1.52-4.85 2.57-7.6 3.16-2.75.58-5.67.88-8.74.88-2.03 0-4.39-.17-7.08-.52-2.69-.35-6.23-1.01-10.64-2zM281.47 2076.24c3.67.06 6.15.1 7.45.1 1.61 0 4.02-.03 7.21-.1l-2.24 38.34c-.03.44-.05.92-.05 1.43 0 4.28.61 7.49 1.83 9.64 1.22 2.15 3.01 3.72 5.37 4.7 2.36.98 5.06 1.47 8.1 1.47 1.93 0 3.77-.22 5.51-.67 1.43-.38 2.72-.9 3.9-1.57.95-.57 1.79-1.24 2.52-2 .86-.92 1.57-1.98 2.14-3.18.6-1.17 1.05-2.5 1.33-3.99.41-2.25.79-6.16 1.15-11.73l1.01-16.53c.22-4.81.4-10.12.53-15.91 3.57.06 6.23.1 7.97.1l6.93-.1-1.47 22.9-.95 18.19c-.29 4.24-.73 7.41-1.33 9.5-.51 1.74-1.22 3.36-2.14 4.84-.89 1.33-1.95 2.52-3.18 3.56-1.58 1.36-3.44 2.53-5.56 3.51a31.567 31.567 0 01-7.55 2.42c-3.67.7-7.46 1.04-11.35 1.04-3.99 0-7.73-.36-11.21-1.09-2.98-.63-5.71-1.62-8.19-2.95-2.49-1.33-4.46-2.82-5.92-4.47-1.17-1.33-2.11-2.99-2.8-4.99-.79-2.22-1.19-4.69-1.19-7.41 0-.95.03-2.18.1-3.68.06-1.5.18-3.44.34-5.82l.43-6.7c.16-2.09.34-5.16.53-9.22l.48-10.31c.09-2.78.21-5.9.3-9.32z"/></g><g><path class="cst25" d="M-241.33-366.4c-3.46-17.98-6.91-35.95-10.37-53.93l-6.54-34s-17.72 92.13-18.07 93.98l-44.24 7.88 17.9 18.89 26.34 4.69c.35 1.84 18.07 93.98 18.07 93.98l17.55-91.28"/><path class="cst26" d="M-581.91-284.03h163.54"/><path class="cst2" d="M-581.91-377.45h300.56v77.86h-300.56z"/><text transform="translate(-581.908 -312.563)" class="cst27 cst4 cst5">SIRIUS</text><text transform="translate(-410.488 -274.947)" class="cst27 cst0 cst1">logistics</text><path class="cst27" d="M-507.94-397.74l-3.82 7.77 3.82 7.79-7.79-3.81-7.77 3.81 3.81-7.78-3.81-7.78 7.78 3.81zM-417.94-397.74l-3.82 7.77 3.82 7.79-7.79-3.81-7.77 3.81 3.81-7.78-3.81-7.78 7.78 3.81z"/><g><path class="cst28" d="M-237.88-361.76l67.72 17.14-67.7 17.14 7.54-13.75 1.84-3.36-1.84-3.36-7.56-13.81m-13.84-10.73l15.26 27.89-15.26 27.84 110.09-27.86-110.09-27.87z"/><path class="cst28" d="M-274.7-372.28l10.14 2.57 13.73 25.09-13.72 25.04-10.13 2.56 13.28-24.23 1.84-3.36-1.84-3.36-13.3-24.31m-13.85-10.73l21 38.39-21 38.33 28.67-7.26 17.03-31.08-17.03-31.13-28.67-7.25z"/></g><path class="cst29" d="M-623.68-613.68h31.4v31.4h-31.4z"/><path class="cst27" d="M-583.68-613.68h31.4v31.4h-31.4z"/><path class="cst30" d="M-543.68-613.68h31.4v31.4h-31.4z"/></g><g><path class="cst31" d="M398.6-366.4c-3.46-17.98-6.91-35.95-10.37-53.93l-6.54-34s-17.72 92.13-18.07 93.98l-44.24 7.88 17.9 18.89 26.34 4.69c.35 1.84 18.07 93.98 18.07 93.98l17.55-91.28"/><path class="cst32" d="M58.02-284.03h163.54"/><path class="cst2" d="M58.02-377.45h300.56v77.86H58.02z"/><text transform="translate(58.021 -312.563)" class="cst33 cst4 cst5">SIRIUS</text><text transform="translate(229.44 -274.947)" class="cst33 cst0 cst1">logistics</text><path class="cst33" d="M131.98-397.74l-3.81 7.77 3.81 7.79-7.78-3.81-7.77 3.81 3.81-7.78-3.81-7.78 7.78 3.81zM221.98-397.74l-3.81 7.77 3.81 7.79-7.78-3.81-7.77 3.81 3.81-7.78-3.81-7.78 7.78 3.81z"/><g><path class="cst34" d="M402.05-361.76l67.72 17.14-67.7 17.14 7.54-13.75 1.84-3.36-1.84-3.36-7.56-13.81m-13.85-10.73l15.26 27.89-15.26 27.84 110.09-27.86-110.09-27.87z"/><path class="cst34" d="M365.23-372.28l10.14 2.57 13.73 25.09-13.72 25.04-10.13 2.56 13.28-24.23 1.84-3.36-1.84-3.36-13.3-24.31m-13.85-10.73l21 38.39-21 38.33 28.67-7.26 17.03-31.08-17.03-31.13-28.67-7.25z"/></g><path class="cst33" d="M20.58-613.68h31.4v31.4h-31.4z"/><path class="cst34" d="M60.58-613.68h31.4v31.4h-31.4z"/><path class="cst35" d="M100.58-613.68h31.4v31.4h-31.4z"/></g><g><path class="cst36" d="M1025.36-366.4c-3.46-17.98-6.91-35.95-10.37-53.93l-6.54-34s-17.72 92.13-18.07 93.98l-44.24 7.88 17.9 18.89 26.34 4.69c.35 1.84 18.07 93.98 18.07 93.98l17.55-91.28"/><path class="cst37" d="M684.78-284.03h163.53"/><path class="cst38" d="M1028.81-361.76l67.72 17.14-67.7 17.14 7.54-13.75 1.84-3.36-1.84-3.36-7.56-13.81m-13.85-10.73l15.26 27.89-15.26 27.84 110.09-27.86-110.09-27.87z"/><path class="cst38" d="M991.99-372.28l10.14 2.57 13.73 25.09-13.72 25.04-10.14 2.56 13.28-24.23 1.84-3.36-1.84-3.36-13.29-24.31m-13.85-10.73l21 38.39-21 38.33 28.67-7.26 17.03-31.08-17.03-31.13-28.67-7.25z"/><path class="cst2" d="M684.78-377.45h300.56v77.86H684.78z"/><text transform="translate(684.78 -312.563)" class="cst39 cst4 cst5">SIRIUS</text><text transform="translate(856.2 -274.947)" class="cst39 cst0 cst1">logistics</text><path class="cst39" d="M758.74-397.74l-3.81 7.77 3.81 7.79-7.78-3.81-7.77 3.81 3.81-7.78-3.81-7.78 7.78 3.81zM848.74-397.74l-3.81 7.77 3.81 7.79-7.78-3.81-7.77 3.81 3.81-7.78-3.81-7.78 7.78 3.81zM650.58-613.68h31.4v31.4h-31.4z"/><path class="cst40" d="M690.58-613.68h31.4v31.4h-31.4z"/><g><path class="cst38" d="M730.58-613.68h31.4v31.4h-31.4z"/></g></g><g><path class="cst41" d="M1644.67-366.43c-3.46-17.98-6.91-35.95-10.37-53.93l-6.54-34s-17.72 92.13-18.07 93.98l-44.24 7.88 17.9 18.89 26.34 4.69c.35 1.84 18.07 93.98 18.07 93.98l17.55-91.28"/><path class="cst42" d="M1304.08-284.06h163.54"/><path class="cst43" d="M1648.12-361.79l67.72 17.14-67.7 17.14 7.54-13.75 1.84-3.36-1.84-3.36-7.56-13.81m-13.85-10.73l15.26 27.89-15.26 27.84 110.09-27.86-110.09-27.87z"/><path class="cst43" d="M1611.3-372.31l10.14 2.57 13.73 25.09-13.72 25.04-10.13 2.56 13.28-24.23 1.84-3.36-1.84-3.36-13.3-24.31m-13.85-10.73l21 38.39-21 38.33 28.67-7.26 17.03-31.08-17.03-31.13-28.67-7.25z"/><path class="cst2" d="M1304.08-377.48h300.56v77.86h-300.56z"/><text transform="translate(1304.085 -312.594)" class="cst44 cst4 cst5">SIRIUS</text><text transform="translate(1475.505 -274.978)" class="cst44 cst0 cst1">logistics</text><path class="cst44" d="M1378.05-397.77l-3.81 7.77 3.81 7.79-7.78-3.81-7.78 3.81 3.81-7.78-3.81-7.78 7.78 3.81zM1468.05-397.77l-3.81 7.77 3.81 7.79-7.78-3.81-7.78 3.81 3.81-7.78-3.81-7.78 7.78 3.81zM1260.58-613.68h31.4v31.4h-31.4z"/><path class="cst45" d="M1300.58-613.68h31.4v31.4h-31.4z"/><g><path class="cst43" d="M1340.58-613.68h31.4v31.4h-31.4z"/></g></g><g><path class="cst46" d="M2262.24-366.4c-3.46-17.98-6.91-35.95-10.37-53.93l-6.54-34s-17.72 92.13-18.07 93.98l-44.24 7.88 17.9 18.89 26.34 4.69c.35 1.84 18.07 93.98 18.07 93.98l17.55-91.28"/><path class="cst47" d="M1921.65-284.03h163.54"/><path class="cst48" d="M2265.68-361.76l67.72 17.14-67.7 17.14 7.54-13.75 1.84-3.36-1.84-3.36-7.56-13.81m-13.84-10.73l15.26 27.89-15.26 27.84 110.09-27.86-110.09-27.87z"/><path class="cst48" d="M2228.86-372.28l10.14 2.57 13.73 25.09-13.72 25.04-10.13 2.56 13.28-24.23 1.84-3.36-1.84-3.36-13.3-24.31m-13.85-10.73l21 38.39-21 38.33 28.67-7.26 17.03-31.08-17.03-31.13-28.67-7.25z"/><path class="cst2" d="M1921.65-377.45h300.56v77.86h-300.56z"/><text transform="translate(1921.652 -312.563)" class="cst49 cst4 cst5">SIRIUS</text><text transform="translate(2093.072 -274.947)" class="cst49 cst0 cst1">logistics</text><path class="cst49" d="M1995.62-397.74l-3.82 7.77 3.82 7.79-7.79-3.81-7.77 3.81 3.81-7.78-3.81-7.78 7.78 3.81zM2085.62-397.74l-3.82 7.77 3.82 7.79-7.79-3.81-7.77 3.81 3.81-7.78-3.81-7.78 7.78 3.81zM1880.58-613.68h31.4v31.4h-31.4z"/><path class="cst50" d="M1920.58-613.68h31.4v31.4h-31.4z"/><g><path class="cst48" d="M1960.58-613.68h31.4v31.4h-31.4z"/></g></g></svg><svg viewBox="0 0 100.354 100.352" id="phone" xmlns="http://www.w3.org/2000/svg"><path d="M49.244 67.609c-2.654 1.638-6.518.779-8.107-1.797l-11.49-18.621a5.583 5.583 0 011.815-7.675l-.788-1.276.788 1.276 10.05-6.205-8.849-14.337-10.044 6.2c-9.853 6.081-9.532 22.005.782 38.723 4.72 7.651 10.663 13.736 16.732 17.135 3.574 2.001 7.096 3.006 10.377 3.005 2.755 0 5.34-.708 7.644-2.13l9.667-5.963-8.849-14.341-9.728 6.006zm7.335 11.745c-5.228 3.227-11.032 1.271-14.979-.94-5.632-3.153-11.188-8.868-15.645-16.092-9.386-15.216-10.109-29.442-1.759-34.596l-.788-1.276.788 1.276 7.49-4.624 5.698 9.232-7.498 4.629c-4.024 2.483-5.276 7.778-2.792 11.803l11.489 18.62c2.456 3.983 8.174 5.278 12.235 2.775l7.177-4.43 5.698 9.233-7.114 4.39zM59.587 40.593a13.253 13.253 0 011.467 11.483l2.847.948c1.583-4.754.927-9.882-1.799-14.067-2.809-4.326-7.57-7.09-12.736-7.396l-.177 2.995c4.281.253 8.071 2.453 10.398 6.037z"/><path d="M51.396 21.636l-.343 2.98a23.37 23.37 0 0116.973 10.489 23.382 23.382 0 012.873 19.208l2.884.827a26.382 26.382 0 00-3.242-21.671 26.358 26.358 0 00-19.145-11.833z"/><path d="M78.017 28.604A35.268 35.268 0 0053.295 12.89l-.413 2.972a32.27 32.27 0 0122.62 14.378c5 7.681 6.5 17.167 4.116 26.028l2.897.779a35.363 35.363 0 00-4.498-28.443z"/></svg></svg>